M48
;DRILL file {KiCad 4.0.7-e2-6376~58~ubuntu16.04.1} date Wed Aug 29 00:25:51 2018
;FORMAT={3:3/ absolute / metric / suppress leading zeros}
FMAT,2
METRIC,TZ
T1C0.300
T2C0.600
T3C0.701
T4C0.750
T5C0.800
T6C0.850
T7C1.000
T8C1.200
T9C1.850
T10C3.200
T11C0.800
%
G90
G05
M71
T1
X30000Y-74000
X30000Y-76000
X30000Y-78000
X30000Y-80000
X30000Y-82000
X30000Y-99000
X31000Y-92000
X31000Y-94000
X33600Y-94300
X33900Y-92900
X34100Y-90100
X34600Y-87300
X34600Y-88300
X34600Y-89300
X34700Y-86300
X34900Y-92800
X35400Y-85600
X35700Y-92100
X36000Y-62000
X36000Y-108000
X36100Y-84900
X36400Y-91400
X36800Y-84200
X37000Y-87600
X37000Y-88600
X37000Y-89600
X37000Y-90600
X38000Y-108000
X38100Y-62000
X38100Y-62000
X40000Y-108000
X41300Y-87400
X41700Y-91100
X42000Y-108000
X43000Y-62000
X44000Y-108000
X44500Y-90900
X45000Y-62000
X46000Y-87700
X46000Y-108000
X46300Y-83700
X47000Y-62000
X48000Y-79100
X48000Y-108000
X49000Y-62000
X49600Y-91000
X49900Y-70400
X50000Y-108000
X51000Y-62000
X51200Y-86700
X51400Y-74000
X51500Y-72000
X51600Y-79000
X51700Y-81400
X51800Y-82200
X52000Y-108000
X52300Y-72000
X53000Y-62000
X53000Y-77800
X53300Y-72000
X53400Y-93600
X54000Y-108000
X54100Y-72000
X54300Y-94200
X54400Y-79000
X55000Y-62000
X55400Y-86700
X56000Y-108000
X56800Y-83200
X57000Y-62000
X57000Y-91600
X57300Y-89700
X57900Y-80900
X58000Y-108000
X58100Y-85100
X59000Y-62000
X60000Y-108000
X60200Y-84200
X60200Y-85000
X60200Y-85800
X60900Y-95100
X61000Y-62000
X61500Y-77100
X61500Y-78300
X61800Y-95100
X62000Y-108000
X62100Y-89900
X62100Y-90900
X62600Y-93000
X62700Y-71600
X63000Y-62000
X63100Y-89900
X63100Y-90900
X63400Y-93100
X63700Y-71600
X63800Y-74100
X63800Y-75000
X63800Y-76000
X63900Y-90950
X64000Y-108000
X64100Y-98400
X64200Y-93100
X64600Y-85800
X64700Y-71600
X64800Y-74100
X64800Y-75000
X64800Y-76000
X64900Y-87400
X65000Y-62000
X65000Y-92400
X65700Y-71600
X65800Y-77100
X66000Y-108000
X66700Y-71700
X66900Y-85700
X67000Y-62000
X68000Y-89300
X68000Y-108000
X69000Y-62000
X69000Y-79100
X69400Y-80200
X70000Y-108000
X70300Y-94000
X70700Y-79300
X71000Y-62000
X71200Y-82300
X71200Y-94100
X71400Y-90600
X72000Y-108000
X72100Y-82000
X72100Y-91200
X72300Y-92900
X72600Y-92000
X73400Y-90600
X74000Y-108000
X74200Y-89800
X74900Y-93100
X75100Y-78000
X75100Y-85600
X75100Y-92200
X75400Y-81500
X75500Y-76100
X75700Y-77400
X75700Y-93700
X76000Y-108000
X76200Y-76100
X76400Y-79400
X76400Y-80300
X76500Y-73500
X76700Y-83100
X77000Y-99400
X77600Y-73400
X78000Y-108000
X78300Y-81500
X78400Y-73500
X78900Y-70300
X78900Y-75700
X78900Y-83000
X79000Y-77600
X79000Y-99300
X79100Y-76700
X79100Y-78700
X79800Y-70600
X80000Y-108000
X80100Y-82600
X80400Y-69400
X80500Y-92100
X80600Y-70800
X80900Y-82700
X81000Y-70100
X81000Y-99200
X82000Y-62000
X82000Y-77200
X82000Y-108000
X82100Y-69400
X82300Y-74700
X82300Y-85800
X82600Y-77900
X82700Y-73800
X83100Y-82700
X83600Y-79400
X83700Y-71200
X83800Y-69700
X84000Y-62000
X84000Y-108000
X84200Y-78800
X84500Y-71300
X84500Y-82600
X84700Y-74700
X85000Y-75500
X85400Y-73500
X85600Y-82800
X85900Y-80500
X85900Y-91900
X86000Y-62000
X86000Y-72800
X86000Y-108000
X86600Y-100400
X86800Y-80500
X87600Y-80000
X87800Y-77700
X88000Y-62000
X88000Y-108000
X88900Y-101200
X90000Y-62000
X90000Y-108000
X96000Y-68000
X96000Y-70000
X96000Y-72000
X96000Y-74000
X96000Y-76000
X96000Y-78000
X96000Y-80000
X96000Y-82000
X96000Y-84000
X96000Y-86000
X96000Y-88000
X96000Y-90000
X96000Y-92000
X96000Y-94000
X96000Y-96000
X96000Y-98000
X96000Y-100000
X96000Y-102000
T3
X44000Y-64001
X44000Y-66000
X44000Y-67999
T4
X63000Y-64000
X65000Y-64000
X67000Y-64000
X69000Y-64000
T5
X57500Y-102000
X62500Y-102000
T6
X32350Y-90500
X32350Y-95500
T7
X70000Y-101000
X70000Y-103540
X73920Y-63000
X76460Y-63000
X79000Y-63000
T8
X39000Y-99000
X39000Y-104000
X51000Y-99000
X51000Y-104000
T9
X30475Y-71396
X30475Y-84604
X40000Y-78000
X40127Y-73301
X40127Y-82699
T10
X32000Y-64000
X32000Y-106000
X94000Y-64000
X94000Y-106000
T11
X60000Y-97500
X60000Y-106500
T2
X29300Y-89500G85X30000Y-89500
G05
X30000Y-96500G85X29300Y-96500
G05
T0
M30
