G04 #@! TF.FileFunction,Soldermask,Bot*
%FSLAX46Y46*%
G04 Gerber Fmt 4.6, Leading zero omitted, Abs format (unit mm)*
G04 Created by KiCad (PCBNEW 4.0.7-e2-6376~58~ubuntu16.04.1) date Wed Aug 29 00:33:05 2018*
%MOMM*%
%LPD*%
G01*
G04 APERTURE LIST*
%ADD10C,0.100000*%
%ADD11C,3.400000*%
%ADD12R,2.400000X2.400000*%
%ADD13C,2.400000*%
%ADD14R,1.150000X0.700000*%
%ADD15R,1.250000X0.700000*%
%ADD16R,0.700000X1.150000*%
%ADD17R,0.700000X1.250000*%
%ADD18R,3.000000X3.000000*%
%ADD19R,1.650000X1.400000*%
%ADD20R,1.400000X1.650000*%
%ADD21R,2.100000X2.100000*%
%ADD22O,2.100000X2.100000*%
%ADD23R,1.600000X2.100000*%
%ADD24O,1.600000X2.100000*%
%ADD25R,3.450000X1.540000*%
%ADD26R,1.700000X1.100000*%
%ADD27C,6.800000*%
%ADD28R,1.200000X1.300000*%
%ADD29R,1.300000X1.200000*%
%ADD30R,1.100000X1.700000*%
%ADD31R,1.050000X0.700000*%
%ADD32R,1.175000X1.640000*%
%ADD33R,1.460000X1.050000*%
%ADD34R,1.700000X0.650000*%
%ADD35R,0.650000X1.700000*%
%ADD36C,1.200000*%
%ADD37R,2.099260X1.598880*%
%ADD38O,2.099260X1.598880*%
%ADD39C,1.850000*%
%ADD40O,2.300000X1.600000*%
G04 APERTURE END LIST*
D10*
D11*
X40127000Y-82699000D03*
X40000000Y-78000000D03*
X40127000Y-73301000D03*
X30475000Y-84604000D03*
X30475000Y-71396000D03*
D12*
X39000000Y-99000000D03*
D13*
X51000000Y-99000000D03*
X51000000Y-104000000D03*
X39000000Y-104000000D03*
D14*
X61050000Y-91250000D03*
D15*
X61050000Y-90750000D03*
X61050000Y-90250000D03*
X61050000Y-89750000D03*
X61050000Y-89250000D03*
D14*
X61050000Y-88750000D03*
D16*
X61750000Y-88050000D03*
D17*
X62250000Y-88050000D03*
X62750000Y-88050000D03*
X63250000Y-88050000D03*
X63750000Y-88050000D03*
D16*
X64250000Y-88050000D03*
D14*
X64950000Y-88750000D03*
D15*
X64950000Y-89250000D03*
X64950000Y-89750000D03*
X64950000Y-90250000D03*
X64950000Y-90750000D03*
D14*
X64950000Y-91250000D03*
D16*
X64250000Y-91950000D03*
D17*
X63750000Y-91950000D03*
X63250000Y-91950000D03*
X62750000Y-91950000D03*
X62250000Y-91950000D03*
D16*
X61750000Y-91950000D03*
D18*
X63000000Y-90000000D03*
D19*
X50000000Y-76000000D03*
X50000000Y-74000000D03*
D20*
X58000000Y-71000000D03*
X56000000Y-71000000D03*
D19*
X61000000Y-71000000D03*
X61000000Y-69000000D03*
X74000000Y-80000000D03*
X74000000Y-82000000D03*
X65000000Y-81000000D03*
X65000000Y-83000000D03*
X83700000Y-83900000D03*
X83700000Y-85900000D03*
X74000000Y-76000000D03*
X74000000Y-78000000D03*
X72000000Y-76000000D03*
X72000000Y-78000000D03*
X75000000Y-74000000D03*
X75000000Y-72000000D03*
X73000000Y-74000000D03*
X73000000Y-72000000D03*
X70000000Y-88000000D03*
X70000000Y-90000000D03*
X68000000Y-88000000D03*
X68000000Y-90000000D03*
D21*
X79000000Y-63000000D03*
D22*
X76460000Y-63000000D03*
X73920000Y-63000000D03*
D23*
X63000000Y-64000000D03*
D24*
X65000000Y-64000000D03*
X67000000Y-64000000D03*
X69000000Y-64000000D03*
D25*
X59000000Y-75080000D03*
X59000000Y-72920000D03*
D26*
X71000000Y-72050000D03*
X71000000Y-73950000D03*
D27*
X94000000Y-64000000D03*
X32000000Y-106000000D03*
X32000000Y-64000000D03*
X94000000Y-106000000D03*
D28*
X44950000Y-75000000D03*
X43050000Y-75000000D03*
X44000000Y-73000000D03*
D29*
X59000000Y-83950000D03*
X59000000Y-82050000D03*
X61000000Y-83000000D03*
D26*
X41000000Y-90950000D03*
X41000000Y-89050000D03*
X46000000Y-90950000D03*
X46000000Y-89050000D03*
X51000000Y-90950000D03*
X51000000Y-89050000D03*
X56000000Y-90950000D03*
X56000000Y-89050000D03*
X48000000Y-78050000D03*
X48000000Y-79950000D03*
X57000000Y-87950000D03*
X57000000Y-86050000D03*
D30*
X59050000Y-80000000D03*
X60950000Y-80000000D03*
X43050000Y-77000000D03*
X44950000Y-77000000D03*
X68050000Y-86000000D03*
X69950000Y-86000000D03*
X48050000Y-72000000D03*
X49950000Y-72000000D03*
D26*
X72000000Y-89950000D03*
X72000000Y-88050000D03*
X76000000Y-90950000D03*
X76000000Y-89050000D03*
X81000000Y-90950000D03*
X81000000Y-89050000D03*
X86000000Y-90950000D03*
X86000000Y-89050000D03*
X77000000Y-97950000D03*
X77000000Y-96050000D03*
X79000000Y-97950000D03*
X79000000Y-96050000D03*
X81000000Y-97950000D03*
X81000000Y-96050000D03*
X40000000Y-63950000D03*
X40000000Y-62050000D03*
D30*
X48050000Y-86000000D03*
X49950000Y-86000000D03*
D26*
X40000000Y-67950000D03*
X40000000Y-66050000D03*
D30*
X57950000Y-69000000D03*
X56050000Y-69000000D03*
X56050000Y-67000000D03*
X57950000Y-67000000D03*
X64050000Y-100000000D03*
X65950000Y-100000000D03*
D26*
X55000000Y-83050000D03*
X55000000Y-84950000D03*
X53000000Y-83050000D03*
X53000000Y-84950000D03*
X67000000Y-77050000D03*
X67000000Y-78950000D03*
X67000000Y-81050000D03*
X67000000Y-82950000D03*
X70000000Y-76050000D03*
X70000000Y-77950000D03*
D30*
X60950000Y-100000000D03*
X59050000Y-100000000D03*
D26*
X68000000Y-92050000D03*
X68000000Y-93950000D03*
D30*
X89050000Y-77000000D03*
X90950000Y-77000000D03*
D21*
X70000000Y-101000000D03*
D22*
X70000000Y-103540000D03*
D31*
X50550000Y-82000000D03*
X50550000Y-82500000D03*
X50550000Y-83000000D03*
X50550000Y-83500000D03*
X50550000Y-84000000D03*
X47450000Y-84000000D03*
X47450000Y-83500000D03*
X47450000Y-83000000D03*
X47450000Y-82500000D03*
X47450000Y-82000000D03*
D32*
X48612500Y-83620000D03*
X48612500Y-82380000D03*
X49387500Y-83620000D03*
X49387500Y-82380000D03*
D33*
X52900000Y-74950000D03*
X52900000Y-74000000D03*
X52900000Y-73050000D03*
X55100000Y-73050000D03*
X55100000Y-74950000D03*
D34*
X77650000Y-79750000D03*
X77650000Y-79250000D03*
X77650000Y-78750000D03*
X77650000Y-78250000D03*
X77650000Y-77750000D03*
X77650000Y-77250000D03*
X77650000Y-76750000D03*
X77650000Y-76250000D03*
X77650000Y-75750000D03*
X77650000Y-75250000D03*
X77650000Y-74750000D03*
X77650000Y-74250000D03*
D35*
X79250000Y-72650000D03*
X79750000Y-72650000D03*
X80250000Y-72650000D03*
X80750000Y-72650000D03*
X81250000Y-72650000D03*
X81750000Y-72650000D03*
X82250000Y-72650000D03*
X82750000Y-72650000D03*
X83250000Y-72650000D03*
X83750000Y-72650000D03*
X84250000Y-72650000D03*
X84750000Y-72650000D03*
D34*
X86350000Y-74250000D03*
X86350000Y-74750000D03*
X86350000Y-75250000D03*
X86350000Y-75750000D03*
X86350000Y-76250000D03*
X86350000Y-76750000D03*
X86350000Y-77250000D03*
X86350000Y-77750000D03*
X86350000Y-78250000D03*
X86350000Y-78750000D03*
X86350000Y-79250000D03*
X86350000Y-79750000D03*
D35*
X84750000Y-81350000D03*
X84250000Y-81350000D03*
X83750000Y-81350000D03*
X83250000Y-81350000D03*
X82750000Y-81350000D03*
X82250000Y-81350000D03*
X81750000Y-81350000D03*
X81250000Y-81350000D03*
X80750000Y-81350000D03*
X80250000Y-81350000D03*
X79750000Y-81350000D03*
X79250000Y-81350000D03*
D13*
X62500000Y-102000000D03*
X57500000Y-102000000D03*
D36*
X60000000Y-97500000D03*
X60000000Y-106500000D03*
D37*
X44000000Y-64001020D03*
D38*
X44000000Y-66000000D03*
X44000000Y-67998980D03*
D30*
X38050000Y-70000000D03*
X39950000Y-70000000D03*
D39*
X32350000Y-90500000D03*
X32350000Y-95500000D03*
D40*
X29650000Y-89500000D03*
X29650000Y-96500000D03*
D19*
X53000000Y-81000000D03*
X53000000Y-79000000D03*
X45000000Y-82000000D03*
X45000000Y-80000000D03*
D26*
X48000000Y-75950000D03*
X48000000Y-74050000D03*
M02*
