G04 #@! TF.FileFunction,Copper,L2,Bot,Signal*
%FSLAX46Y46*%
G04 Gerber Fmt 4.6, Leading zero omitted, Abs format (unit mm)*
G04 Created by KiCad (PCBNEW 4.0.7-e2-6376~58~ubuntu16.04.1) date Wed Aug 29 00:25:47 2018*
%MOMM*%
%LPD*%
G01*
G04 APERTURE LIST*
%ADD10C,0.100000*%
%ADD11C,0.600000*%
%ADD12R,2.000000X2.000000*%
%ADD13C,2.000000*%
%ADD14R,0.750000X0.300000*%
%ADD15R,0.850000X0.300000*%
%ADD16R,0.300000X0.750000*%
%ADD17R,0.300000X0.850000*%
%ADD18R,2.600000X2.600000*%
%ADD19R,1.250000X1.000000*%
%ADD20R,1.000000X1.250000*%
%ADD21R,1.700000X1.700000*%
%ADD22O,1.700000X1.700000*%
%ADD23R,1.200000X1.700000*%
%ADD24O,1.200000X1.700000*%
%ADD25R,3.050000X1.140000*%
%ADD26R,1.300000X0.700000*%
%ADD27C,6.400000*%
%ADD28R,0.800000X0.900000*%
%ADD29R,0.900000X0.800000*%
%ADD30R,0.700000X1.300000*%
%ADD31R,0.650000X0.300000*%
%ADD32R,0.775000X1.240000*%
%ADD33R,1.060000X0.650000*%
%ADD34R,1.300000X0.250000*%
%ADD35R,0.250000X1.300000*%
%ADD36C,3.000000*%
%ADD37R,1.699260X1.198880*%
%ADD38O,1.699260X1.198880*%
%ADD39C,1.450000*%
%ADD40O,1.900000X1.200000*%
%ADD41C,0.400000*%
%ADD42C,0.200000*%
%ADD43C,0.600000*%
%ADD44C,0.254000*%
G04 APERTURE END LIST*
D10*
D11*
X82000000Y-62000000D03*
X84000000Y-62000000D03*
X86000000Y-62000000D03*
X88000000Y-62000000D03*
X90000000Y-62000000D03*
X71000000Y-62000000D03*
X69000000Y-62000000D03*
X67000000Y-62000000D03*
X65000000Y-62000000D03*
X63000000Y-62000000D03*
X61000000Y-62000000D03*
X59000000Y-62000000D03*
X57000000Y-62000000D03*
X55000000Y-62000000D03*
X53000000Y-62000000D03*
X51000000Y-62000000D03*
X49000000Y-62000000D03*
X47000000Y-62000000D03*
X45000000Y-62000000D03*
X43000000Y-62000000D03*
X36000000Y-62000000D03*
X30000000Y-99000000D03*
X30000000Y-82000000D03*
X30000000Y-80000000D03*
X30000000Y-78000000D03*
X30000000Y-76000000D03*
X30000000Y-74000000D03*
X96000000Y-102000000D03*
X96000000Y-100000000D03*
X96000000Y-98000000D03*
X96000000Y-96000000D03*
X96000000Y-94000000D03*
X96000000Y-92000000D03*
X96000000Y-90000000D03*
X96000000Y-88000000D03*
X96000000Y-86000000D03*
X96000000Y-84000000D03*
X96000000Y-82000000D03*
X96000000Y-80000000D03*
X96000000Y-78000000D03*
X96000000Y-76000000D03*
X96000000Y-74000000D03*
X96000000Y-72000000D03*
X96000000Y-70000000D03*
X96000000Y-68000000D03*
X90000000Y-108000000D03*
X88000000Y-108000000D03*
X86000000Y-108000000D03*
X84000000Y-108000000D03*
X82000000Y-108000000D03*
X80000000Y-108000000D03*
X78000000Y-108000000D03*
X76000000Y-108000000D03*
X74000000Y-108000000D03*
X72000000Y-108000000D03*
X70000000Y-108000000D03*
X68000000Y-108000000D03*
X66000000Y-108000000D03*
X64000000Y-108000000D03*
X62000000Y-108000000D03*
X60000000Y-108000000D03*
X58000000Y-108000000D03*
X56000000Y-108000000D03*
X54000000Y-108000000D03*
X52000000Y-108000000D03*
X50000000Y-108000000D03*
X48000000Y-108000000D03*
X46000000Y-108000000D03*
X44000000Y-108000000D03*
X42000000Y-108000000D03*
X40000000Y-108000000D03*
X38000000Y-108000000D03*
D12*
X39000000Y-99000000D03*
D13*
X51000000Y-99000000D03*
X51000000Y-104000000D03*
X39000000Y-104000000D03*
D14*
X61050000Y-91250000D03*
D15*
X61050000Y-90750000D03*
X61050000Y-90250000D03*
X61050000Y-89750000D03*
X61050000Y-89250000D03*
D14*
X61050000Y-88750000D03*
D16*
X61750000Y-88050000D03*
D17*
X62250000Y-88050000D03*
X62750000Y-88050000D03*
X63250000Y-88050000D03*
X63750000Y-88050000D03*
D16*
X64250000Y-88050000D03*
D14*
X64950000Y-88750000D03*
D15*
X64950000Y-89250000D03*
X64950000Y-89750000D03*
X64950000Y-90250000D03*
X64950000Y-90750000D03*
D14*
X64950000Y-91250000D03*
D16*
X64250000Y-91950000D03*
D17*
X63750000Y-91950000D03*
X63250000Y-91950000D03*
X62750000Y-91950000D03*
X62250000Y-91950000D03*
D16*
X61750000Y-91950000D03*
D18*
X63000000Y-90000000D03*
D19*
X50000000Y-76000000D03*
X50000000Y-74000000D03*
D20*
X58000000Y-71000000D03*
X56000000Y-71000000D03*
D19*
X61000000Y-71000000D03*
X61000000Y-69000000D03*
X74000000Y-80000000D03*
X74000000Y-82000000D03*
X65000000Y-81000000D03*
X65000000Y-83000000D03*
X83700000Y-83900000D03*
X83700000Y-85900000D03*
X74000000Y-76000000D03*
X74000000Y-78000000D03*
X72000000Y-76000000D03*
X72000000Y-78000000D03*
X75000000Y-74000000D03*
X75000000Y-72000000D03*
X73000000Y-74000000D03*
X73000000Y-72000000D03*
X70000000Y-88000000D03*
X70000000Y-90000000D03*
X68000000Y-88000000D03*
X68000000Y-90000000D03*
D21*
X79000000Y-63000000D03*
D22*
X76460000Y-63000000D03*
X73920000Y-63000000D03*
D23*
X63000000Y-64000000D03*
D24*
X65000000Y-64000000D03*
X67000000Y-64000000D03*
X69000000Y-64000000D03*
D25*
X59000000Y-75080000D03*
X59000000Y-72920000D03*
D26*
X71000000Y-72050000D03*
X71000000Y-73950000D03*
D27*
X94000000Y-64000000D03*
X32000000Y-106000000D03*
X32000000Y-64000000D03*
X94000000Y-106000000D03*
D28*
X44950000Y-75000000D03*
X43050000Y-75000000D03*
X44000000Y-73000000D03*
D29*
X59000000Y-83950000D03*
X59000000Y-82050000D03*
X61000000Y-83000000D03*
D26*
X41000000Y-90950000D03*
X41000000Y-89050000D03*
X46000000Y-90950000D03*
X46000000Y-89050000D03*
X51000000Y-90950000D03*
X51000000Y-89050000D03*
X56000000Y-90950000D03*
X56000000Y-89050000D03*
X48000000Y-78050000D03*
X48000000Y-79950000D03*
X57000000Y-87950000D03*
X57000000Y-86050000D03*
D30*
X59050000Y-80000000D03*
X60950000Y-80000000D03*
X43050000Y-77000000D03*
X44950000Y-77000000D03*
X68050000Y-86000000D03*
X69950000Y-86000000D03*
X48050000Y-72000000D03*
X49950000Y-72000000D03*
D26*
X72000000Y-89950000D03*
X72000000Y-88050000D03*
X76000000Y-90950000D03*
X76000000Y-89050000D03*
X81000000Y-90950000D03*
X81000000Y-89050000D03*
X86000000Y-90950000D03*
X86000000Y-89050000D03*
X77000000Y-97950000D03*
X77000000Y-96050000D03*
X79000000Y-97950000D03*
X79000000Y-96050000D03*
X81000000Y-97950000D03*
X81000000Y-96050000D03*
X40000000Y-63950000D03*
X40000000Y-62050000D03*
D30*
X48050000Y-86000000D03*
X49950000Y-86000000D03*
D26*
X40000000Y-67950000D03*
X40000000Y-66050000D03*
D30*
X57950000Y-69000000D03*
X56050000Y-69000000D03*
X56050000Y-67000000D03*
X57950000Y-67000000D03*
X64050000Y-100000000D03*
X65950000Y-100000000D03*
D26*
X55000000Y-83050000D03*
X55000000Y-84950000D03*
X53000000Y-83050000D03*
X53000000Y-84950000D03*
X67000000Y-77050000D03*
X67000000Y-78950000D03*
X67000000Y-81050000D03*
X67000000Y-82950000D03*
X70000000Y-76050000D03*
X70000000Y-77950000D03*
D30*
X60950000Y-100000000D03*
X59050000Y-100000000D03*
D26*
X68000000Y-92050000D03*
X68000000Y-93950000D03*
D30*
X89050000Y-77000000D03*
X90950000Y-77000000D03*
D21*
X70000000Y-101000000D03*
D22*
X70000000Y-103540000D03*
D31*
X50550000Y-82000000D03*
X50550000Y-82500000D03*
X50550000Y-83000000D03*
X50550000Y-83500000D03*
X50550000Y-84000000D03*
X47450000Y-84000000D03*
X47450000Y-83500000D03*
X47450000Y-83000000D03*
X47450000Y-82500000D03*
X47450000Y-82000000D03*
D32*
X48612500Y-83620000D03*
X48612500Y-82380000D03*
X49387500Y-83620000D03*
X49387500Y-82380000D03*
D33*
X52900000Y-74950000D03*
X52900000Y-74000000D03*
X52900000Y-73050000D03*
X55100000Y-73050000D03*
X55100000Y-74950000D03*
D34*
X77650000Y-79750000D03*
X77650000Y-79250000D03*
X77650000Y-78750000D03*
X77650000Y-78250000D03*
X77650000Y-77750000D03*
X77650000Y-77250000D03*
X77650000Y-76750000D03*
X77650000Y-76250000D03*
X77650000Y-75750000D03*
X77650000Y-75250000D03*
X77650000Y-74750000D03*
X77650000Y-74250000D03*
D35*
X79250000Y-72650000D03*
X79750000Y-72650000D03*
X80250000Y-72650000D03*
X80750000Y-72650000D03*
X81250000Y-72650000D03*
X81750000Y-72650000D03*
X82250000Y-72650000D03*
X82750000Y-72650000D03*
X83250000Y-72650000D03*
X83750000Y-72650000D03*
X84250000Y-72650000D03*
X84750000Y-72650000D03*
D34*
X86350000Y-74250000D03*
X86350000Y-74750000D03*
X86350000Y-75250000D03*
X86350000Y-75750000D03*
X86350000Y-76250000D03*
X86350000Y-76750000D03*
X86350000Y-77250000D03*
X86350000Y-77750000D03*
X86350000Y-78250000D03*
X86350000Y-78750000D03*
X86350000Y-79250000D03*
X86350000Y-79750000D03*
D35*
X84750000Y-81350000D03*
X84250000Y-81350000D03*
X83750000Y-81350000D03*
X83250000Y-81350000D03*
X82750000Y-81350000D03*
X82250000Y-81350000D03*
X81750000Y-81350000D03*
X81250000Y-81350000D03*
X80750000Y-81350000D03*
X80250000Y-81350000D03*
X79750000Y-81350000D03*
X79250000Y-81350000D03*
D13*
X62500000Y-102000000D03*
X57500000Y-102000000D03*
D36*
X40127000Y-82699000D03*
X40000000Y-78000000D03*
X40127000Y-73301000D03*
X30475000Y-84604000D03*
X30475000Y-71396000D03*
D37*
X44000000Y-64001020D03*
D38*
X44000000Y-66000000D03*
X44000000Y-67998980D03*
D30*
X38050000Y-70000000D03*
X39950000Y-70000000D03*
D39*
X32350000Y-90500000D03*
X32350000Y-95500000D03*
D40*
X29650000Y-89500000D03*
X29650000Y-96500000D03*
D19*
X53000000Y-81000000D03*
X53000000Y-79000000D03*
X45000000Y-82000000D03*
X45000000Y-80000000D03*
D26*
X48000000Y-75950000D03*
X48000000Y-74050000D03*
D11*
X36000000Y-108000000D03*
X64100000Y-98400000D03*
X73400000Y-90600000D03*
X61500000Y-77100000D03*
X65800000Y-77100000D03*
X38100000Y-62000000D03*
X84200000Y-78800000D03*
X83600000Y-79400000D03*
X78900000Y-75700000D03*
X78300000Y-81500000D03*
X33600000Y-94300000D03*
X37000000Y-87600000D03*
X37000000Y-88600000D03*
X37000000Y-89600000D03*
X37000000Y-90600000D03*
X36400000Y-91400000D03*
X35700000Y-92100000D03*
X34900000Y-92800000D03*
X33900000Y-92900000D03*
X36800000Y-84200000D03*
X36100000Y-84900000D03*
X35400000Y-85600000D03*
X34700000Y-86300000D03*
X34600000Y-87300000D03*
X34600000Y-88300000D03*
X34600000Y-89300000D03*
X34100000Y-90100000D03*
X66700000Y-71700000D03*
X65700000Y-71600000D03*
X64700000Y-71600000D03*
X63700000Y-71600000D03*
X62700000Y-71600000D03*
X54100000Y-72000000D03*
X53300000Y-72000000D03*
X52300000Y-72000000D03*
X49900000Y-70400000D03*
X51500000Y-72000000D03*
X51400000Y-74000000D03*
X31000000Y-92000000D03*
X63100000Y-90900000D03*
X62100000Y-90900000D03*
X62100000Y-89900000D03*
X63100000Y-89900000D03*
X63900000Y-90950000D03*
X31000000Y-94000000D03*
X54400000Y-79000000D03*
X51600000Y-79000000D03*
X53000000Y-77800000D03*
X68000000Y-89300000D03*
X76500000Y-73500000D03*
X64800000Y-76000000D03*
X64800000Y-75000000D03*
X64800000Y-74100000D03*
X63800000Y-74100000D03*
X63800000Y-75000000D03*
X63800000Y-76000000D03*
X75100000Y-85600000D03*
X76200000Y-76100000D03*
X75500000Y-76100000D03*
X75100000Y-78000000D03*
X75700000Y-77400000D03*
X83100000Y-82700000D03*
X82300000Y-85800000D03*
X38100000Y-62000000D03*
X74200000Y-89800000D03*
X69400000Y-80200000D03*
X70700000Y-79300000D03*
X60200000Y-84200000D03*
X60200000Y-85000000D03*
X60200000Y-85800000D03*
X44500000Y-90900000D03*
X49600000Y-91000000D03*
X57000000Y-91600000D03*
X57300000Y-89700000D03*
X66900000Y-85700000D03*
X64600000Y-85800000D03*
X64900000Y-87400000D03*
X71400000Y-90600000D03*
X65000000Y-92400000D03*
X64200000Y-93100000D03*
X72100000Y-91200000D03*
X75100000Y-92200000D03*
X80500000Y-92100000D03*
X63400000Y-93100000D03*
X72600000Y-92000000D03*
X74900000Y-93100000D03*
X85900000Y-91900000D03*
X62600000Y-93000000D03*
X72300000Y-92900000D03*
X75700000Y-93700000D03*
X77000000Y-99400000D03*
X60900000Y-95100000D03*
X79000000Y-99300000D03*
X61800000Y-95100000D03*
X81000000Y-99200000D03*
X51700000Y-81400000D03*
X51800000Y-82200000D03*
X82000000Y-77200000D03*
X86000000Y-72800000D03*
X82600000Y-77900000D03*
X85400000Y-73500000D03*
X77600000Y-73400000D03*
X76400000Y-80300000D03*
X78400000Y-73500000D03*
X76400000Y-79400000D03*
X57900000Y-80900000D03*
X56800000Y-83200000D03*
X84700000Y-74700000D03*
X41300000Y-87400000D03*
X46000000Y-87700000D03*
X85000000Y-75500000D03*
X51200000Y-86700000D03*
X78900000Y-70300000D03*
X79800000Y-70600000D03*
X55400000Y-86700000D03*
X46300000Y-83700000D03*
X48000000Y-79100000D03*
X58100000Y-85100000D03*
X80600000Y-70800000D03*
X61500000Y-78300000D03*
X80400000Y-69400000D03*
X81000000Y-70100000D03*
X71200000Y-82300000D03*
X82700000Y-73800000D03*
X72100000Y-82000000D03*
X75400000Y-81500000D03*
X82300000Y-74700000D03*
X83700000Y-71200000D03*
X85900000Y-80500000D03*
X86800000Y-80500000D03*
X84500000Y-71300000D03*
X71200000Y-94100000D03*
X53400000Y-93600000D03*
X70300000Y-94000000D03*
X54300000Y-94200000D03*
X69000000Y-79100000D03*
X79100000Y-78700000D03*
X79000000Y-77600000D03*
X79100000Y-76700000D03*
X85600000Y-82800000D03*
X84500000Y-82600000D03*
X80900000Y-82700000D03*
X80100000Y-82600000D03*
X87600000Y-80000000D03*
X82100000Y-69400000D03*
X83800000Y-69700000D03*
X78900000Y-83000000D03*
X76700000Y-83100000D03*
X87800000Y-77700000D03*
X86600000Y-100400000D03*
X88900000Y-101200000D03*
X41700000Y-91100000D03*
D41*
X83800000Y-80100000D02*
X84600000Y-80100000D01*
D42*
X83750000Y-80150000D02*
X83800000Y-80100000D01*
D41*
X81800000Y-75200000D02*
X82100000Y-75500000D01*
X83900000Y-75500000D02*
X84400000Y-76000000D01*
X82100000Y-75500000D02*
X83900000Y-75500000D01*
D42*
X83750000Y-80150000D02*
X83750000Y-81350000D01*
D41*
X84900000Y-76500000D02*
X84400000Y-76000000D01*
X84900000Y-79800000D02*
X84900000Y-76500000D01*
X84600000Y-80100000D02*
X84900000Y-79800000D01*
D43*
X68000000Y-88000000D02*
X66700000Y-88000000D01*
X66200000Y-88500000D02*
X66700000Y-88000000D01*
D41*
X66200000Y-88500000D02*
X66000000Y-88500000D01*
D43*
X68000000Y-88000000D02*
X70000000Y-88000000D01*
D42*
X53000000Y-83050000D02*
X55000000Y-83050000D01*
X55000000Y-83050000D02*
X56000000Y-82050000D01*
X56000000Y-82050000D02*
X56850000Y-82050000D01*
X83750000Y-81350000D02*
X83750000Y-83850000D01*
X83750000Y-83850000D02*
X83700000Y-83900000D01*
D41*
X70000000Y-88000000D02*
X70000000Y-88200000D01*
X70000000Y-88200000D02*
X70800000Y-89000000D01*
X64050000Y-98450000D02*
X64050000Y-100000000D01*
X64100000Y-98400000D02*
X64050000Y-98450000D01*
X73400000Y-89300000D02*
X73400000Y-90600000D01*
X73100000Y-89000000D02*
X73400000Y-89300000D01*
X70800000Y-89000000D02*
X73100000Y-89000000D01*
X62500000Y-102000000D02*
X62500000Y-100400000D01*
X62500000Y-100400000D02*
X62900000Y-100000000D01*
X60950000Y-100000000D02*
X62900000Y-100000000D01*
X62900000Y-100000000D02*
X64050000Y-100000000D01*
X78900000Y-74800000D02*
X81400000Y-74800000D01*
X81400000Y-74800000D02*
X81800000Y-75200000D01*
D42*
X78450000Y-75250000D02*
X77650000Y-75250000D01*
X78450000Y-75250000D02*
X78900000Y-74800000D01*
D41*
X81800000Y-75200000D02*
X81850000Y-75250000D01*
D43*
X74600000Y-75400000D02*
X74900000Y-75100000D01*
X74900000Y-75100000D02*
X76300000Y-75100000D01*
X76300000Y-75100000D02*
X76450000Y-75250000D01*
X76450000Y-75250000D02*
X76550000Y-75250000D01*
X74600000Y-75400000D02*
X74000000Y-76000000D01*
D42*
X77650000Y-75250000D02*
X76550000Y-75250000D01*
X56850000Y-82050000D02*
X59000000Y-82050000D01*
D43*
X59000000Y-82050000D02*
X59650000Y-82050000D01*
X59650000Y-82050000D02*
X60100000Y-81600000D01*
X60100000Y-81600000D02*
X62500000Y-81600000D01*
X62500000Y-72920000D02*
X62500000Y-81600000D01*
X62500000Y-81600000D02*
X62500000Y-84200000D01*
X62500000Y-84200000D02*
X63300000Y-85000000D01*
X63300000Y-85000000D02*
X65000000Y-85000000D01*
X65000000Y-85000000D02*
X66000000Y-86000000D01*
X66000000Y-86000000D02*
X66000000Y-88500000D01*
D42*
X65750000Y-88750000D02*
X66000000Y-88500000D01*
X64950000Y-88750000D02*
X65750000Y-88750000D01*
D43*
X61000000Y-71000000D02*
X61000000Y-72400000D01*
X61000000Y-72400000D02*
X60480000Y-72920000D01*
X60480000Y-72920000D02*
X59000000Y-72920000D01*
X71000000Y-73950000D02*
X71000000Y-76050000D01*
X71000000Y-76050000D02*
X71000000Y-76100000D01*
X71000000Y-76100000D02*
X71000000Y-76050000D01*
X72000000Y-76000000D02*
X74000000Y-76000000D01*
X70000000Y-76050000D02*
X71000000Y-76050000D01*
X71000000Y-76050000D02*
X71950000Y-76050000D01*
X71950000Y-76050000D02*
X72000000Y-76000000D01*
X59000000Y-72920000D02*
X62500000Y-72920000D01*
X62500000Y-72920000D02*
X66020000Y-72920000D01*
X69150000Y-76050000D02*
X70000000Y-76050000D01*
X66020000Y-72920000D02*
X69150000Y-76050000D01*
X57950000Y-69000000D02*
X57950000Y-70950000D01*
X57950000Y-70950000D02*
X58000000Y-71000000D01*
X58000000Y-71000000D02*
X58000000Y-71920000D01*
X58000000Y-71920000D02*
X59000000Y-72920000D01*
D42*
X59050000Y-100000000D02*
X59050000Y-100450000D01*
X59050000Y-100450000D02*
X57500000Y-102000000D01*
X86350000Y-74250000D02*
X92550000Y-74250000D01*
X59100000Y-103600000D02*
X57500000Y-102000000D01*
X63400000Y-103600000D02*
X59100000Y-103600000D01*
X64700000Y-102300000D02*
X63400000Y-103600000D01*
X71800000Y-102300000D02*
X64700000Y-102300000D01*
X72100000Y-102000000D02*
X71800000Y-102300000D01*
X89100000Y-102000000D02*
X72100000Y-102000000D01*
X89600000Y-101500000D02*
X89100000Y-102000000D01*
X89600000Y-101200000D02*
X89600000Y-101500000D01*
X94300000Y-96500000D02*
X89600000Y-101200000D01*
X94300000Y-76000000D02*
X94300000Y-96500000D01*
X92550000Y-74250000D02*
X94300000Y-76000000D01*
X52900000Y-76000000D02*
X54000000Y-77100000D01*
X54000000Y-77100000D02*
X61500000Y-77100000D01*
X52900000Y-74950000D02*
X52900000Y-76000000D01*
X65850000Y-77050000D02*
X67000000Y-77050000D01*
X65800000Y-77100000D02*
X65850000Y-77050000D01*
D43*
X40127000Y-73301000D02*
X41701000Y-73301000D01*
X46850000Y-75950000D02*
X48000000Y-75950000D01*
X46500000Y-75600000D02*
X46850000Y-75950000D01*
X46500000Y-74500000D02*
X46500000Y-75600000D01*
X46000000Y-74000000D02*
X46500000Y-74500000D01*
X42400000Y-74000000D02*
X46000000Y-74000000D01*
X41701000Y-73301000D02*
X42400000Y-74000000D01*
X52900000Y-74950000D02*
X51850000Y-74950000D01*
X50800000Y-76000000D02*
X50000000Y-76000000D01*
X51850000Y-74950000D02*
X50800000Y-76000000D01*
X48000000Y-75950000D02*
X49950000Y-75950000D01*
X49950000Y-75950000D02*
X50000000Y-76000000D01*
D42*
X38150000Y-62050000D02*
X38100000Y-62000000D01*
X40000000Y-62050000D02*
X38150000Y-62050000D01*
X83250000Y-79500000D02*
X83500000Y-79500000D01*
X83500000Y-79500000D02*
X83600000Y-79400000D01*
X78900000Y-75700000D02*
X80800000Y-75700000D01*
X78300000Y-80500000D02*
X78300000Y-81500000D01*
X78800000Y-80000000D02*
X78300000Y-80500000D01*
X79600000Y-80000000D02*
X78800000Y-80000000D01*
X81100000Y-78500000D02*
X79600000Y-80000000D01*
X81100000Y-76000000D02*
X81100000Y-78500000D01*
X80800000Y-75700000D02*
X81100000Y-76000000D01*
X37000000Y-88600000D02*
X37000000Y-87600000D01*
X37000000Y-90600000D02*
X37000000Y-89600000D01*
X35700000Y-92100000D02*
X36400000Y-91400000D01*
X34000000Y-92800000D02*
X34900000Y-92800000D01*
X33900000Y-92900000D02*
X34000000Y-92800000D01*
X36100000Y-84900000D02*
X36800000Y-84200000D01*
X34700000Y-86300000D02*
X35400000Y-85600000D01*
X34600000Y-88300000D02*
X34600000Y-87300000D01*
X34600000Y-89600000D02*
X34600000Y-89300000D01*
X34100000Y-90100000D02*
X34600000Y-89600000D01*
X61000000Y-69000000D02*
X62500000Y-69000000D01*
X65800000Y-71700000D02*
X66700000Y-71700000D01*
X65700000Y-71600000D02*
X65800000Y-71700000D01*
X63700000Y-71600000D02*
X64700000Y-71600000D01*
X62700000Y-69200000D02*
X62700000Y-71600000D01*
X62500000Y-69000000D02*
X62700000Y-69200000D01*
X53100000Y-72000000D02*
X52300000Y-72000000D01*
X53300000Y-72000000D02*
X54100000Y-72000000D01*
X49950000Y-72000000D02*
X49950000Y-70450000D01*
X49950000Y-70450000D02*
X49900000Y-70400000D01*
X49950000Y-72000000D02*
X51500000Y-72000000D01*
X50000000Y-74000000D02*
X51400000Y-74000000D01*
X63000000Y-90000000D02*
X63000000Y-90800000D01*
X63000000Y-90800000D02*
X63100000Y-90900000D01*
X62100000Y-90900000D02*
X62100000Y-89900000D01*
X63100000Y-89900000D02*
X63000000Y-90000000D01*
X64500000Y-91200000D02*
X64900000Y-91200000D01*
X64900000Y-91200000D02*
X64950000Y-91250000D01*
D41*
X50000000Y-74000000D02*
X52900000Y-74000000D01*
X52900000Y-74000000D02*
X53700000Y-74000000D01*
X53800000Y-72000000D02*
X53100000Y-72000000D01*
X53100000Y-72000000D02*
X49950000Y-72000000D01*
X54000000Y-72200000D02*
X53800000Y-72000000D01*
X54000000Y-73700000D02*
X54000000Y-72200000D01*
X53700000Y-74000000D02*
X54000000Y-73700000D01*
D42*
X53000000Y-79000000D02*
X54400000Y-79000000D01*
X53000000Y-79000000D02*
X51600000Y-79000000D01*
X53000000Y-79000000D02*
X53000000Y-77800000D01*
X50550000Y-84000000D02*
X50550000Y-84350000D01*
D41*
X49950000Y-85250000D02*
X50600000Y-84600000D01*
X50600000Y-84600000D02*
X50600000Y-84400000D01*
X49950000Y-85250000D02*
X49950000Y-86000000D01*
D42*
X50550000Y-84350000D02*
X50600000Y-84400000D01*
D41*
X68000000Y-90000000D02*
X68000000Y-89300000D01*
D42*
X64950000Y-91250000D02*
X65150000Y-91250000D01*
X65150000Y-91250000D02*
X65500000Y-91600000D01*
D41*
X66950000Y-93950000D02*
X68000000Y-93950000D01*
X66400000Y-93400000D02*
X66950000Y-93950000D01*
X66400000Y-92400000D02*
X66400000Y-93400000D01*
X66300000Y-92400000D02*
X65500000Y-91600000D01*
X66400000Y-92400000D02*
X66300000Y-92400000D01*
D42*
X64475000Y-91200000D02*
X64500000Y-91200000D01*
X64500000Y-91200000D02*
X64150000Y-91200000D01*
X75000000Y-72000000D02*
X76400000Y-72000000D01*
X76500000Y-72100000D02*
X76500000Y-73500000D01*
X76400000Y-72000000D02*
X76500000Y-72100000D01*
X65000000Y-83000000D02*
X63900000Y-83000000D01*
X64800000Y-74100000D02*
X64800000Y-75000000D01*
X63800000Y-75000000D02*
X63800000Y-74100000D01*
X63800000Y-80100000D02*
X63800000Y-76000000D01*
X63600000Y-80300000D02*
X63800000Y-80100000D01*
X63600000Y-82700000D02*
X63600000Y-80300000D01*
X63900000Y-83000000D02*
X63600000Y-82700000D01*
D41*
X74000000Y-82000000D02*
X74000000Y-82400000D01*
X74000000Y-82400000D02*
X75100000Y-83500000D01*
X75100000Y-83500000D02*
X75100000Y-85600000D01*
D42*
X75500000Y-76100000D02*
X76200000Y-76100000D01*
X76600000Y-76100000D02*
X76200000Y-76100000D01*
X76950000Y-75750000D02*
X76600000Y-76100000D01*
X76950000Y-75750000D02*
X77650000Y-75750000D01*
X75200000Y-77900000D02*
X75100000Y-78000000D01*
X74000000Y-78000000D02*
X75100000Y-78000000D01*
X75200000Y-77900000D02*
X75700000Y-77400000D01*
X83250000Y-81350000D02*
X83250000Y-79500000D01*
X83250000Y-79500000D02*
X83250000Y-79450000D01*
D41*
X81100000Y-75700000D02*
X81800000Y-76400000D01*
X81800000Y-76400000D02*
X82500000Y-76400000D01*
X82500000Y-76400000D02*
X83400000Y-77300000D01*
X83400000Y-77300000D02*
X83400000Y-79300000D01*
X83400000Y-79300000D02*
X83300000Y-79400000D01*
D42*
X78850000Y-75750000D02*
X77650000Y-75750000D01*
X78850000Y-75750000D02*
X78900000Y-75700000D01*
D41*
X78900000Y-75700000D02*
X81100000Y-75700000D01*
D42*
X83250000Y-79450000D02*
X83300000Y-79400000D01*
D41*
X82300000Y-85800000D02*
X82300000Y-83600000D01*
D42*
X83250000Y-82550000D02*
X83100000Y-82700000D01*
X83250000Y-81350000D02*
X83250000Y-82550000D01*
D41*
X82400000Y-85900000D02*
X82300000Y-85800000D01*
X82400000Y-85900000D02*
X83700000Y-85900000D01*
X82600000Y-82700000D02*
X83100000Y-82700000D01*
X82500000Y-82800000D02*
X82600000Y-82700000D01*
X82500000Y-83400000D02*
X82500000Y-82800000D01*
X82300000Y-83600000D02*
X82500000Y-83400000D01*
D42*
X40000000Y-62050000D02*
X38150000Y-62050000D01*
X38150000Y-62050000D02*
X38100000Y-62000000D01*
D41*
X56050000Y-67000000D02*
X56050000Y-69000000D01*
X56050000Y-69000000D02*
X56050000Y-70950000D01*
X56050000Y-70950000D02*
X56000000Y-71000000D01*
X56000000Y-71000000D02*
X56000000Y-72400000D01*
X56000000Y-72400000D02*
X55350000Y-73050000D01*
X55100000Y-73050000D02*
X55350000Y-73050000D01*
X56000000Y-69050000D02*
X56050000Y-69000000D01*
D42*
X76000000Y-78000000D02*
X76700000Y-77300000D01*
X75200000Y-78800000D02*
X76000000Y-78000000D01*
X74000000Y-80000000D02*
X74800000Y-80000000D01*
X75200000Y-79600000D02*
X74800000Y-80000000D01*
X75200000Y-79600000D02*
X75200000Y-78800000D01*
X76700000Y-77300000D02*
X77600000Y-77300000D01*
X77600000Y-77300000D02*
X77650000Y-77250000D01*
X74000000Y-80000000D02*
X71400000Y-80000000D01*
X74200000Y-83700000D02*
X73500000Y-83000000D01*
X73500000Y-83000000D02*
X73100000Y-83000000D01*
X73100000Y-83000000D02*
X72800000Y-82700000D01*
X72800000Y-82700000D02*
X72800000Y-81600000D01*
X72800000Y-81600000D02*
X72600000Y-81400000D01*
X72600000Y-81400000D02*
X70600000Y-81400000D01*
X70600000Y-81400000D02*
X69400000Y-80200000D01*
X74200000Y-89800000D02*
X74200000Y-84400000D01*
X74200000Y-84400000D02*
X74200000Y-83700000D01*
X71400000Y-80000000D02*
X70700000Y-79300000D01*
X70000000Y-101000000D02*
X66950000Y-101000000D01*
X66950000Y-101000000D02*
X65950000Y-100000000D01*
X67000000Y-78950000D02*
X68150000Y-78950000D01*
X75250000Y-76750000D02*
X77650000Y-76750000D01*
X75000000Y-77000000D02*
X75250000Y-76750000D01*
X68900000Y-77000000D02*
X75000000Y-77000000D01*
X68400000Y-77500000D02*
X68900000Y-77000000D01*
X68400000Y-78700000D02*
X68400000Y-77500000D01*
X68150000Y-78950000D02*
X68400000Y-78700000D01*
X67000000Y-78950000D02*
X67000000Y-81050000D01*
X65000000Y-81000000D02*
X66950000Y-81000000D01*
X66950000Y-81000000D02*
X67000000Y-81050000D01*
X76700000Y-74250000D02*
X75250000Y-74250000D01*
X77650000Y-74750000D02*
X76950000Y-74750000D01*
X76700000Y-74500000D02*
X76700000Y-74250000D01*
X76950000Y-74750000D02*
X76700000Y-74500000D01*
X76700000Y-74250000D02*
X76700000Y-74300000D01*
X76700000Y-74300000D02*
X76700000Y-74250000D01*
X71000000Y-72050000D02*
X71000000Y-72400000D01*
X71000000Y-72400000D02*
X71700000Y-73100000D01*
X71700000Y-73100000D02*
X72700000Y-73100000D01*
X72700000Y-73100000D02*
X73000000Y-73400000D01*
X73000000Y-73400000D02*
X73000000Y-74000000D01*
X77650000Y-74250000D02*
X76700000Y-74250000D01*
X75250000Y-74250000D02*
X75000000Y-74000000D01*
X75000000Y-74000000D02*
X73000000Y-74000000D01*
D41*
X60200000Y-85000000D02*
X60200000Y-84200000D01*
X61000000Y-83000000D02*
X61000000Y-83200000D01*
X61000000Y-83200000D02*
X60200000Y-84000000D01*
X60200000Y-84000000D02*
X60200000Y-85800000D01*
D42*
X55800000Y-95300000D02*
X47300000Y-95300000D01*
X47300000Y-95300000D02*
X46000000Y-94000000D01*
X46000000Y-94000000D02*
X46000000Y-90950000D01*
X62250000Y-87450000D02*
X62100000Y-87300000D01*
X62100000Y-87300000D02*
X61400000Y-87300000D01*
X61400000Y-87300000D02*
X61100000Y-87600000D01*
X61100000Y-87600000D02*
X60300000Y-87600000D01*
X60300000Y-87600000D02*
X59700000Y-88200000D01*
X59700000Y-88200000D02*
X59700000Y-89941382D01*
X59700000Y-89941382D02*
X58500000Y-91141382D01*
X58500000Y-91141382D02*
X58500000Y-92600000D01*
X62250000Y-88050000D02*
X62250000Y-87450000D01*
X58500000Y-92600000D02*
X57120691Y-93979309D01*
X57120691Y-93979309D02*
X55800000Y-95300000D01*
X46000000Y-90950000D02*
X44550000Y-90950000D01*
X44550000Y-90950000D02*
X44500000Y-90900000D01*
X58000000Y-92300000D02*
X58000000Y-92400000D01*
X58200000Y-90800000D02*
X58000000Y-91000000D01*
X58000000Y-91000000D02*
X58000000Y-92300000D01*
X60095002Y-87204998D02*
X59200000Y-88100000D01*
X59200000Y-88100000D02*
X59200000Y-89800000D01*
X60195002Y-87204998D02*
X60095002Y-87204998D01*
X51000000Y-91700000D02*
X51000000Y-90950000D01*
X59200000Y-89800000D02*
X58200000Y-90800000D01*
X51000000Y-93700000D02*
X51000000Y-91700000D01*
X52200000Y-94900000D02*
X51000000Y-93700000D01*
X55500000Y-94900000D02*
X52200000Y-94900000D01*
X58000000Y-92400000D02*
X55500000Y-94900000D01*
X49600000Y-91000000D02*
X49650000Y-90950000D01*
X49650000Y-90950000D02*
X51000000Y-90950000D01*
X62750000Y-88050000D02*
X62750000Y-87350000D01*
X62750000Y-87350000D02*
X62304998Y-86904998D01*
X62304998Y-86904998D02*
X61200000Y-86904998D01*
X61200000Y-86904998D02*
X60900000Y-87204998D01*
X60900000Y-87204998D02*
X60195002Y-87204998D01*
X60195002Y-87204998D02*
X60200000Y-87200000D01*
X56000000Y-90950000D02*
X56350000Y-90950000D01*
X56350000Y-90950000D02*
X57000000Y-91600000D01*
X56000000Y-90950000D02*
X55650000Y-90950000D01*
X56050000Y-91000000D02*
X57300000Y-91000000D01*
X59900000Y-86800000D02*
X58700000Y-88000000D01*
X58700000Y-88000000D02*
X58700000Y-89600000D01*
X58700000Y-89600000D02*
X57300000Y-91000000D01*
X63250000Y-87250000D02*
X63250000Y-88050000D01*
X61000000Y-86509996D02*
X60709996Y-86800000D01*
X63250000Y-87250000D02*
X62509996Y-86509996D01*
X60709996Y-86800000D02*
X59900000Y-86800000D01*
X62509996Y-86509996D02*
X61000000Y-86509996D01*
X56050000Y-91000000D02*
X56000000Y-90950000D01*
X57200000Y-89600000D02*
X57200000Y-88150000D01*
X57300000Y-89700000D02*
X57200000Y-89600000D01*
X57200000Y-88150000D02*
X57000000Y-87950000D01*
X57050000Y-88000000D02*
X58000000Y-88000000D01*
X63750000Y-87050000D02*
X62814994Y-86114994D01*
X62814994Y-86114994D02*
X60785006Y-86114994D01*
X60785006Y-86114994D02*
X60500000Y-86400000D01*
X60500000Y-86400000D02*
X59900000Y-86400000D01*
X59900000Y-86400000D02*
X59700000Y-86400000D01*
X59700000Y-86400000D02*
X58100000Y-88000000D01*
X58100000Y-88000000D02*
X58000000Y-88000000D01*
X63750000Y-87050000D02*
X63750000Y-88050000D01*
X57050000Y-88000000D02*
X57000000Y-87950000D01*
X64900000Y-87400000D02*
X64900000Y-86100000D01*
X67200000Y-86000000D02*
X68050000Y-86000000D01*
X66900000Y-85700000D02*
X67200000Y-86000000D01*
X64900000Y-86100000D02*
X64600000Y-85800000D01*
X64250000Y-88050000D02*
X64900000Y-87400000D01*
X72000000Y-89950000D02*
X72000000Y-90000000D01*
X72000000Y-90000000D02*
X71400000Y-90600000D01*
X65000000Y-92400000D02*
X64700000Y-92400000D01*
X64700000Y-92400000D02*
X64250000Y-91950000D01*
X75100000Y-92200000D02*
X75100000Y-91850000D01*
X75100000Y-91850000D02*
X76000000Y-90950000D01*
X64200000Y-93100000D02*
X64200000Y-93000000D01*
X72200000Y-91300000D02*
X72100000Y-91200000D01*
X74200000Y-91300000D02*
X72200000Y-91300000D01*
X75100000Y-92200000D02*
X74200000Y-91300000D01*
X63750000Y-92550000D02*
X63750000Y-91950000D01*
X64200000Y-93000000D02*
X63750000Y-92550000D01*
X81000000Y-90950000D02*
X81000000Y-91600000D01*
X81000000Y-91600000D02*
X80500000Y-92100000D01*
X63400000Y-93100000D02*
X63400000Y-92900000D01*
X72700000Y-91900000D02*
X72600000Y-92000000D01*
X73700000Y-91900000D02*
X72700000Y-91900000D01*
X74900000Y-93100000D02*
X73700000Y-91900000D01*
X63250000Y-92750000D02*
X63250000Y-91950000D01*
X63400000Y-92900000D02*
X63250000Y-92750000D01*
X86000000Y-91800000D02*
X86000000Y-90950000D01*
X85900000Y-91900000D02*
X86000000Y-91800000D01*
X62600000Y-93000000D02*
X62600000Y-92700000D01*
X73200000Y-93800000D02*
X72300000Y-92900000D01*
X75600000Y-93800000D02*
X73200000Y-93800000D01*
X75700000Y-93700000D02*
X75600000Y-93800000D01*
X62750000Y-92550000D02*
X62750000Y-91950000D01*
X62600000Y-92700000D02*
X62750000Y-92550000D01*
X77000000Y-99400000D02*
X77000000Y-97950000D01*
X61500000Y-94400000D02*
X60900000Y-95000000D01*
X60900000Y-95000000D02*
X60900000Y-95100000D01*
X61750000Y-92350000D02*
X61500000Y-92600000D01*
X61500000Y-92600000D02*
X61500000Y-94200000D01*
X61500000Y-94200000D02*
X61500000Y-94400000D01*
X79000000Y-99300000D02*
X79000000Y-97950000D01*
X61750000Y-91950000D02*
X61750000Y-92350000D01*
X62000000Y-94900000D02*
X61800000Y-95100000D01*
X62250000Y-91950000D02*
X62250000Y-92450000D01*
X62000000Y-92700000D02*
X62000000Y-93900000D01*
X62250000Y-92450000D02*
X62000000Y-92700000D01*
X62000000Y-93900000D02*
X62000000Y-94900000D01*
X81000000Y-99200000D02*
X81000000Y-97950000D01*
X43050000Y-77000000D02*
X43050000Y-77950000D01*
X43050000Y-77950000D02*
X42350000Y-78650000D01*
X43050000Y-77000000D02*
X43050000Y-75000000D01*
X43050000Y-75000000D02*
X43050000Y-75150000D01*
D43*
X46400000Y-82000000D02*
X45000000Y-82000000D01*
X45000000Y-82000000D02*
X43700000Y-82000000D01*
X43700000Y-82000000D02*
X42700000Y-81000000D01*
X42700000Y-81000000D02*
X42700000Y-79000000D01*
X42700000Y-79000000D02*
X42350000Y-78650000D01*
X41700000Y-78000000D02*
X40000000Y-78000000D01*
X41950000Y-78250000D02*
X41700000Y-78000000D01*
X42350000Y-78650000D02*
X41950000Y-78250000D01*
X40000000Y-78000000D02*
X41000000Y-78000000D01*
D42*
X47450000Y-82500000D02*
X46900000Y-82500000D01*
X46900000Y-82500000D02*
X46400000Y-82000000D01*
D43*
X46600000Y-82000000D02*
X46400000Y-82000000D01*
D42*
X47450000Y-82000000D02*
X46600000Y-82000000D01*
D43*
X38050000Y-70000000D02*
X37100000Y-70000000D01*
X37500000Y-78000000D02*
X40000000Y-78000000D01*
X36200000Y-76700000D02*
X37500000Y-78000000D01*
X36200000Y-70900000D02*
X36200000Y-76700000D01*
X37100000Y-70000000D02*
X36200000Y-70900000D01*
D42*
X53000000Y-81000000D02*
X53000000Y-81700000D01*
X52500000Y-82200000D02*
X51800000Y-82200000D01*
X53000000Y-81700000D02*
X52500000Y-82200000D01*
X51500000Y-82500000D02*
X51800000Y-82200000D01*
X51500000Y-82500000D02*
X50550000Y-82500000D01*
X53000000Y-81000000D02*
X52100000Y-81000000D01*
X51100000Y-82000000D02*
X51700000Y-81400000D01*
X51100000Y-82000000D02*
X50550000Y-82000000D01*
X52100000Y-81000000D02*
X51700000Y-81400000D01*
X82250000Y-81350000D02*
X82250000Y-79450000D01*
X81900000Y-77300000D02*
X82000000Y-77200000D01*
X81900000Y-79100000D02*
X81900000Y-77300000D01*
X82250000Y-79450000D02*
X81900000Y-79100000D01*
X86000000Y-72800000D02*
X86000000Y-72100000D01*
X86000000Y-69100000D02*
X84000000Y-67100000D01*
X84000000Y-67100000D02*
X77600000Y-67100000D01*
X77600000Y-67100000D02*
X76460000Y-65960000D01*
X76460000Y-63000000D02*
X76460000Y-65960000D01*
X86000000Y-69700000D02*
X86000000Y-69100000D01*
X86000000Y-72100000D02*
X86000000Y-69700000D01*
X82750000Y-81350000D02*
X82750000Y-79350000D01*
X82300000Y-78200000D02*
X82600000Y-77900000D01*
X82300000Y-78900000D02*
X82300000Y-78200000D01*
X82750000Y-79350000D02*
X82300000Y-78900000D01*
X85400000Y-69900000D02*
X85400000Y-70300000D01*
X85400000Y-69500000D02*
X83700000Y-67800000D01*
X83700000Y-67800000D02*
X77100000Y-67800000D01*
X77100000Y-67800000D02*
X73920000Y-64620000D01*
X73920000Y-63000000D02*
X73920000Y-64620000D01*
X85400000Y-69900000D02*
X85400000Y-69700000D01*
X85400000Y-69700000D02*
X85400000Y-69500000D01*
X85400000Y-72000000D02*
X85400000Y-73500000D01*
X85600000Y-71800000D02*
X85400000Y-72000000D01*
X85600000Y-70500000D02*
X85600000Y-71800000D01*
X85400000Y-70300000D02*
X85600000Y-70500000D01*
X77600000Y-71900000D02*
X77600000Y-71400000D01*
X77600000Y-73400000D02*
X77600000Y-72200000D01*
X77600000Y-72200000D02*
X77600000Y-71900000D01*
X76500000Y-80300000D02*
X76400000Y-80300000D01*
X77050000Y-79750000D02*
X76500000Y-80300000D01*
X65000000Y-65000000D02*
X65000000Y-64000000D01*
X66100000Y-66100000D02*
X65000000Y-65000000D01*
X71600000Y-66100000D02*
X66100000Y-66100000D01*
X72300000Y-66100000D02*
X71600000Y-66100000D01*
X77600000Y-71400000D02*
X72300000Y-66100000D01*
X77650000Y-79750000D02*
X77050000Y-79750000D01*
X78500000Y-71900000D02*
X78500000Y-71600000D01*
X78400000Y-73500000D02*
X78500000Y-73400000D01*
X78500000Y-73400000D02*
X78500000Y-71900000D01*
X77650000Y-79250000D02*
X76550000Y-79250000D01*
X70600000Y-64000000D02*
X69000000Y-64000000D01*
X76550000Y-79250000D02*
X76400000Y-79400000D01*
X70900000Y-64000000D02*
X70600000Y-64000000D01*
X78500000Y-71600000D02*
X70900000Y-64000000D01*
D43*
X55100000Y-74950000D02*
X58870000Y-74950000D01*
X58870000Y-74950000D02*
X59000000Y-75080000D01*
D42*
X44950000Y-77000000D02*
X44950000Y-75000000D01*
X48000000Y-78050000D02*
X46000000Y-78050000D01*
X46000000Y-78050000D02*
X44950000Y-77000000D01*
X59000000Y-83950000D02*
X57550000Y-83950000D01*
X57900000Y-80900000D02*
X58800000Y-80000000D01*
X57550000Y-83950000D02*
X56800000Y-83200000D01*
X58800000Y-80000000D02*
X59050000Y-80000000D01*
X84700000Y-74700000D02*
X84750000Y-74750000D01*
X86350000Y-74750000D02*
X84750000Y-74750000D01*
X41000000Y-87700000D02*
X41300000Y-87400000D01*
X41000000Y-87700000D02*
X41000000Y-89050000D01*
X46000000Y-89050000D02*
X46000000Y-87700000D01*
X85250000Y-75250000D02*
X86350000Y-75250000D01*
X85000000Y-75500000D02*
X85250000Y-75250000D01*
X51000000Y-86900000D02*
X51200000Y-86700000D01*
X51000000Y-89050000D02*
X51000000Y-87700000D01*
X51000000Y-87700000D02*
X51000000Y-86900000D01*
X79400000Y-71400000D02*
X79750000Y-71750000D01*
X79400000Y-71200000D02*
X79400000Y-71400000D01*
X79100000Y-70900000D02*
X79400000Y-71200000D01*
X79100000Y-70500000D02*
X79100000Y-70900000D01*
X78900000Y-70300000D02*
X79100000Y-70500000D01*
X79750000Y-71750000D02*
X79750000Y-72650000D01*
X56000000Y-89050000D02*
X56000000Y-87300000D01*
X80250000Y-71550000D02*
X80250000Y-72650000D01*
X79800000Y-70600000D02*
X79800000Y-71100000D01*
X80250000Y-71550000D02*
X79800000Y-71100000D01*
X56000000Y-87300000D02*
X55400000Y-86700000D01*
X48000000Y-79950000D02*
X48000000Y-79100000D01*
X46500000Y-83500000D02*
X47450000Y-83500000D01*
X46300000Y-83700000D02*
X46500000Y-83500000D01*
X57000000Y-86050000D02*
X57150000Y-86050000D01*
X57150000Y-86050000D02*
X58100000Y-85100000D01*
X58100000Y-85100000D02*
X58000000Y-85200000D01*
X80750000Y-70950000D02*
X80600000Y-70800000D01*
X80750000Y-70950000D02*
X80750000Y-72650000D01*
X84750000Y-72650000D02*
X84750000Y-71950000D01*
X60950000Y-78850000D02*
X60950000Y-80000000D01*
X60950000Y-78850000D02*
X61500000Y-78300000D01*
X81100000Y-68700000D02*
X80400000Y-69400000D01*
X83800000Y-68700000D02*
X81100000Y-68700000D01*
X84500000Y-69400000D02*
X83800000Y-68700000D01*
X84500000Y-70100000D02*
X84500000Y-69400000D01*
X85200000Y-70800000D02*
X84500000Y-70100000D01*
X85200000Y-71500000D02*
X85200000Y-70800000D01*
X84750000Y-71950000D02*
X85200000Y-71500000D01*
X81250000Y-72650000D02*
X81250000Y-70350000D01*
X81250000Y-70350000D02*
X81000000Y-70100000D01*
X69950000Y-83550000D02*
X71200000Y-82300000D01*
X69950000Y-84050000D02*
X69950000Y-86000000D01*
X69950000Y-84050000D02*
X69950000Y-83550000D01*
X72000000Y-82900000D02*
X72000000Y-82100000D01*
X82750000Y-73750000D02*
X82700000Y-73800000D01*
X82750000Y-72650000D02*
X82750000Y-73750000D01*
X72000000Y-82900000D02*
X72000000Y-88050000D01*
X72000000Y-82100000D02*
X72100000Y-82000000D01*
X76000000Y-87600000D02*
X76000000Y-82100000D01*
X76000000Y-89050000D02*
X76000000Y-87600000D01*
X76000000Y-82100000D02*
X75400000Y-81500000D01*
X83400000Y-73700000D02*
X83250000Y-73550000D01*
X83400000Y-74400000D02*
X83400000Y-73700000D01*
X83000000Y-74800000D02*
X83400000Y-74400000D01*
X82400000Y-74800000D02*
X83000000Y-74800000D01*
X82300000Y-74700000D02*
X82400000Y-74800000D01*
X83250000Y-72650000D02*
X83250000Y-73550000D01*
X83300000Y-73600000D02*
X83250000Y-73550000D01*
X83750000Y-72650000D02*
X83750000Y-71250000D01*
X83750000Y-71250000D02*
X83700000Y-71200000D01*
X86300000Y-80900000D02*
X85900000Y-80500000D01*
X83500000Y-86900000D02*
X84700000Y-86900000D01*
X81700000Y-86900000D02*
X81000000Y-87600000D01*
X81700000Y-86900000D02*
X83500000Y-86900000D01*
X86300000Y-84100000D02*
X86300000Y-82000000D01*
X85500000Y-84900000D02*
X86300000Y-84100000D01*
X85500000Y-86100000D02*
X85500000Y-84900000D01*
X84700000Y-86900000D02*
X85500000Y-86100000D01*
X86300000Y-82000000D02*
X86300000Y-80900000D01*
X81000000Y-87600000D02*
X81000000Y-89050000D01*
X81000000Y-87600000D02*
X81000000Y-87600000D01*
X87000000Y-81400000D02*
X87000000Y-80700000D01*
X86000000Y-87300000D02*
X86000000Y-85300000D01*
X87000000Y-84300000D02*
X87000000Y-81400000D01*
X86000000Y-85300000D02*
X87000000Y-84300000D01*
X87000000Y-80700000D02*
X86800000Y-80500000D01*
X84250000Y-71550000D02*
X84250000Y-72650000D01*
X84250000Y-71550000D02*
X84500000Y-71300000D01*
X86000000Y-89050000D02*
X86000000Y-87300000D01*
X86000000Y-87300000D02*
X86000000Y-87200000D01*
X86350000Y-79250000D02*
X89750000Y-79250000D01*
X90900000Y-89600000D02*
X87300000Y-93200000D01*
X87300000Y-93200000D02*
X78600000Y-93200000D01*
X78600000Y-93200000D02*
X77000000Y-94800000D01*
X77000000Y-94800000D02*
X77000000Y-96050000D01*
X90900000Y-80900000D02*
X90900000Y-88300000D01*
X90900000Y-88300000D02*
X90900000Y-89600000D01*
X90900000Y-80400000D02*
X90900000Y-80900000D01*
X89750000Y-79250000D02*
X90900000Y-80400000D01*
X86350000Y-78750000D02*
X90250000Y-78750000D01*
X79000000Y-94400000D02*
X79000000Y-96050000D01*
X87500000Y-93600000D02*
X91400000Y-89700000D01*
X79800000Y-93600000D02*
X87500000Y-93600000D01*
X79000000Y-94400000D02*
X79800000Y-93600000D01*
X91400000Y-89700000D02*
X91400000Y-80700000D01*
X91400000Y-79900000D02*
X91400000Y-80700000D01*
X90250000Y-78750000D02*
X91400000Y-79900000D01*
X86350000Y-78250000D02*
X87550000Y-78250000D01*
X90600000Y-78500000D02*
X91900000Y-79800000D01*
X91900000Y-79800000D02*
X91900000Y-80500000D01*
X91900000Y-88300000D02*
X91900000Y-89800000D01*
X91900000Y-80500000D02*
X91900000Y-88300000D01*
X81000000Y-94800000D02*
X81000000Y-96050000D01*
X81700000Y-94100000D02*
X81000000Y-94800000D01*
X87600000Y-94100000D02*
X81700000Y-94100000D01*
X91900000Y-89800000D02*
X87600000Y-94100000D01*
X90400000Y-78300000D02*
X90600000Y-78500000D01*
X87600000Y-78300000D02*
X90400000Y-78300000D01*
X87550000Y-78250000D02*
X87600000Y-78300000D01*
X47450000Y-84000000D02*
X47450000Y-85400000D01*
X47450000Y-85400000D02*
X48050000Y-86000000D01*
X46700000Y-83000000D02*
X43500000Y-83000000D01*
X38300000Y-80100000D02*
X35400000Y-77200000D01*
X35400000Y-77200000D02*
X35400000Y-69800000D01*
X35400000Y-69800000D02*
X37250000Y-67950000D01*
X40000000Y-67950000D02*
X37250000Y-67950000D01*
X46700000Y-83000000D02*
X47450000Y-83000000D01*
X40600000Y-80100000D02*
X38300000Y-80100000D01*
X43500000Y-83000000D02*
X40600000Y-80100000D01*
X54400000Y-90100000D02*
X54400000Y-92600000D01*
X54400000Y-90100000D02*
X54400000Y-86800000D01*
X54400000Y-86800000D02*
X55000000Y-86200000D01*
X55000000Y-84950000D02*
X55000000Y-86200000D01*
X53400000Y-93600000D02*
X54400000Y-92600000D01*
X74800000Y-94900000D02*
X76200000Y-94900000D01*
X71200000Y-94100000D02*
X71400000Y-94300000D01*
X71400000Y-94300000D02*
X72300000Y-94300000D01*
X72300000Y-94300000D02*
X72900000Y-94900000D01*
X72900000Y-94900000D02*
X74800000Y-94900000D01*
X78900000Y-86200000D02*
X78000000Y-87100000D01*
X78000000Y-87100000D02*
X78000000Y-91700000D01*
X81750000Y-82050000D02*
X81750000Y-81350000D01*
X81900000Y-83300000D02*
X79000000Y-86200000D01*
X81900000Y-82200000D02*
X81900000Y-83300000D01*
X81750000Y-82050000D02*
X81900000Y-82200000D01*
X79000000Y-86200000D02*
X78900000Y-86200000D01*
X78000000Y-93100000D02*
X78000000Y-91700000D01*
X76200000Y-94900000D02*
X78000000Y-93100000D01*
X50550000Y-83000000D02*
X51600000Y-83000000D01*
X55000000Y-84100000D02*
X55000000Y-84950000D01*
X54700000Y-83800000D02*
X55000000Y-84100000D01*
X51900000Y-83800000D02*
X54700000Y-83800000D01*
X51800000Y-83700000D02*
X51900000Y-83800000D01*
X51800000Y-83200000D02*
X51800000Y-83700000D01*
X51600000Y-83000000D02*
X51800000Y-83200000D01*
X54300000Y-94200000D02*
X52700000Y-94200000D01*
X77500000Y-92900000D02*
X76000000Y-94400000D01*
X76000000Y-94400000D02*
X73100000Y-94400000D01*
X73100000Y-94400000D02*
X72500000Y-93800000D01*
X72500000Y-93800000D02*
X71800000Y-93800000D01*
X71800000Y-93800000D02*
X71400000Y-93400000D01*
X71400000Y-93400000D02*
X70800000Y-93400000D01*
X70800000Y-93400000D02*
X70300000Y-93900000D01*
X70300000Y-93900000D02*
X70300000Y-94000000D01*
X77500000Y-87000000D02*
X77500000Y-91500000D01*
X81250000Y-81350000D02*
X81250000Y-82150000D01*
X81500000Y-82400000D02*
X81500000Y-83000000D01*
X81250000Y-82150000D02*
X81500000Y-82400000D01*
X81500000Y-83000000D02*
X77500000Y-87000000D01*
X77500000Y-91500000D02*
X77500000Y-92900000D01*
X52500000Y-91000000D02*
X52500000Y-85450000D01*
X52500000Y-85450000D02*
X53000000Y-84950000D01*
X52500000Y-92400000D02*
X52500000Y-91000000D01*
X52500000Y-94000000D02*
X52500000Y-92400000D01*
X52700000Y-94200000D02*
X52500000Y-94000000D01*
X50550000Y-83500000D02*
X51000000Y-83500000D01*
X51850000Y-84950000D02*
X52700000Y-84950000D01*
X51500000Y-84600000D02*
X51850000Y-84950000D01*
X51500000Y-84000000D02*
X51500000Y-84600000D01*
X51000000Y-83500000D02*
X51500000Y-84000000D01*
X70000000Y-79000000D02*
X69100000Y-79000000D01*
X69100000Y-79000000D02*
X69000000Y-79100000D01*
X70000000Y-77950000D02*
X70000000Y-79000000D01*
X70000000Y-79000000D02*
X70000000Y-80000000D01*
X75900000Y-78800000D02*
X77600000Y-78800000D01*
X75700000Y-79000000D02*
X75900000Y-78800000D01*
X75700000Y-80300000D02*
X75700000Y-79000000D01*
X75600000Y-80400000D02*
X75700000Y-80300000D01*
X75100000Y-80900000D02*
X75600000Y-80400000D01*
X70900000Y-80900000D02*
X75100000Y-80900000D01*
X70000000Y-80000000D02*
X70900000Y-80900000D01*
X77600000Y-78800000D02*
X77650000Y-78750000D01*
X64950000Y-90250000D02*
X65650000Y-90250000D01*
X66700000Y-91800000D02*
X66950000Y-92050000D01*
X66950000Y-92050000D02*
X68000000Y-92050000D01*
X66000000Y-91100000D02*
X66700000Y-91800000D01*
X66000000Y-90600000D02*
X66000000Y-91100000D01*
X65650000Y-90250000D02*
X66000000Y-90600000D01*
X86350000Y-77250000D02*
X87350000Y-77250000D01*
X88650000Y-76600000D02*
X89050000Y-77000000D01*
X88000000Y-76600000D02*
X88650000Y-76600000D01*
X87350000Y-77250000D02*
X88000000Y-76600000D01*
X84100000Y-100100000D02*
X85300000Y-100100000D01*
X69600000Y-94400000D02*
X70000000Y-94800000D01*
X70000000Y-94800000D02*
X72000000Y-94800000D01*
X72000000Y-94800000D02*
X75500000Y-98300000D01*
X75500000Y-98300000D02*
X75500000Y-99400000D01*
X75500000Y-99400000D02*
X76200000Y-100100000D01*
X76200000Y-100100000D02*
X84100000Y-100100000D01*
X69600000Y-92700000D02*
X69600000Y-94100000D01*
X65850000Y-89250000D02*
X66900000Y-90300000D01*
X66900000Y-90300000D02*
X66900000Y-90641382D01*
X66900000Y-90641382D02*
X67163616Y-90904998D01*
X67163616Y-90904998D02*
X69104998Y-90904998D01*
X69104998Y-90904998D02*
X69600000Y-91400000D01*
X69600000Y-91400000D02*
X69600000Y-92700000D01*
X64950000Y-89250000D02*
X65850000Y-89250000D01*
X69600000Y-94100000D02*
X69600000Y-94400000D01*
X92000000Y-77000000D02*
X92604998Y-77604998D01*
X92604998Y-77604998D02*
X92604998Y-85800000D01*
X92000000Y-77000000D02*
X90950000Y-77000000D01*
X92604998Y-92795002D02*
X92604998Y-85800000D01*
X85300000Y-100100000D02*
X92604998Y-92795002D01*
X77650000Y-78250000D02*
X78650000Y-78250000D01*
X78650000Y-78250000D02*
X79100000Y-78700000D01*
X78850000Y-77750000D02*
X79000000Y-77600000D01*
X78500000Y-77750000D02*
X78850000Y-77750000D01*
X77650000Y-77750000D02*
X78500000Y-77750000D01*
X78500000Y-77750000D02*
X78450000Y-77750000D01*
X78650000Y-76250000D02*
X79100000Y-76700000D01*
X77650000Y-76250000D02*
X78650000Y-76250000D01*
X84750000Y-81350000D02*
X84750000Y-81950000D01*
X84750000Y-81950000D02*
X85200000Y-82400000D01*
X85200000Y-82400000D02*
X85600000Y-82800000D01*
X84250000Y-81350000D02*
X84250000Y-82350000D01*
X84250000Y-82350000D02*
X84500000Y-82600000D01*
X80750000Y-81350000D02*
X80750000Y-82550000D01*
X80750000Y-82550000D02*
X80900000Y-82700000D01*
X80250000Y-82450000D02*
X80250000Y-81350000D01*
X80100000Y-82600000D02*
X80250000Y-82450000D01*
X86350000Y-79750000D02*
X87350000Y-79750000D01*
X87350000Y-79750000D02*
X87600000Y-80000000D01*
X81750000Y-72650000D02*
X81750000Y-69750000D01*
X81750000Y-69750000D02*
X82100000Y-69400000D01*
X82250000Y-72650000D02*
X82250000Y-71250000D01*
X82250000Y-71250000D02*
X83800000Y-69700000D01*
X79750000Y-81350000D02*
X79750000Y-82050000D01*
X78900000Y-82900000D02*
X78900000Y-83000000D01*
X79750000Y-82050000D02*
X78900000Y-82900000D01*
X79250000Y-81350000D02*
X79250000Y-81950000D01*
X79250000Y-81950000D02*
X78800000Y-82400000D01*
X78800000Y-82400000D02*
X77400000Y-82400000D01*
X77400000Y-82400000D02*
X76700000Y-83100000D01*
X86350000Y-77750000D02*
X87750000Y-77750000D01*
X87750000Y-77750000D02*
X87800000Y-77700000D01*
X93800000Y-85800000D02*
X93800000Y-96300000D01*
X87050000Y-75750000D02*
X88000000Y-74800000D01*
X88000000Y-74800000D02*
X92300000Y-74800000D01*
X92300000Y-74800000D02*
X93800000Y-76300000D01*
X93800000Y-76300000D02*
X93800000Y-85800000D01*
X86350000Y-75750000D02*
X87050000Y-75750000D01*
X69200000Y-94800000D02*
X69700000Y-95300000D01*
X69700000Y-95300000D02*
X71800000Y-95300000D01*
X71800000Y-95300000D02*
X75000000Y-98500000D01*
X75000000Y-98500000D02*
X75000000Y-99700000D01*
X75000000Y-99700000D02*
X75900000Y-100600000D01*
X75900000Y-100600000D02*
X76358618Y-100600000D01*
X69200000Y-92600000D02*
X69200000Y-94400000D01*
X65708618Y-89750000D02*
X66429309Y-90470691D01*
X66429309Y-90470691D02*
X66429309Y-90729309D01*
X66429309Y-90729309D02*
X67000000Y-91300000D01*
X67000000Y-91300000D02*
X68800000Y-91300000D01*
X68800000Y-91300000D02*
X69200000Y-91700000D01*
X69200000Y-91700000D02*
X69200000Y-92600000D01*
X65708618Y-89750000D02*
X64950000Y-89750000D01*
X84200000Y-100600000D02*
X76358618Y-100600000D01*
X69200000Y-94400000D02*
X69200000Y-94800000D01*
X86400000Y-100600000D02*
X84200000Y-100600000D01*
X86600000Y-100400000D02*
X86400000Y-100600000D01*
X93800000Y-96300000D02*
X88900000Y-101200000D01*
X71400000Y-96200000D02*
X60300000Y-96200000D01*
X87300000Y-101500000D02*
X93395002Y-95404998D01*
X93395002Y-95404998D02*
X93395002Y-85800000D01*
X76000000Y-101500000D02*
X75600000Y-101500000D01*
X84300000Y-101500000D02*
X76000000Y-101500000D01*
X61050000Y-90750000D02*
X60050000Y-90750000D01*
X74100000Y-98900000D02*
X71400000Y-96200000D01*
X74100000Y-100000000D02*
X74100000Y-98900000D01*
X75600000Y-101500000D02*
X74100000Y-100000000D01*
X87150000Y-76250000D02*
X86350000Y-76250000D01*
X93395002Y-76495002D02*
X93395002Y-85800000D01*
X92104998Y-75204998D02*
X93395002Y-76495002D01*
X90104998Y-75204998D02*
X92104998Y-75204998D01*
X90100000Y-75200000D02*
X90104998Y-75204998D01*
X88200000Y-75200000D02*
X90100000Y-75200000D01*
X87150000Y-76250000D02*
X88200000Y-75200000D01*
X84300000Y-101500000D02*
X87300000Y-101500000D01*
X59400000Y-91400000D02*
X60050000Y-90750000D01*
X59400000Y-95300000D02*
X59400000Y-91400000D01*
X60300000Y-96200000D02*
X59400000Y-95300000D01*
X71600000Y-95800000D02*
X60500000Y-95800000D01*
X60500000Y-95800000D02*
X59900000Y-95200000D01*
X93000000Y-85800000D02*
X93000000Y-95200000D01*
X87250000Y-76750000D02*
X88400000Y-75600000D01*
X88400000Y-75600000D02*
X91900000Y-75600000D01*
X91900000Y-75600000D02*
X93000000Y-76700000D01*
X93000000Y-76700000D02*
X93000000Y-85800000D01*
X86350000Y-76750000D02*
X87250000Y-76750000D01*
X84300000Y-101104998D02*
X84300000Y-101100000D01*
X87095002Y-101104998D02*
X84300000Y-101104998D01*
X93000000Y-95200000D02*
X87095002Y-101104998D01*
X60208618Y-91250000D02*
X59900000Y-91558618D01*
X60208618Y-91250000D02*
X61050000Y-91250000D01*
X59900000Y-91558618D02*
X59900000Y-95200000D01*
X59900000Y-95200000D02*
X59900000Y-95204998D01*
X84300000Y-101100000D02*
X84300000Y-101100000D01*
X84300000Y-101100000D02*
X76300000Y-101100000D01*
X75758618Y-101100000D02*
X76300000Y-101100000D01*
X74495002Y-99836384D02*
X75758618Y-101100000D01*
X74495002Y-98695002D02*
X74495002Y-99836384D01*
X71604998Y-95804998D02*
X71600000Y-95800000D01*
X71600000Y-95800000D02*
X74495002Y-98695002D01*
X44000000Y-66000000D02*
X40050000Y-66000000D01*
X40050000Y-66000000D02*
X40000000Y-66050000D01*
X40000000Y-63950000D02*
X40000000Y-66050000D01*
D43*
X44000000Y-67998980D02*
X42601020Y-67998980D01*
X41600000Y-70000000D02*
X39950000Y-70000000D01*
X42100000Y-69500000D02*
X41600000Y-70000000D01*
X42100000Y-68500000D02*
X42100000Y-69500000D01*
X42601020Y-67998980D02*
X42100000Y-68500000D01*
D42*
X44000000Y-73000000D02*
X48400000Y-73000000D01*
X48400000Y-73000000D02*
X48450000Y-73050000D01*
X47900000Y-72000000D02*
X48050000Y-72000000D01*
X48500000Y-73050000D02*
X48450000Y-73050000D01*
X48450000Y-73050000D02*
X48000000Y-73500000D01*
X48000000Y-73500000D02*
X48000000Y-74050000D01*
X52900000Y-73050000D02*
X48500000Y-73050000D01*
X48450000Y-73050000D02*
X48050000Y-72650000D01*
X48050000Y-72650000D02*
X48050000Y-72000000D01*
X41700000Y-91100000D02*
X41550000Y-90950000D01*
X41550000Y-90950000D02*
X41000000Y-90950000D01*
X41000000Y-90950000D02*
X41000000Y-92300000D01*
X60450000Y-88050000D02*
X60100000Y-88400000D01*
X60100000Y-88400000D02*
X60100000Y-90100000D01*
X60100000Y-90100000D02*
X58900000Y-91300000D01*
X58900000Y-91300000D02*
X58900000Y-92800000D01*
X58900000Y-92800000D02*
X56000000Y-95700000D01*
X60450000Y-88050000D02*
X61750000Y-88050000D01*
X44400000Y-95700000D02*
X56000000Y-95700000D01*
X41000000Y-92300000D02*
X44400000Y-95700000D01*
D44*
G36*
X29438695Y-61259090D02*
X32000000Y-63820395D01*
X34561305Y-61259090D01*
X34463472Y-61127000D01*
X39074009Y-61127000D01*
X38990301Y-61161673D01*
X38811673Y-61340302D01*
X38715000Y-61573691D01*
X38715000Y-61764250D01*
X38873750Y-61923000D01*
X39873000Y-61923000D01*
X39873000Y-61903000D01*
X40127000Y-61903000D01*
X40127000Y-61923000D01*
X41126250Y-61923000D01*
X41285000Y-61764250D01*
X41285000Y-61573691D01*
X41188327Y-61340302D01*
X41009699Y-61161673D01*
X40925991Y-61127000D01*
X91536528Y-61127000D01*
X91438695Y-61259090D01*
X94000000Y-63820395D01*
X96561305Y-61259090D01*
X96463472Y-61127000D01*
X96873000Y-61127000D01*
X96873000Y-61536528D01*
X96740910Y-61438695D01*
X94179605Y-64000000D01*
X96740910Y-66561305D01*
X96873000Y-66463472D01*
X96873000Y-103536528D01*
X96740910Y-103438695D01*
X94179605Y-106000000D01*
X96740910Y-108561305D01*
X96873000Y-108463472D01*
X96873000Y-108873000D01*
X96463472Y-108873000D01*
X96561305Y-108740910D01*
X94000000Y-106179605D01*
X91438695Y-108740910D01*
X91536528Y-108873000D01*
X34463472Y-108873000D01*
X34561305Y-108740910D01*
X32000000Y-106179605D01*
X29438695Y-108740910D01*
X29536528Y-108873000D01*
X29127000Y-108873000D01*
X29127000Y-108463472D01*
X29259090Y-108561305D01*
X31820395Y-106000000D01*
X32179605Y-106000000D01*
X34740910Y-108561305D01*
X35236343Y-108194360D01*
X35829736Y-106788829D01*
X35830450Y-106683583D01*
X59072839Y-106683583D01*
X59213669Y-107024417D01*
X59474211Y-107285414D01*
X59814799Y-107426839D01*
X60183583Y-107427161D01*
X60524417Y-107286331D01*
X60785414Y-107025789D01*
X60905416Y-106736793D01*
X90159913Y-106736793D01*
X90734181Y-108150246D01*
X90763657Y-108194360D01*
X91259090Y-108561305D01*
X93820395Y-106000000D01*
X91259090Y-103438695D01*
X90763657Y-103805640D01*
X90170264Y-105211171D01*
X90159913Y-106736793D01*
X60905416Y-106736793D01*
X60926839Y-106685201D01*
X60927161Y-106316417D01*
X60786331Y-105975583D01*
X60525789Y-105714586D01*
X60185201Y-105573161D01*
X59816417Y-105572839D01*
X59475583Y-105713669D01*
X59214586Y-105974211D01*
X59073161Y-106314799D01*
X59072839Y-106683583D01*
X35830450Y-106683583D01*
X35840087Y-105263207D01*
X35795122Y-105152532D01*
X38027073Y-105152532D01*
X38125736Y-105419387D01*
X38735461Y-105645908D01*
X39385460Y-105621856D01*
X39874264Y-105419387D01*
X39972927Y-105152532D01*
X50027073Y-105152532D01*
X50125736Y-105419387D01*
X50735461Y-105645908D01*
X51385460Y-105621856D01*
X51874264Y-105419387D01*
X51972927Y-105152532D01*
X51000000Y-104179605D01*
X50027073Y-105152532D01*
X39972927Y-105152532D01*
X39000000Y-104179605D01*
X38027073Y-105152532D01*
X35795122Y-105152532D01*
X35265819Y-103849754D01*
X35236343Y-103805640D01*
X35141591Y-103735461D01*
X37354092Y-103735461D01*
X37378144Y-104385460D01*
X37580613Y-104874264D01*
X37847468Y-104972927D01*
X38820395Y-104000000D01*
X39179605Y-104000000D01*
X40152532Y-104972927D01*
X40419387Y-104874264D01*
X40645908Y-104264539D01*
X40626331Y-103735461D01*
X49354092Y-103735461D01*
X49378144Y-104385460D01*
X49580613Y-104874264D01*
X49847468Y-104972927D01*
X50820395Y-104000000D01*
X51179605Y-104000000D01*
X52152532Y-104972927D01*
X52419387Y-104874264D01*
X52645908Y-104264539D01*
X52621856Y-103614540D01*
X52419387Y-103125736D01*
X52152532Y-103027073D01*
X51179605Y-104000000D01*
X50820395Y-104000000D01*
X49847468Y-103027073D01*
X49580613Y-103125736D01*
X49354092Y-103735461D01*
X40626331Y-103735461D01*
X40621856Y-103614540D01*
X40419387Y-103125736D01*
X40152532Y-103027073D01*
X39179605Y-104000000D01*
X38820395Y-104000000D01*
X37847468Y-103027073D01*
X37580613Y-103125736D01*
X37354092Y-103735461D01*
X35141591Y-103735461D01*
X34740910Y-103438695D01*
X32179605Y-106000000D01*
X31820395Y-106000000D01*
X29259090Y-103438695D01*
X29127000Y-103536528D01*
X29127000Y-103259090D01*
X29438695Y-103259090D01*
X32000000Y-105820395D01*
X34561305Y-103259090D01*
X34256436Y-102847468D01*
X38027073Y-102847468D01*
X39000000Y-103820395D01*
X39972927Y-102847468D01*
X50027073Y-102847468D01*
X51000000Y-103820395D01*
X51972927Y-102847468D01*
X51874264Y-102580613D01*
X51264539Y-102354092D01*
X50614540Y-102378144D01*
X50125736Y-102580613D01*
X50027073Y-102847468D01*
X39972927Y-102847468D01*
X39874264Y-102580613D01*
X39264539Y-102354092D01*
X38614540Y-102378144D01*
X38125736Y-102580613D01*
X38027073Y-102847468D01*
X34256436Y-102847468D01*
X34194360Y-102763657D01*
X32788829Y-102170264D01*
X31263207Y-102159913D01*
X29849754Y-102734181D01*
X29805640Y-102763657D01*
X29438695Y-103259090D01*
X29127000Y-103259090D01*
X29127000Y-98000000D01*
X37462676Y-98000000D01*
X37462676Y-100000000D01*
X37499423Y-100195294D01*
X37614842Y-100374660D01*
X37790951Y-100494990D01*
X38000000Y-100537324D01*
X40000000Y-100537324D01*
X40195294Y-100500577D01*
X40374660Y-100385158D01*
X40494990Y-100209049D01*
X40537324Y-100000000D01*
X40537324Y-99302407D01*
X49472735Y-99302407D01*
X49704717Y-99863846D01*
X50133894Y-100293773D01*
X50694928Y-100526735D01*
X51302407Y-100527265D01*
X51863846Y-100295283D01*
X52293773Y-99866106D01*
X52526735Y-99305072D01*
X52527265Y-98697593D01*
X52295283Y-98136154D01*
X51866106Y-97706227D01*
X51305072Y-97473265D01*
X50697593Y-97472735D01*
X50136154Y-97704717D01*
X49706227Y-98133894D01*
X49473265Y-98694928D01*
X49472735Y-99302407D01*
X40537324Y-99302407D01*
X40537324Y-98000000D01*
X40500577Y-97804706D01*
X40385158Y-97625340D01*
X40209049Y-97505010D01*
X40000000Y-97462676D01*
X38000000Y-97462676D01*
X37804706Y-97499423D01*
X37625340Y-97614842D01*
X37505010Y-97790951D01*
X37462676Y-98000000D01*
X29127000Y-98000000D01*
X29127000Y-97720830D01*
X29173000Y-97735000D01*
X29523000Y-97735000D01*
X29523000Y-96627000D01*
X29777000Y-96627000D01*
X29777000Y-97735000D01*
X30127000Y-97735000D01*
X30589947Y-97592390D01*
X30963080Y-97283474D01*
X31189592Y-96855281D01*
X31193462Y-96817609D01*
X31068731Y-96627000D01*
X29777000Y-96627000D01*
X29523000Y-96627000D01*
X29503000Y-96627000D01*
X29503000Y-96453398D01*
X31576207Y-96453398D01*
X31641122Y-96691753D01*
X32151146Y-96872312D01*
X32691444Y-96843949D01*
X33058878Y-96691753D01*
X33123793Y-96453398D01*
X32350000Y-95679605D01*
X31576207Y-96453398D01*
X29503000Y-96453398D01*
X29503000Y-96373000D01*
X29523000Y-96373000D01*
X29523000Y-95265000D01*
X29777000Y-95265000D01*
X29777000Y-96373000D01*
X31068731Y-96373000D01*
X31173424Y-96213012D01*
X31396602Y-96273793D01*
X32170395Y-95500000D01*
X32529605Y-95500000D01*
X33303398Y-96273793D01*
X33541753Y-96208878D01*
X33722312Y-95698854D01*
X33693949Y-95158556D01*
X33541753Y-94791122D01*
X33303398Y-94726207D01*
X32529605Y-95500000D01*
X32170395Y-95500000D01*
X31396602Y-94726207D01*
X31158247Y-94791122D01*
X30977688Y-95301146D01*
X31003505Y-95792945D01*
X30963080Y-95716526D01*
X30589947Y-95407610D01*
X30127000Y-95265000D01*
X29777000Y-95265000D01*
X29523000Y-95265000D01*
X29173000Y-95265000D01*
X29127000Y-95279170D01*
X29127000Y-94546602D01*
X31576207Y-94546602D01*
X32350000Y-95320395D01*
X33123793Y-94546602D01*
X33058878Y-94308247D01*
X32548854Y-94127688D01*
X32008556Y-94156051D01*
X31641122Y-94308247D01*
X31576207Y-94546602D01*
X29127000Y-94546602D01*
X29127000Y-91453398D01*
X31576207Y-91453398D01*
X31641122Y-91691753D01*
X32151146Y-91872312D01*
X32691444Y-91843949D01*
X33058878Y-91691753D01*
X33123793Y-91453398D01*
X32350000Y-90679605D01*
X31576207Y-91453398D01*
X29127000Y-91453398D01*
X29127000Y-90720830D01*
X29173000Y-90735000D01*
X29523000Y-90735000D01*
X29523000Y-89627000D01*
X29777000Y-89627000D01*
X29777000Y-90735000D01*
X30127000Y-90735000D01*
X30589947Y-90592390D01*
X30963080Y-90283474D01*
X31026158Y-90164232D01*
X30977688Y-90301146D01*
X31006051Y-90841444D01*
X31158247Y-91208878D01*
X31396602Y-91273793D01*
X32170395Y-90500000D01*
X32529605Y-90500000D01*
X33303398Y-91273793D01*
X33541753Y-91208878D01*
X33722312Y-90698854D01*
X33693949Y-90158556D01*
X33541753Y-89791122D01*
X33303398Y-89726207D01*
X32529605Y-90500000D01*
X32170395Y-90500000D01*
X31396602Y-89726207D01*
X31173424Y-89786988D01*
X31068731Y-89627000D01*
X29777000Y-89627000D01*
X29523000Y-89627000D01*
X29503000Y-89627000D01*
X29503000Y-89546602D01*
X31576207Y-89546602D01*
X32350000Y-90320395D01*
X33123793Y-89546602D01*
X33058878Y-89308247D01*
X32548854Y-89127688D01*
X32008556Y-89156051D01*
X31641122Y-89308247D01*
X31576207Y-89546602D01*
X29503000Y-89546602D01*
X29503000Y-89373000D01*
X29523000Y-89373000D01*
X29523000Y-88265000D01*
X29777000Y-88265000D01*
X29777000Y-89373000D01*
X31068731Y-89373000D01*
X31193462Y-89182391D01*
X31189592Y-89144719D01*
X30963080Y-88716526D01*
X30943119Y-88700000D01*
X39812676Y-88700000D01*
X39812676Y-89400000D01*
X39849423Y-89595294D01*
X39964842Y-89774660D01*
X40140951Y-89894990D01*
X40350000Y-89937324D01*
X41650000Y-89937324D01*
X41845294Y-89900577D01*
X42024660Y-89785158D01*
X42144990Y-89609049D01*
X42187324Y-89400000D01*
X42187324Y-88700000D01*
X44812676Y-88700000D01*
X44812676Y-89400000D01*
X44849423Y-89595294D01*
X44964842Y-89774660D01*
X45140951Y-89894990D01*
X45350000Y-89937324D01*
X46650000Y-89937324D01*
X46845294Y-89900577D01*
X47024660Y-89785158D01*
X47144990Y-89609049D01*
X47187324Y-89400000D01*
X47187324Y-88700000D01*
X47150577Y-88504706D01*
X47035158Y-88325340D01*
X46859049Y-88205010D01*
X46697464Y-88172288D01*
X46700688Y-88169070D01*
X46826856Y-87865222D01*
X46827143Y-87536221D01*
X46701505Y-87232154D01*
X46469070Y-86999312D01*
X46165222Y-86873144D01*
X45836221Y-86872857D01*
X45532154Y-86998495D01*
X45299312Y-87230930D01*
X45173144Y-87534778D01*
X45172857Y-87863779D01*
X45298495Y-88167846D01*
X45302295Y-88171652D01*
X45154706Y-88199423D01*
X44975340Y-88314842D01*
X44855010Y-88490951D01*
X44812676Y-88700000D01*
X42187324Y-88700000D01*
X42150577Y-88504706D01*
X42035158Y-88325340D01*
X41859049Y-88205010D01*
X41650000Y-88162676D01*
X41627000Y-88162676D01*
X41627000Y-88159701D01*
X41767846Y-88101505D01*
X42000688Y-87869070D01*
X42126856Y-87565222D01*
X42127143Y-87236221D01*
X42001505Y-86932154D01*
X41769070Y-86699312D01*
X41465222Y-86573144D01*
X41136221Y-86572857D01*
X40832154Y-86698495D01*
X40599312Y-86930930D01*
X40473144Y-87234778D01*
X40473016Y-87381803D01*
X40420728Y-87460057D01*
X40373000Y-87700000D01*
X40373000Y-88162676D01*
X40350000Y-88162676D01*
X40154706Y-88199423D01*
X39975340Y-88314842D01*
X39855010Y-88490951D01*
X39812676Y-88700000D01*
X30943119Y-88700000D01*
X30589947Y-88407610D01*
X30127000Y-88265000D01*
X29777000Y-88265000D01*
X29523000Y-88265000D01*
X29173000Y-88265000D01*
X29127000Y-88279170D01*
X29127000Y-86122761D01*
X29325298Y-86321405D01*
X30070036Y-86630647D01*
X30876426Y-86631351D01*
X31621703Y-86323409D01*
X32192405Y-85753702D01*
X32501647Y-85008964D01*
X32502351Y-84202574D01*
X32194409Y-83457297D01*
X31624702Y-82886595D01*
X30879964Y-82577353D01*
X30073574Y-82576649D01*
X29328297Y-82884591D01*
X29127000Y-83085537D01*
X29127000Y-72914761D01*
X29325298Y-73113405D01*
X30070036Y-73422647D01*
X30876426Y-73423351D01*
X31621703Y-73115409D01*
X32192405Y-72545702D01*
X32501647Y-71800964D01*
X32502351Y-70994574D01*
X32194409Y-70249297D01*
X31745896Y-69800000D01*
X34773000Y-69800000D01*
X34773000Y-77200000D01*
X34820728Y-77439943D01*
X34943043Y-77623000D01*
X34956644Y-77643356D01*
X37856644Y-80543356D01*
X38060057Y-80679272D01*
X38300000Y-80727000D01*
X39591614Y-80727000D01*
X38980297Y-80979591D01*
X38409595Y-81549298D01*
X38100353Y-82294036D01*
X38099649Y-83100426D01*
X38407591Y-83845703D01*
X38977298Y-84416405D01*
X39722036Y-84725647D01*
X40528426Y-84726351D01*
X41273703Y-84418409D01*
X41844405Y-83848702D01*
X42153647Y-83103964D01*
X42154139Y-82540851D01*
X43056644Y-83443356D01*
X43260057Y-83579272D01*
X43500000Y-83627000D01*
X45473064Y-83627000D01*
X45472857Y-83863779D01*
X45598495Y-84167846D01*
X45830930Y-84400688D01*
X46134778Y-84526856D01*
X46463779Y-84527143D01*
X46683121Y-84436513D01*
X46739842Y-84524660D01*
X46823000Y-84581479D01*
X46823000Y-85400000D01*
X46870728Y-85639943D01*
X46995619Y-85826856D01*
X47006644Y-85843356D01*
X47162676Y-85999388D01*
X47162676Y-86650000D01*
X47199423Y-86845294D01*
X47314842Y-87024660D01*
X47490951Y-87144990D01*
X47700000Y-87187324D01*
X48400000Y-87187324D01*
X48595294Y-87150577D01*
X48774660Y-87035158D01*
X48894990Y-86859049D01*
X48937324Y-86650000D01*
X48937324Y-86285750D01*
X48965000Y-86285750D01*
X48965000Y-86776310D01*
X49061673Y-87009699D01*
X49240302Y-87188327D01*
X49473691Y-87285000D01*
X49664250Y-87285000D01*
X49823000Y-87126250D01*
X49823000Y-86127000D01*
X49123750Y-86127000D01*
X48965000Y-86285750D01*
X48937324Y-86285750D01*
X48937324Y-85350000D01*
X48900577Y-85154706D01*
X48785158Y-84975340D01*
X48609049Y-84855010D01*
X48400000Y-84812676D01*
X48077000Y-84812676D01*
X48077000Y-84747353D01*
X48225000Y-84777324D01*
X49323228Y-84777324D01*
X49240302Y-84811673D01*
X49061673Y-84990301D01*
X48965000Y-85223690D01*
X48965000Y-85714250D01*
X49123750Y-85873000D01*
X49823000Y-85873000D01*
X49823000Y-85853000D01*
X50077000Y-85853000D01*
X50077000Y-85873000D01*
X50097000Y-85873000D01*
X50097000Y-86127000D01*
X50077000Y-86127000D01*
X50077000Y-87126250D01*
X50235750Y-87285000D01*
X50373000Y-87285000D01*
X50373000Y-88162676D01*
X50350000Y-88162676D01*
X50154706Y-88199423D01*
X49975340Y-88314842D01*
X49855010Y-88490951D01*
X49812676Y-88700000D01*
X49812676Y-89400000D01*
X49849423Y-89595294D01*
X49964842Y-89774660D01*
X50140951Y-89894990D01*
X50350000Y-89937324D01*
X51650000Y-89937324D01*
X51845294Y-89900577D01*
X51873000Y-89882749D01*
X51873000Y-90114542D01*
X51859049Y-90105010D01*
X51650000Y-90062676D01*
X50350000Y-90062676D01*
X50154706Y-90099423D01*
X49975340Y-90214842D01*
X49951096Y-90250325D01*
X49765222Y-90173144D01*
X49436221Y-90172857D01*
X49132154Y-90298495D01*
X48899312Y-90530930D01*
X48773144Y-90834778D01*
X48772857Y-91163779D01*
X48898495Y-91467846D01*
X49130930Y-91700688D01*
X49434778Y-91826856D01*
X49763779Y-91827143D01*
X50028141Y-91717911D01*
X50140951Y-91794990D01*
X50350000Y-91837324D01*
X50373000Y-91837324D01*
X50373000Y-93700000D01*
X50420728Y-93939943D01*
X50546175Y-94127688D01*
X50556644Y-94143356D01*
X51086288Y-94673000D01*
X47559712Y-94673000D01*
X46627000Y-93740288D01*
X46627000Y-91837324D01*
X46650000Y-91837324D01*
X46845294Y-91800577D01*
X47024660Y-91685158D01*
X47144990Y-91509049D01*
X47187324Y-91300000D01*
X47187324Y-90600000D01*
X47150577Y-90404706D01*
X47035158Y-90225340D01*
X46859049Y-90105010D01*
X46650000Y-90062676D01*
X45350000Y-90062676D01*
X45154706Y-90099423D01*
X44980962Y-90211225D01*
X44969070Y-90199312D01*
X44665222Y-90073144D01*
X44336221Y-90072857D01*
X44032154Y-90198495D01*
X43799312Y-90430930D01*
X43673144Y-90734778D01*
X43672857Y-91063779D01*
X43798495Y-91367846D01*
X44030930Y-91600688D01*
X44334778Y-91726856D01*
X44663779Y-91727143D01*
X44928286Y-91617851D01*
X44964842Y-91674660D01*
X45140951Y-91794990D01*
X45350000Y-91837324D01*
X45373000Y-91837324D01*
X45373000Y-94000000D01*
X45420728Y-94239943D01*
X45542819Y-94422665D01*
X45556644Y-94443356D01*
X46186288Y-95073000D01*
X44659712Y-95073000D01*
X41627000Y-92040288D01*
X41627000Y-91926936D01*
X41863779Y-91927143D01*
X42167846Y-91801505D01*
X42400688Y-91569070D01*
X42526856Y-91265222D01*
X42527143Y-90936221D01*
X42401505Y-90632154D01*
X42169070Y-90399312D01*
X42139098Y-90386866D01*
X42035158Y-90225340D01*
X41859049Y-90105010D01*
X41650000Y-90062676D01*
X40350000Y-90062676D01*
X40154706Y-90099423D01*
X39975340Y-90214842D01*
X39855010Y-90390951D01*
X39812676Y-90600000D01*
X39812676Y-91300000D01*
X39849423Y-91495294D01*
X39964842Y-91674660D01*
X40140951Y-91794990D01*
X40350000Y-91837324D01*
X40373000Y-91837324D01*
X40373000Y-92300000D01*
X40420728Y-92539943D01*
X40528134Y-92700688D01*
X40556644Y-92743356D01*
X43956644Y-96143356D01*
X44160057Y-96279272D01*
X44400000Y-96327000D01*
X56000000Y-96327000D01*
X56239943Y-96279272D01*
X56443356Y-96143356D01*
X58773000Y-93813712D01*
X58773000Y-95300000D01*
X58820728Y-95539943D01*
X58945715Y-95727000D01*
X58956644Y-95743356D01*
X59794983Y-96581695D01*
X59475583Y-96713669D01*
X59214586Y-96974211D01*
X59073161Y-97314799D01*
X59072839Y-97683583D01*
X59213669Y-98024417D01*
X59474211Y-98285414D01*
X59814799Y-98426839D01*
X60183583Y-98427161D01*
X60524417Y-98286331D01*
X60785414Y-98025789D01*
X60926839Y-97685201D01*
X60927161Y-97316417D01*
X60786331Y-96975583D01*
X60638007Y-96827000D01*
X71140288Y-96827000D01*
X73473000Y-99159712D01*
X73473000Y-100000000D01*
X73520728Y-100239943D01*
X73656644Y-100443356D01*
X74586288Y-101373000D01*
X72100000Y-101373000D01*
X71860057Y-101420728D01*
X71741418Y-101500000D01*
X71656644Y-101556644D01*
X71540288Y-101673000D01*
X71387324Y-101673000D01*
X71387324Y-100150000D01*
X71350577Y-99954706D01*
X71235158Y-99775340D01*
X71059049Y-99655010D01*
X70850000Y-99612676D01*
X69150000Y-99612676D01*
X68954706Y-99649423D01*
X68775340Y-99764842D01*
X68655010Y-99940951D01*
X68612676Y-100150000D01*
X68612676Y-100373000D01*
X67209712Y-100373000D01*
X66837324Y-100000612D01*
X66837324Y-99350000D01*
X66800577Y-99154706D01*
X66685158Y-98975340D01*
X66509049Y-98855010D01*
X66300000Y-98812676D01*
X65600000Y-98812676D01*
X65404706Y-98849423D01*
X65225340Y-98964842D01*
X65105010Y-99140951D01*
X65062676Y-99350000D01*
X65062676Y-100650000D01*
X65099423Y-100845294D01*
X65214842Y-101024660D01*
X65390951Y-101144990D01*
X65600000Y-101187324D01*
X66250612Y-101187324D01*
X66506644Y-101443356D01*
X66710058Y-101579273D01*
X66950000Y-101627000D01*
X68612676Y-101627000D01*
X68612676Y-101673000D01*
X64700000Y-101673000D01*
X64460058Y-101720727D01*
X64256644Y-101856644D01*
X64026926Y-102086362D01*
X64027265Y-101697593D01*
X63816426Y-101187324D01*
X64400000Y-101187324D01*
X64595294Y-101150577D01*
X64774660Y-101035158D01*
X64894990Y-100859049D01*
X64937324Y-100650000D01*
X64937324Y-99350000D01*
X64900577Y-99154706D01*
X64785158Y-98975340D01*
X64777000Y-98969766D01*
X64777000Y-98892717D01*
X64800688Y-98869070D01*
X64926856Y-98565222D01*
X64927143Y-98236221D01*
X64801505Y-97932154D01*
X64569070Y-97699312D01*
X64265222Y-97573144D01*
X63936221Y-97572857D01*
X63632154Y-97698495D01*
X63399312Y-97930930D01*
X63273144Y-98234778D01*
X63272857Y-98563779D01*
X63323000Y-98685134D01*
X63323000Y-98968267D01*
X63205010Y-99140951D01*
X63178269Y-99273000D01*
X61822835Y-99273000D01*
X61800577Y-99154706D01*
X61685158Y-98975340D01*
X61509049Y-98855010D01*
X61300000Y-98812676D01*
X60600000Y-98812676D01*
X60404706Y-98849423D01*
X60225340Y-98964842D01*
X60105010Y-99140951D01*
X60062676Y-99350000D01*
X60062676Y-100650000D01*
X60099423Y-100845294D01*
X60214842Y-101024660D01*
X60390951Y-101144990D01*
X60600000Y-101187324D01*
X61184041Y-101187324D01*
X60973265Y-101694928D01*
X60972735Y-102302407D01*
X61204717Y-102863846D01*
X61313681Y-102973000D01*
X59359712Y-102973000D01*
X58928459Y-102541747D01*
X59026735Y-102305072D01*
X59027265Y-101697593D01*
X58928397Y-101458315D01*
X59199388Y-101187324D01*
X59400000Y-101187324D01*
X59595294Y-101150577D01*
X59774660Y-101035158D01*
X59894990Y-100859049D01*
X59937324Y-100650000D01*
X59937324Y-99350000D01*
X59900577Y-99154706D01*
X59785158Y-98975340D01*
X59609049Y-98855010D01*
X59400000Y-98812676D01*
X58700000Y-98812676D01*
X58504706Y-98849423D01*
X58325340Y-98964842D01*
X58205010Y-99140951D01*
X58162676Y-99350000D01*
X58162676Y-100450612D01*
X58041747Y-100571541D01*
X57805072Y-100473265D01*
X57197593Y-100472735D01*
X56636154Y-100704717D01*
X56206227Y-101133894D01*
X55973265Y-101694928D01*
X55972735Y-102302407D01*
X56204717Y-102863846D01*
X56633894Y-103293773D01*
X57194928Y-103526735D01*
X57802407Y-103527265D01*
X58041685Y-103428397D01*
X58656644Y-104043356D01*
X58860058Y-104179273D01*
X59100000Y-104227000D01*
X63400000Y-104227000D01*
X63639943Y-104179272D01*
X63843356Y-104043356D01*
X63989822Y-103896890D01*
X68558524Y-103896890D01*
X68728355Y-104306924D01*
X69118642Y-104735183D01*
X69643108Y-104981486D01*
X69873000Y-104860819D01*
X69873000Y-103667000D01*
X70127000Y-103667000D01*
X70127000Y-104860819D01*
X70356892Y-104981486D01*
X70881358Y-104735183D01*
X71271645Y-104306924D01*
X71441476Y-103896890D01*
X71320155Y-103667000D01*
X70127000Y-103667000D01*
X69873000Y-103667000D01*
X68679845Y-103667000D01*
X68558524Y-103896890D01*
X63989822Y-103896890D01*
X64959712Y-102927000D01*
X68664602Y-102927000D01*
X68558524Y-103183110D01*
X68679845Y-103413000D01*
X69873000Y-103413000D01*
X69873000Y-103393000D01*
X70127000Y-103393000D01*
X70127000Y-103413000D01*
X71320155Y-103413000D01*
X71401378Y-103259090D01*
X91438695Y-103259090D01*
X94000000Y-105820395D01*
X96561305Y-103259090D01*
X96194360Y-102763657D01*
X94788829Y-102170264D01*
X93263207Y-102159913D01*
X91849754Y-102734181D01*
X91805640Y-102763657D01*
X91438695Y-103259090D01*
X71401378Y-103259090D01*
X71441476Y-103183110D01*
X71335398Y-102927000D01*
X71800000Y-102927000D01*
X72039943Y-102879272D01*
X72243356Y-102743356D01*
X72359712Y-102627000D01*
X89100000Y-102627000D01*
X89339943Y-102579272D01*
X89543356Y-102443356D01*
X90043356Y-101943356D01*
X90179273Y-101739942D01*
X90227000Y-101500000D01*
X90227000Y-101459712D01*
X94743356Y-96943356D01*
X94879273Y-96739942D01*
X94927000Y-96500000D01*
X94927000Y-76000000D01*
X94913018Y-75929706D01*
X94879273Y-75760058D01*
X94743356Y-75556644D01*
X92993356Y-73806644D01*
X92984276Y-73800577D01*
X92789943Y-73670728D01*
X92550000Y-73623000D01*
X87174433Y-73623000D01*
X87000000Y-73587676D01*
X86259296Y-73587676D01*
X86467846Y-73501505D01*
X86700688Y-73269070D01*
X86826856Y-72965222D01*
X86827143Y-72636221D01*
X86701505Y-72332154D01*
X86627000Y-72257519D01*
X86627000Y-69100000D01*
X86579272Y-68860057D01*
X86443356Y-68656644D01*
X84527622Y-66740910D01*
X91438695Y-66740910D01*
X91805640Y-67236343D01*
X93211171Y-67829736D01*
X94736793Y-67840087D01*
X96150246Y-67265819D01*
X96194360Y-67236343D01*
X96561305Y-66740910D01*
X94000000Y-64179605D01*
X91438695Y-66740910D01*
X84527622Y-66740910D01*
X84443356Y-66656644D01*
X84402391Y-66629272D01*
X84239943Y-66520728D01*
X84000000Y-66473000D01*
X77859712Y-66473000D01*
X77087000Y-65700288D01*
X77087000Y-64736793D01*
X90159913Y-64736793D01*
X90734181Y-66150246D01*
X90763657Y-66194360D01*
X91259090Y-66561305D01*
X93820395Y-64000000D01*
X91259090Y-61438695D01*
X90763657Y-61805640D01*
X90170264Y-63211171D01*
X90159913Y-64736793D01*
X77087000Y-64736793D01*
X77087000Y-64232311D01*
X77433686Y-64000663D01*
X77515000Y-63878968D01*
X77515000Y-63976309D01*
X77611673Y-64209698D01*
X77790301Y-64388327D01*
X78023690Y-64485000D01*
X78714250Y-64485000D01*
X78873000Y-64326250D01*
X78873000Y-63127000D01*
X79127000Y-63127000D01*
X79127000Y-64326250D01*
X79285750Y-64485000D01*
X79976310Y-64485000D01*
X80209699Y-64388327D01*
X80388327Y-64209698D01*
X80485000Y-63976309D01*
X80485000Y-63285750D01*
X80326250Y-63127000D01*
X79127000Y-63127000D01*
X78873000Y-63127000D01*
X78853000Y-63127000D01*
X78853000Y-62873000D01*
X78873000Y-62873000D01*
X78873000Y-61673750D01*
X79127000Y-61673750D01*
X79127000Y-62873000D01*
X80326250Y-62873000D01*
X80485000Y-62714250D01*
X80485000Y-62023691D01*
X80388327Y-61790302D01*
X80209699Y-61611673D01*
X79976310Y-61515000D01*
X79285750Y-61515000D01*
X79127000Y-61673750D01*
X78873000Y-61673750D01*
X78714250Y-61515000D01*
X78023690Y-61515000D01*
X77790301Y-61611673D01*
X77611673Y-61790302D01*
X77515000Y-62023691D01*
X77515000Y-62121032D01*
X77433686Y-61999337D01*
X76986955Y-61700841D01*
X76460000Y-61596023D01*
X75933045Y-61700841D01*
X75486314Y-61999337D01*
X75190000Y-62442802D01*
X74893686Y-61999337D01*
X74446955Y-61700841D01*
X73920000Y-61596023D01*
X73393045Y-61700841D01*
X72946314Y-61999337D01*
X72647818Y-62446068D01*
X72543000Y-62973023D01*
X72543000Y-63026977D01*
X72647818Y-63553932D01*
X72946314Y-64000663D01*
X73293000Y-64232311D01*
X73293000Y-64620000D01*
X73340728Y-64859943D01*
X73434311Y-65000000D01*
X73476644Y-65063356D01*
X76656644Y-68243356D01*
X76860057Y-68379272D01*
X77100000Y-68427000D01*
X80486288Y-68427000D01*
X80340340Y-68572948D01*
X80236221Y-68572857D01*
X79932154Y-68698495D01*
X79699312Y-68930930D01*
X79573144Y-69234778D01*
X79572857Y-69563779D01*
X79659255Y-69772877D01*
X79636221Y-69772857D01*
X79569735Y-69800328D01*
X79369070Y-69599312D01*
X79065222Y-69473144D01*
X78736221Y-69472857D01*
X78432154Y-69598495D01*
X78199312Y-69830930D01*
X78073144Y-70134778D01*
X78073012Y-70286300D01*
X71343356Y-63556644D01*
X71339297Y-63553932D01*
X71139943Y-63420728D01*
X70900000Y-63373000D01*
X70057376Y-63373000D01*
X70041212Y-63291739D01*
X69796909Y-62926114D01*
X69431284Y-62681811D01*
X69000000Y-62596023D01*
X68568716Y-62681811D01*
X68203091Y-62926114D01*
X68065968Y-63131332D01*
X67829125Y-62818067D01*
X67409376Y-62571714D01*
X67317609Y-62556538D01*
X67127000Y-62681269D01*
X67127000Y-63873000D01*
X67147000Y-63873000D01*
X67147000Y-64127000D01*
X67127000Y-64127000D01*
X67127000Y-64147000D01*
X66873000Y-64147000D01*
X66873000Y-64127000D01*
X66853000Y-64127000D01*
X66853000Y-63873000D01*
X66873000Y-63873000D01*
X66873000Y-62681269D01*
X66682391Y-62556538D01*
X66590624Y-62571714D01*
X66170875Y-62818067D01*
X65934032Y-63131332D01*
X65796909Y-62926114D01*
X65431284Y-62681811D01*
X65000000Y-62596023D01*
X64568716Y-62681811D01*
X64203091Y-62926114D01*
X64118904Y-63052108D01*
X64100577Y-62954706D01*
X63985158Y-62775340D01*
X63809049Y-62655010D01*
X63600000Y-62612676D01*
X62400000Y-62612676D01*
X62204706Y-62649423D01*
X62025340Y-62764842D01*
X61905010Y-62940951D01*
X61862676Y-63150000D01*
X61862676Y-64850000D01*
X61899423Y-65045294D01*
X62014842Y-65224660D01*
X62190951Y-65344990D01*
X62400000Y-65387324D01*
X63600000Y-65387324D01*
X63795294Y-65350577D01*
X63974660Y-65235158D01*
X64094990Y-65059049D01*
X64117827Y-64946279D01*
X64203091Y-65073886D01*
X64415994Y-65216143D01*
X64420728Y-65239943D01*
X64546575Y-65428286D01*
X64556644Y-65443356D01*
X65656644Y-66543356D01*
X65860058Y-66679273D01*
X66100000Y-66727000D01*
X72040288Y-66727000D01*
X76973000Y-71659712D01*
X76973000Y-72857371D01*
X76899312Y-72930930D01*
X76773144Y-73234778D01*
X76772857Y-73563779D01*
X76797327Y-73623000D01*
X76162324Y-73623000D01*
X76162324Y-73500000D01*
X76125577Y-73304706D01*
X76010158Y-73125340D01*
X75921265Y-73064602D01*
X75984699Y-73038327D01*
X76163327Y-72859698D01*
X76260000Y-72626309D01*
X76260000Y-72285750D01*
X76101250Y-72127000D01*
X75127000Y-72127000D01*
X75127000Y-72147000D01*
X74873000Y-72147000D01*
X74873000Y-72127000D01*
X73127000Y-72127000D01*
X73127000Y-72147000D01*
X72873000Y-72147000D01*
X72873000Y-72127000D01*
X72853000Y-72127000D01*
X72853000Y-71873000D01*
X72873000Y-71873000D01*
X72873000Y-71023750D01*
X73127000Y-71023750D01*
X73127000Y-71873000D01*
X74873000Y-71873000D01*
X74873000Y-71023750D01*
X75127000Y-71023750D01*
X75127000Y-71873000D01*
X76101250Y-71873000D01*
X76260000Y-71714250D01*
X76260000Y-71373691D01*
X76163327Y-71140302D01*
X75984699Y-70961673D01*
X75751310Y-70865000D01*
X75285750Y-70865000D01*
X75127000Y-71023750D01*
X74873000Y-71023750D01*
X74714250Y-70865000D01*
X74248690Y-70865000D01*
X74015301Y-70961673D01*
X74000000Y-70976974D01*
X73984699Y-70961673D01*
X73751310Y-70865000D01*
X73285750Y-70865000D01*
X73127000Y-71023750D01*
X72873000Y-71023750D01*
X72714250Y-70865000D01*
X72248690Y-70865000D01*
X72015301Y-70961673D01*
X71836673Y-71140302D01*
X71813676Y-71195822D01*
X71650000Y-71162676D01*
X70350000Y-71162676D01*
X70154706Y-71199423D01*
X69975340Y-71314842D01*
X69855010Y-71490951D01*
X69812676Y-71700000D01*
X69812676Y-72400000D01*
X69849423Y-72595294D01*
X69964842Y-72774660D01*
X70140951Y-72894990D01*
X70350000Y-72937324D01*
X70650612Y-72937324D01*
X70775964Y-73062676D01*
X70350000Y-73062676D01*
X70154706Y-73099423D01*
X69975340Y-73214842D01*
X69855010Y-73390951D01*
X69812676Y-73600000D01*
X69812676Y-74300000D01*
X69849423Y-74495294D01*
X69964842Y-74674660D01*
X70140951Y-74794990D01*
X70173000Y-74801480D01*
X70173000Y-75162676D01*
X69432231Y-75162676D01*
X66604777Y-72335223D01*
X66336479Y-72155952D01*
X66020000Y-72093000D01*
X61827000Y-72093000D01*
X61827000Y-71996262D01*
X61999660Y-71885158D01*
X62119990Y-71709049D01*
X62162324Y-71500000D01*
X62162324Y-70500000D01*
X62125577Y-70304706D01*
X62010158Y-70125340D01*
X61921265Y-70064602D01*
X61984699Y-70038327D01*
X62163327Y-69859698D01*
X62260000Y-69626309D01*
X62260000Y-69285750D01*
X62101250Y-69127000D01*
X61127000Y-69127000D01*
X61127000Y-69147000D01*
X60873000Y-69147000D01*
X60873000Y-69127000D01*
X59898750Y-69127000D01*
X59740000Y-69285750D01*
X59740000Y-69626309D01*
X59836673Y-69859698D01*
X60015301Y-70038327D01*
X60078540Y-70064522D01*
X60000340Y-70114842D01*
X59880010Y-70290951D01*
X59837676Y-70500000D01*
X59837676Y-71500000D01*
X59874423Y-71695294D01*
X59949956Y-71812676D01*
X59062230Y-71812676D01*
X59009913Y-71760358D01*
X59037324Y-71625000D01*
X59037324Y-70375000D01*
X59000577Y-70179706D01*
X58885158Y-70000340D01*
X58777000Y-69926439D01*
X58777000Y-69885378D01*
X58794990Y-69859049D01*
X58837324Y-69650000D01*
X58837324Y-68373691D01*
X59740000Y-68373691D01*
X59740000Y-68714250D01*
X59898750Y-68873000D01*
X60873000Y-68873000D01*
X60873000Y-68023750D01*
X61127000Y-68023750D01*
X61127000Y-68873000D01*
X62101250Y-68873000D01*
X62260000Y-68714250D01*
X62260000Y-68373691D01*
X62163327Y-68140302D01*
X61984699Y-67961673D01*
X61751310Y-67865000D01*
X61285750Y-67865000D01*
X61127000Y-68023750D01*
X60873000Y-68023750D01*
X60714250Y-67865000D01*
X60248690Y-67865000D01*
X60015301Y-67961673D01*
X59836673Y-68140302D01*
X59740000Y-68373691D01*
X58837324Y-68373691D01*
X58837324Y-68350000D01*
X58800577Y-68154706D01*
X58758582Y-68089444D01*
X58838327Y-68009699D01*
X58935000Y-67776310D01*
X58935000Y-67285750D01*
X58776250Y-67127000D01*
X58077000Y-67127000D01*
X58077000Y-67147000D01*
X57823000Y-67147000D01*
X57823000Y-67127000D01*
X57123750Y-67127000D01*
X56965000Y-67285750D01*
X56965000Y-67776310D01*
X57061673Y-68009699D01*
X57140696Y-68088722D01*
X57105010Y-68140951D01*
X57062676Y-68350000D01*
X57062676Y-69650000D01*
X57099423Y-69845294D01*
X57123000Y-69881934D01*
X57123000Y-69993267D01*
X57005010Y-70165951D01*
X57001371Y-70183923D01*
X57000577Y-70179706D01*
X56885158Y-70000340D01*
X56826047Y-69959951D01*
X56894990Y-69859049D01*
X56937324Y-69650000D01*
X56937324Y-68350000D01*
X56900577Y-68154706D01*
X56799889Y-67998233D01*
X56894990Y-67859049D01*
X56937324Y-67650000D01*
X56937324Y-66350000D01*
X56913558Y-66223690D01*
X56965000Y-66223690D01*
X56965000Y-66714250D01*
X57123750Y-66873000D01*
X57823000Y-66873000D01*
X57823000Y-65873750D01*
X58077000Y-65873750D01*
X58077000Y-66873000D01*
X58776250Y-66873000D01*
X58935000Y-66714250D01*
X58935000Y-66223690D01*
X58838327Y-65990301D01*
X58659698Y-65811673D01*
X58426309Y-65715000D01*
X58235750Y-65715000D01*
X58077000Y-65873750D01*
X57823000Y-65873750D01*
X57664250Y-65715000D01*
X57473691Y-65715000D01*
X57240302Y-65811673D01*
X57061673Y-65990301D01*
X56965000Y-66223690D01*
X56913558Y-66223690D01*
X56900577Y-66154706D01*
X56785158Y-65975340D01*
X56609049Y-65855010D01*
X56400000Y-65812676D01*
X55700000Y-65812676D01*
X55504706Y-65849423D01*
X55325340Y-65964842D01*
X55205010Y-66140951D01*
X55162676Y-66350000D01*
X55162676Y-67650000D01*
X55199423Y-67845294D01*
X55300111Y-68001767D01*
X55205010Y-68140951D01*
X55162676Y-68350000D01*
X55162676Y-69650000D01*
X55199423Y-69845294D01*
X55243508Y-69913803D01*
X55125340Y-69989842D01*
X55005010Y-70165951D01*
X54962676Y-70375000D01*
X54962676Y-71625000D01*
X54999423Y-71820294D01*
X55114842Y-71999660D01*
X55267738Y-72104129D01*
X55184191Y-72187676D01*
X54570000Y-72187676D01*
X54374706Y-72224423D01*
X54195340Y-72339842D01*
X54075010Y-72515951D01*
X54032676Y-72725000D01*
X54032676Y-73375000D01*
X54069423Y-73570294D01*
X54184842Y-73749660D01*
X54360951Y-73869990D01*
X54570000Y-73912324D01*
X55630000Y-73912324D01*
X55825294Y-73875577D01*
X56004660Y-73760158D01*
X56124990Y-73584049D01*
X56167324Y-73375000D01*
X56167324Y-73260810D01*
X56514064Y-72914069D01*
X56514067Y-72914067D01*
X56671660Y-72678211D01*
X56688153Y-72595294D01*
X56727001Y-72400000D01*
X56727000Y-72399995D01*
X56727000Y-72105175D01*
X56874660Y-72010158D01*
X56994990Y-71834049D01*
X56998629Y-71816077D01*
X56999423Y-71820294D01*
X57096270Y-71970798D01*
X56980010Y-72140951D01*
X56937676Y-72350000D01*
X56937676Y-73490000D01*
X56974423Y-73685294D01*
X57089842Y-73864660D01*
X57265951Y-73984990D01*
X57335117Y-73998997D01*
X57279706Y-74009423D01*
X57103203Y-74123000D01*
X55804433Y-74123000D01*
X55630000Y-74087676D01*
X54570000Y-74087676D01*
X54374706Y-74124423D01*
X54195340Y-74239842D01*
X54075010Y-74415951D01*
X54032676Y-74625000D01*
X54032676Y-75275000D01*
X54069423Y-75470294D01*
X54184842Y-75649660D01*
X54360951Y-75769990D01*
X54570000Y-75812324D01*
X55630000Y-75812324D01*
X55817731Y-75777000D01*
X56961573Y-75777000D01*
X56974423Y-75845294D01*
X57089842Y-76024660D01*
X57265951Y-76144990D01*
X57475000Y-76187324D01*
X60525000Y-76187324D01*
X60720294Y-76150577D01*
X60899660Y-76035158D01*
X61019990Y-75859049D01*
X61062324Y-75650000D01*
X61062324Y-74510000D01*
X61025577Y-74314706D01*
X60910158Y-74135340D01*
X60734049Y-74015010D01*
X60664883Y-74001003D01*
X60720294Y-73990577D01*
X60899660Y-73875158D01*
X60987227Y-73747000D01*
X61673000Y-73747000D01*
X61673000Y-76276374D01*
X61665222Y-76273144D01*
X61336221Y-76272857D01*
X61032154Y-76398495D01*
X60957519Y-76473000D01*
X54259712Y-76473000D01*
X53572267Y-75785555D01*
X53625294Y-75775577D01*
X53804660Y-75660158D01*
X53924990Y-75484049D01*
X53967324Y-75275000D01*
X53967324Y-74685702D01*
X53968327Y-74684699D01*
X54065000Y-74451310D01*
X54065000Y-74285750D01*
X53906250Y-74127000D01*
X53624185Y-74127000D01*
X53430000Y-74087676D01*
X52370000Y-74087676D01*
X52182269Y-74123000D01*
X51850000Y-74123000D01*
X51533521Y-74185952D01*
X51265223Y-74365223D01*
X51260000Y-74370446D01*
X51260000Y-74285750D01*
X51101250Y-74127000D01*
X50127000Y-74127000D01*
X50127000Y-74147000D01*
X49873000Y-74147000D01*
X49873000Y-74127000D01*
X49853000Y-74127000D01*
X49853000Y-73873000D01*
X49873000Y-73873000D01*
X49873000Y-73853000D01*
X50127000Y-73853000D01*
X50127000Y-73873000D01*
X51101250Y-73873000D01*
X51260000Y-73714250D01*
X51260000Y-73677000D01*
X51735000Y-73677000D01*
X51735000Y-73714250D01*
X51893750Y-73873000D01*
X52175815Y-73873000D01*
X52370000Y-73912324D01*
X53430000Y-73912324D01*
X53625294Y-73875577D01*
X53629299Y-73873000D01*
X53906250Y-73873000D01*
X54065000Y-73714250D01*
X54065000Y-73548690D01*
X53968327Y-73315301D01*
X53967324Y-73314298D01*
X53967324Y-72725000D01*
X53930577Y-72529706D01*
X53815158Y-72350340D01*
X53639049Y-72230010D01*
X53430000Y-72187676D01*
X52370000Y-72187676D01*
X52174706Y-72224423D01*
X51995340Y-72339842D01*
X51938521Y-72423000D01*
X50935000Y-72423000D01*
X50935000Y-72285750D01*
X50776250Y-72127000D01*
X50077000Y-72127000D01*
X50077000Y-72147000D01*
X49823000Y-72147000D01*
X49823000Y-72127000D01*
X49123750Y-72127000D01*
X48965000Y-72285750D01*
X48965000Y-72423000D01*
X48937324Y-72423000D01*
X48937324Y-71350000D01*
X48913558Y-71223690D01*
X48965000Y-71223690D01*
X48965000Y-71714250D01*
X49123750Y-71873000D01*
X49823000Y-71873000D01*
X49823000Y-70873750D01*
X50077000Y-70873750D01*
X50077000Y-71873000D01*
X50776250Y-71873000D01*
X50935000Y-71714250D01*
X50935000Y-71223690D01*
X50838327Y-70990301D01*
X50659698Y-70811673D01*
X50426309Y-70715000D01*
X50235750Y-70715000D01*
X50077000Y-70873750D01*
X49823000Y-70873750D01*
X49664250Y-70715000D01*
X49473691Y-70715000D01*
X49240302Y-70811673D01*
X49061673Y-70990301D01*
X48965000Y-71223690D01*
X48913558Y-71223690D01*
X48900577Y-71154706D01*
X48785158Y-70975340D01*
X48609049Y-70855010D01*
X48400000Y-70812676D01*
X47700000Y-70812676D01*
X47504706Y-70849423D01*
X47325340Y-70964842D01*
X47205010Y-71140951D01*
X47162676Y-71350000D01*
X47162676Y-72373000D01*
X44904019Y-72373000D01*
X44900577Y-72354706D01*
X44785158Y-72175340D01*
X44609049Y-72055010D01*
X44400000Y-72012676D01*
X43600000Y-72012676D01*
X43404706Y-72049423D01*
X43225340Y-72164842D01*
X43105010Y-72340951D01*
X43062676Y-72550000D01*
X43062676Y-73173000D01*
X42742555Y-73173000D01*
X42285777Y-72716223D01*
X42017479Y-72536952D01*
X42003358Y-72534143D01*
X41846409Y-72154297D01*
X41276702Y-71583595D01*
X40531964Y-71274353D01*
X39725574Y-71273649D01*
X38980297Y-71581591D01*
X38409595Y-72151298D01*
X38100353Y-72896036D01*
X38099649Y-73702426D01*
X38407591Y-74447703D01*
X38977298Y-75018405D01*
X39722036Y-75327647D01*
X40528426Y-75328351D01*
X41273703Y-75020409D01*
X41762705Y-74532260D01*
X41815222Y-74584777D01*
X42072440Y-74756644D01*
X42083521Y-74764048D01*
X42112676Y-74769847D01*
X42112676Y-75450000D01*
X42149423Y-75645294D01*
X42264842Y-75824660D01*
X42399842Y-75916901D01*
X42325340Y-75964842D01*
X42205010Y-76140951D01*
X42162676Y-76350000D01*
X42162676Y-77333638D01*
X42016479Y-77235952D01*
X41865075Y-77205836D01*
X41719409Y-76853297D01*
X41149702Y-76282595D01*
X40404964Y-75973353D01*
X39598574Y-75972649D01*
X38853297Y-76280591D01*
X38282595Y-76850298D01*
X38148598Y-77173000D01*
X37842555Y-77173000D01*
X37027000Y-76357446D01*
X37027000Y-71242554D01*
X37287455Y-70982099D01*
X37314842Y-71024660D01*
X37490951Y-71144990D01*
X37700000Y-71187324D01*
X38400000Y-71187324D01*
X38595294Y-71150577D01*
X38774660Y-71035158D01*
X38894990Y-70859049D01*
X38937324Y-70650000D01*
X38937324Y-69350000D01*
X38900577Y-69154706D01*
X38785158Y-68975340D01*
X38609049Y-68855010D01*
X38400000Y-68812676D01*
X37700000Y-68812676D01*
X37504706Y-68849423D01*
X37325340Y-68964842D01*
X37205010Y-69140951D01*
X37198520Y-69173000D01*
X37100000Y-69173000D01*
X36867456Y-69219256D01*
X37509712Y-68577000D01*
X38901999Y-68577000D01*
X38964842Y-68674660D01*
X39140951Y-68794990D01*
X39350000Y-68837324D01*
X39469007Y-68837324D01*
X39404706Y-68849423D01*
X39225340Y-68964842D01*
X39105010Y-69140951D01*
X39062676Y-69350000D01*
X39062676Y-70650000D01*
X39099423Y-70845294D01*
X39214842Y-71024660D01*
X39390951Y-71144990D01*
X39600000Y-71187324D01*
X40300000Y-71187324D01*
X40495294Y-71150577D01*
X40674660Y-71035158D01*
X40794990Y-70859049D01*
X40801480Y-70827000D01*
X41600000Y-70827000D01*
X41916479Y-70764048D01*
X42184777Y-70584777D01*
X42684777Y-70084777D01*
X42864048Y-69816479D01*
X42927000Y-69500000D01*
X42927000Y-68842554D01*
X42943575Y-68825980D01*
X42971954Y-68825980D01*
X43291770Y-69039675D01*
X43722840Y-69125420D01*
X44277160Y-69125420D01*
X44708230Y-69039675D01*
X45073673Y-68795493D01*
X45317855Y-68430050D01*
X45403600Y-67998980D01*
X45317855Y-67567910D01*
X45073673Y-67202467D01*
X44769897Y-66999490D01*
X45073673Y-66796513D01*
X45317855Y-66431070D01*
X45403600Y-66000000D01*
X45317855Y-65568930D01*
X45073673Y-65203487D01*
X45065811Y-65198234D01*
X45209329Y-65138787D01*
X45387957Y-64960158D01*
X45484630Y-64726769D01*
X45484630Y-64286770D01*
X45325880Y-64128020D01*
X44127000Y-64128020D01*
X44127000Y-64148020D01*
X43873000Y-64148020D01*
X43873000Y-64128020D01*
X42674120Y-64128020D01*
X42515370Y-64286770D01*
X42515370Y-64726769D01*
X42612043Y-64960158D01*
X42790671Y-65138787D01*
X42934189Y-65198234D01*
X42926327Y-65203487D01*
X42813062Y-65373000D01*
X41065826Y-65373000D01*
X41035158Y-65325340D01*
X40859049Y-65205010D01*
X40650000Y-65162676D01*
X40627000Y-65162676D01*
X40627000Y-64837324D01*
X40650000Y-64837324D01*
X40845294Y-64800577D01*
X41024660Y-64685158D01*
X41144990Y-64509049D01*
X41187324Y-64300000D01*
X41187324Y-63600000D01*
X41150577Y-63404706D01*
X41067288Y-63275271D01*
X42515370Y-63275271D01*
X42515370Y-63715270D01*
X42674120Y-63874020D01*
X43873000Y-63874020D01*
X43873000Y-62925330D01*
X44127000Y-62925330D01*
X44127000Y-63874020D01*
X45325880Y-63874020D01*
X45484630Y-63715270D01*
X45484630Y-63275271D01*
X45387957Y-63041882D01*
X45209329Y-62863253D01*
X44975940Y-62766580D01*
X44285750Y-62766580D01*
X44127000Y-62925330D01*
X43873000Y-62925330D01*
X43714250Y-62766580D01*
X43024060Y-62766580D01*
X42790671Y-62863253D01*
X42612043Y-63041882D01*
X42515370Y-63275271D01*
X41067288Y-63275271D01*
X41035158Y-63225340D01*
X40859049Y-63105010D01*
X40650000Y-63062676D01*
X39350000Y-63062676D01*
X39154706Y-63099423D01*
X38975340Y-63214842D01*
X38855010Y-63390951D01*
X38812676Y-63600000D01*
X38812676Y-64300000D01*
X38849423Y-64495294D01*
X38964842Y-64674660D01*
X39140951Y-64794990D01*
X39350000Y-64837324D01*
X39373000Y-64837324D01*
X39373000Y-65162676D01*
X39350000Y-65162676D01*
X39154706Y-65199423D01*
X38975340Y-65314842D01*
X38855010Y-65490951D01*
X38812676Y-65700000D01*
X38812676Y-66400000D01*
X38849423Y-66595294D01*
X38964842Y-66774660D01*
X39140951Y-66894990D01*
X39350000Y-66937324D01*
X40650000Y-66937324D01*
X40845294Y-66900577D01*
X41024660Y-66785158D01*
X41132725Y-66627000D01*
X42813062Y-66627000D01*
X42926327Y-66796513D01*
X43230103Y-66999490D01*
X42971954Y-67171980D01*
X42601020Y-67171980D01*
X42284541Y-67234932D01*
X42016242Y-67414203D01*
X41515223Y-67915223D01*
X41335952Y-68183521D01*
X41273000Y-68500000D01*
X41273000Y-69157446D01*
X41257446Y-69173000D01*
X40804019Y-69173000D01*
X40800577Y-69154706D01*
X40685158Y-68975340D01*
X40509049Y-68855010D01*
X40421714Y-68837324D01*
X40650000Y-68837324D01*
X40845294Y-68800577D01*
X41024660Y-68685158D01*
X41144990Y-68509049D01*
X41187324Y-68300000D01*
X41187324Y-67600000D01*
X41150577Y-67404706D01*
X41035158Y-67225340D01*
X40859049Y-67105010D01*
X40650000Y-67062676D01*
X39350000Y-67062676D01*
X39154706Y-67099423D01*
X38975340Y-67214842D01*
X38901439Y-67323000D01*
X37250000Y-67323000D01*
X37010057Y-67370728D01*
X36806644Y-67506644D01*
X34956644Y-69356644D01*
X34820728Y-69560057D01*
X34773000Y-69800000D01*
X31745896Y-69800000D01*
X31624702Y-69678595D01*
X30879964Y-69369353D01*
X30073574Y-69368649D01*
X29328297Y-69676591D01*
X29127000Y-69877537D01*
X29127000Y-66740910D01*
X29438695Y-66740910D01*
X29805640Y-67236343D01*
X31211171Y-67829736D01*
X32736793Y-67840087D01*
X34150246Y-67265819D01*
X34194360Y-67236343D01*
X34561305Y-66740910D01*
X32000000Y-64179605D01*
X29438695Y-66740910D01*
X29127000Y-66740910D01*
X29127000Y-66463472D01*
X29259090Y-66561305D01*
X31820395Y-64000000D01*
X32179605Y-64000000D01*
X34740910Y-66561305D01*
X35236343Y-66194360D01*
X35829736Y-64788829D01*
X35840087Y-63263207D01*
X35463274Y-62335750D01*
X38715000Y-62335750D01*
X38715000Y-62526309D01*
X38811673Y-62759698D01*
X38990301Y-62938327D01*
X39223690Y-63035000D01*
X39714250Y-63035000D01*
X39873000Y-62876250D01*
X39873000Y-62177000D01*
X40127000Y-62177000D01*
X40127000Y-62876250D01*
X40285750Y-63035000D01*
X40776310Y-63035000D01*
X41009699Y-62938327D01*
X41188327Y-62759698D01*
X41285000Y-62526309D01*
X41285000Y-62335750D01*
X41126250Y-62177000D01*
X40127000Y-62177000D01*
X39873000Y-62177000D01*
X38873750Y-62177000D01*
X38715000Y-62335750D01*
X35463274Y-62335750D01*
X35265819Y-61849754D01*
X35236343Y-61805640D01*
X34740910Y-61438695D01*
X32179605Y-64000000D01*
X31820395Y-64000000D01*
X29259090Y-61438695D01*
X29127000Y-61536528D01*
X29127000Y-61127000D01*
X29536528Y-61127000D01*
X29438695Y-61259090D01*
X29438695Y-61259090D01*
G37*
X29438695Y-61259090D02*
X32000000Y-63820395D01*
X34561305Y-61259090D01*
X34463472Y-61127000D01*
X39074009Y-61127000D01*
X38990301Y-61161673D01*
X38811673Y-61340302D01*
X38715000Y-61573691D01*
X38715000Y-61764250D01*
X38873750Y-61923000D01*
X39873000Y-61923000D01*
X39873000Y-61903000D01*
X40127000Y-61903000D01*
X40127000Y-61923000D01*
X41126250Y-61923000D01*
X41285000Y-61764250D01*
X41285000Y-61573691D01*
X41188327Y-61340302D01*
X41009699Y-61161673D01*
X40925991Y-61127000D01*
X91536528Y-61127000D01*
X91438695Y-61259090D01*
X94000000Y-63820395D01*
X96561305Y-61259090D01*
X96463472Y-61127000D01*
X96873000Y-61127000D01*
X96873000Y-61536528D01*
X96740910Y-61438695D01*
X94179605Y-64000000D01*
X96740910Y-66561305D01*
X96873000Y-66463472D01*
X96873000Y-103536528D01*
X96740910Y-103438695D01*
X94179605Y-106000000D01*
X96740910Y-108561305D01*
X96873000Y-108463472D01*
X96873000Y-108873000D01*
X96463472Y-108873000D01*
X96561305Y-108740910D01*
X94000000Y-106179605D01*
X91438695Y-108740910D01*
X91536528Y-108873000D01*
X34463472Y-108873000D01*
X34561305Y-108740910D01*
X32000000Y-106179605D01*
X29438695Y-108740910D01*
X29536528Y-108873000D01*
X29127000Y-108873000D01*
X29127000Y-108463472D01*
X29259090Y-108561305D01*
X31820395Y-106000000D01*
X32179605Y-106000000D01*
X34740910Y-108561305D01*
X35236343Y-108194360D01*
X35829736Y-106788829D01*
X35830450Y-106683583D01*
X59072839Y-106683583D01*
X59213669Y-107024417D01*
X59474211Y-107285414D01*
X59814799Y-107426839D01*
X60183583Y-107427161D01*
X60524417Y-107286331D01*
X60785414Y-107025789D01*
X60905416Y-106736793D01*
X90159913Y-106736793D01*
X90734181Y-108150246D01*
X90763657Y-108194360D01*
X91259090Y-108561305D01*
X93820395Y-106000000D01*
X91259090Y-103438695D01*
X90763657Y-103805640D01*
X90170264Y-105211171D01*
X90159913Y-106736793D01*
X60905416Y-106736793D01*
X60926839Y-106685201D01*
X60927161Y-106316417D01*
X60786331Y-105975583D01*
X60525789Y-105714586D01*
X60185201Y-105573161D01*
X59816417Y-105572839D01*
X59475583Y-105713669D01*
X59214586Y-105974211D01*
X59073161Y-106314799D01*
X59072839Y-106683583D01*
X35830450Y-106683583D01*
X35840087Y-105263207D01*
X35795122Y-105152532D01*
X38027073Y-105152532D01*
X38125736Y-105419387D01*
X38735461Y-105645908D01*
X39385460Y-105621856D01*
X39874264Y-105419387D01*
X39972927Y-105152532D01*
X50027073Y-105152532D01*
X50125736Y-105419387D01*
X50735461Y-105645908D01*
X51385460Y-105621856D01*
X51874264Y-105419387D01*
X51972927Y-105152532D01*
X51000000Y-104179605D01*
X50027073Y-105152532D01*
X39972927Y-105152532D01*
X39000000Y-104179605D01*
X38027073Y-105152532D01*
X35795122Y-105152532D01*
X35265819Y-103849754D01*
X35236343Y-103805640D01*
X35141591Y-103735461D01*
X37354092Y-103735461D01*
X37378144Y-104385460D01*
X37580613Y-104874264D01*
X37847468Y-104972927D01*
X38820395Y-104000000D01*
X39179605Y-104000000D01*
X40152532Y-104972927D01*
X40419387Y-104874264D01*
X40645908Y-104264539D01*
X40626331Y-103735461D01*
X49354092Y-103735461D01*
X49378144Y-104385460D01*
X49580613Y-104874264D01*
X49847468Y-104972927D01*
X50820395Y-104000000D01*
X51179605Y-104000000D01*
X52152532Y-104972927D01*
X52419387Y-104874264D01*
X52645908Y-104264539D01*
X52621856Y-103614540D01*
X52419387Y-103125736D01*
X52152532Y-103027073D01*
X51179605Y-104000000D01*
X50820395Y-104000000D01*
X49847468Y-103027073D01*
X49580613Y-103125736D01*
X49354092Y-103735461D01*
X40626331Y-103735461D01*
X40621856Y-103614540D01*
X40419387Y-103125736D01*
X40152532Y-103027073D01*
X39179605Y-104000000D01*
X38820395Y-104000000D01*
X37847468Y-103027073D01*
X37580613Y-103125736D01*
X37354092Y-103735461D01*
X35141591Y-103735461D01*
X34740910Y-103438695D01*
X32179605Y-106000000D01*
X31820395Y-106000000D01*
X29259090Y-103438695D01*
X29127000Y-103536528D01*
X29127000Y-103259090D01*
X29438695Y-103259090D01*
X32000000Y-105820395D01*
X34561305Y-103259090D01*
X34256436Y-102847468D01*
X38027073Y-102847468D01*
X39000000Y-103820395D01*
X39972927Y-102847468D01*
X50027073Y-102847468D01*
X51000000Y-103820395D01*
X51972927Y-102847468D01*
X51874264Y-102580613D01*
X51264539Y-102354092D01*
X50614540Y-102378144D01*
X50125736Y-102580613D01*
X50027073Y-102847468D01*
X39972927Y-102847468D01*
X39874264Y-102580613D01*
X39264539Y-102354092D01*
X38614540Y-102378144D01*
X38125736Y-102580613D01*
X38027073Y-102847468D01*
X34256436Y-102847468D01*
X34194360Y-102763657D01*
X32788829Y-102170264D01*
X31263207Y-102159913D01*
X29849754Y-102734181D01*
X29805640Y-102763657D01*
X29438695Y-103259090D01*
X29127000Y-103259090D01*
X29127000Y-98000000D01*
X37462676Y-98000000D01*
X37462676Y-100000000D01*
X37499423Y-100195294D01*
X37614842Y-100374660D01*
X37790951Y-100494990D01*
X38000000Y-100537324D01*
X40000000Y-100537324D01*
X40195294Y-100500577D01*
X40374660Y-100385158D01*
X40494990Y-100209049D01*
X40537324Y-100000000D01*
X40537324Y-99302407D01*
X49472735Y-99302407D01*
X49704717Y-99863846D01*
X50133894Y-100293773D01*
X50694928Y-100526735D01*
X51302407Y-100527265D01*
X51863846Y-100295283D01*
X52293773Y-99866106D01*
X52526735Y-99305072D01*
X52527265Y-98697593D01*
X52295283Y-98136154D01*
X51866106Y-97706227D01*
X51305072Y-97473265D01*
X50697593Y-97472735D01*
X50136154Y-97704717D01*
X49706227Y-98133894D01*
X49473265Y-98694928D01*
X49472735Y-99302407D01*
X40537324Y-99302407D01*
X40537324Y-98000000D01*
X40500577Y-97804706D01*
X40385158Y-97625340D01*
X40209049Y-97505010D01*
X40000000Y-97462676D01*
X38000000Y-97462676D01*
X37804706Y-97499423D01*
X37625340Y-97614842D01*
X37505010Y-97790951D01*
X37462676Y-98000000D01*
X29127000Y-98000000D01*
X29127000Y-97720830D01*
X29173000Y-97735000D01*
X29523000Y-97735000D01*
X29523000Y-96627000D01*
X29777000Y-96627000D01*
X29777000Y-97735000D01*
X30127000Y-97735000D01*
X30589947Y-97592390D01*
X30963080Y-97283474D01*
X31189592Y-96855281D01*
X31193462Y-96817609D01*
X31068731Y-96627000D01*
X29777000Y-96627000D01*
X29523000Y-96627000D01*
X29503000Y-96627000D01*
X29503000Y-96453398D01*
X31576207Y-96453398D01*
X31641122Y-96691753D01*
X32151146Y-96872312D01*
X32691444Y-96843949D01*
X33058878Y-96691753D01*
X33123793Y-96453398D01*
X32350000Y-95679605D01*
X31576207Y-96453398D01*
X29503000Y-96453398D01*
X29503000Y-96373000D01*
X29523000Y-96373000D01*
X29523000Y-95265000D01*
X29777000Y-95265000D01*
X29777000Y-96373000D01*
X31068731Y-96373000D01*
X31173424Y-96213012D01*
X31396602Y-96273793D01*
X32170395Y-95500000D01*
X32529605Y-95500000D01*
X33303398Y-96273793D01*
X33541753Y-96208878D01*
X33722312Y-95698854D01*
X33693949Y-95158556D01*
X33541753Y-94791122D01*
X33303398Y-94726207D01*
X32529605Y-95500000D01*
X32170395Y-95500000D01*
X31396602Y-94726207D01*
X31158247Y-94791122D01*
X30977688Y-95301146D01*
X31003505Y-95792945D01*
X30963080Y-95716526D01*
X30589947Y-95407610D01*
X30127000Y-95265000D01*
X29777000Y-95265000D01*
X29523000Y-95265000D01*
X29173000Y-95265000D01*
X29127000Y-95279170D01*
X29127000Y-94546602D01*
X31576207Y-94546602D01*
X32350000Y-95320395D01*
X33123793Y-94546602D01*
X33058878Y-94308247D01*
X32548854Y-94127688D01*
X32008556Y-94156051D01*
X31641122Y-94308247D01*
X31576207Y-94546602D01*
X29127000Y-94546602D01*
X29127000Y-91453398D01*
X31576207Y-91453398D01*
X31641122Y-91691753D01*
X32151146Y-91872312D01*
X32691444Y-91843949D01*
X33058878Y-91691753D01*
X33123793Y-91453398D01*
X32350000Y-90679605D01*
X31576207Y-91453398D01*
X29127000Y-91453398D01*
X29127000Y-90720830D01*
X29173000Y-90735000D01*
X29523000Y-90735000D01*
X29523000Y-89627000D01*
X29777000Y-89627000D01*
X29777000Y-90735000D01*
X30127000Y-90735000D01*
X30589947Y-90592390D01*
X30963080Y-90283474D01*
X31026158Y-90164232D01*
X30977688Y-90301146D01*
X31006051Y-90841444D01*
X31158247Y-91208878D01*
X31396602Y-91273793D01*
X32170395Y-90500000D01*
X32529605Y-90500000D01*
X33303398Y-91273793D01*
X33541753Y-91208878D01*
X33722312Y-90698854D01*
X33693949Y-90158556D01*
X33541753Y-89791122D01*
X33303398Y-89726207D01*
X32529605Y-90500000D01*
X32170395Y-90500000D01*
X31396602Y-89726207D01*
X31173424Y-89786988D01*
X31068731Y-89627000D01*
X29777000Y-89627000D01*
X29523000Y-89627000D01*
X29503000Y-89627000D01*
X29503000Y-89546602D01*
X31576207Y-89546602D01*
X32350000Y-90320395D01*
X33123793Y-89546602D01*
X33058878Y-89308247D01*
X32548854Y-89127688D01*
X32008556Y-89156051D01*
X31641122Y-89308247D01*
X31576207Y-89546602D01*
X29503000Y-89546602D01*
X29503000Y-89373000D01*
X29523000Y-89373000D01*
X29523000Y-88265000D01*
X29777000Y-88265000D01*
X29777000Y-89373000D01*
X31068731Y-89373000D01*
X31193462Y-89182391D01*
X31189592Y-89144719D01*
X30963080Y-88716526D01*
X30943119Y-88700000D01*
X39812676Y-88700000D01*
X39812676Y-89400000D01*
X39849423Y-89595294D01*
X39964842Y-89774660D01*
X40140951Y-89894990D01*
X40350000Y-89937324D01*
X41650000Y-89937324D01*
X41845294Y-89900577D01*
X42024660Y-89785158D01*
X42144990Y-89609049D01*
X42187324Y-89400000D01*
X42187324Y-88700000D01*
X44812676Y-88700000D01*
X44812676Y-89400000D01*
X44849423Y-89595294D01*
X44964842Y-89774660D01*
X45140951Y-89894990D01*
X45350000Y-89937324D01*
X46650000Y-89937324D01*
X46845294Y-89900577D01*
X47024660Y-89785158D01*
X47144990Y-89609049D01*
X47187324Y-89400000D01*
X47187324Y-88700000D01*
X47150577Y-88504706D01*
X47035158Y-88325340D01*
X46859049Y-88205010D01*
X46697464Y-88172288D01*
X46700688Y-88169070D01*
X46826856Y-87865222D01*
X46827143Y-87536221D01*
X46701505Y-87232154D01*
X46469070Y-86999312D01*
X46165222Y-86873144D01*
X45836221Y-86872857D01*
X45532154Y-86998495D01*
X45299312Y-87230930D01*
X45173144Y-87534778D01*
X45172857Y-87863779D01*
X45298495Y-88167846D01*
X45302295Y-88171652D01*
X45154706Y-88199423D01*
X44975340Y-88314842D01*
X44855010Y-88490951D01*
X44812676Y-88700000D01*
X42187324Y-88700000D01*
X42150577Y-88504706D01*
X42035158Y-88325340D01*
X41859049Y-88205010D01*
X41650000Y-88162676D01*
X41627000Y-88162676D01*
X41627000Y-88159701D01*
X41767846Y-88101505D01*
X42000688Y-87869070D01*
X42126856Y-87565222D01*
X42127143Y-87236221D01*
X42001505Y-86932154D01*
X41769070Y-86699312D01*
X41465222Y-86573144D01*
X41136221Y-86572857D01*
X40832154Y-86698495D01*
X40599312Y-86930930D01*
X40473144Y-87234778D01*
X40473016Y-87381803D01*
X40420728Y-87460057D01*
X40373000Y-87700000D01*
X40373000Y-88162676D01*
X40350000Y-88162676D01*
X40154706Y-88199423D01*
X39975340Y-88314842D01*
X39855010Y-88490951D01*
X39812676Y-88700000D01*
X30943119Y-88700000D01*
X30589947Y-88407610D01*
X30127000Y-88265000D01*
X29777000Y-88265000D01*
X29523000Y-88265000D01*
X29173000Y-88265000D01*
X29127000Y-88279170D01*
X29127000Y-86122761D01*
X29325298Y-86321405D01*
X30070036Y-86630647D01*
X30876426Y-86631351D01*
X31621703Y-86323409D01*
X32192405Y-85753702D01*
X32501647Y-85008964D01*
X32502351Y-84202574D01*
X32194409Y-83457297D01*
X31624702Y-82886595D01*
X30879964Y-82577353D01*
X30073574Y-82576649D01*
X29328297Y-82884591D01*
X29127000Y-83085537D01*
X29127000Y-72914761D01*
X29325298Y-73113405D01*
X30070036Y-73422647D01*
X30876426Y-73423351D01*
X31621703Y-73115409D01*
X32192405Y-72545702D01*
X32501647Y-71800964D01*
X32502351Y-70994574D01*
X32194409Y-70249297D01*
X31745896Y-69800000D01*
X34773000Y-69800000D01*
X34773000Y-77200000D01*
X34820728Y-77439943D01*
X34943043Y-77623000D01*
X34956644Y-77643356D01*
X37856644Y-80543356D01*
X38060057Y-80679272D01*
X38300000Y-80727000D01*
X39591614Y-80727000D01*
X38980297Y-80979591D01*
X38409595Y-81549298D01*
X38100353Y-82294036D01*
X38099649Y-83100426D01*
X38407591Y-83845703D01*
X38977298Y-84416405D01*
X39722036Y-84725647D01*
X40528426Y-84726351D01*
X41273703Y-84418409D01*
X41844405Y-83848702D01*
X42153647Y-83103964D01*
X42154139Y-82540851D01*
X43056644Y-83443356D01*
X43260057Y-83579272D01*
X43500000Y-83627000D01*
X45473064Y-83627000D01*
X45472857Y-83863779D01*
X45598495Y-84167846D01*
X45830930Y-84400688D01*
X46134778Y-84526856D01*
X46463779Y-84527143D01*
X46683121Y-84436513D01*
X46739842Y-84524660D01*
X46823000Y-84581479D01*
X46823000Y-85400000D01*
X46870728Y-85639943D01*
X46995619Y-85826856D01*
X47006644Y-85843356D01*
X47162676Y-85999388D01*
X47162676Y-86650000D01*
X47199423Y-86845294D01*
X47314842Y-87024660D01*
X47490951Y-87144990D01*
X47700000Y-87187324D01*
X48400000Y-87187324D01*
X48595294Y-87150577D01*
X48774660Y-87035158D01*
X48894990Y-86859049D01*
X48937324Y-86650000D01*
X48937324Y-86285750D01*
X48965000Y-86285750D01*
X48965000Y-86776310D01*
X49061673Y-87009699D01*
X49240302Y-87188327D01*
X49473691Y-87285000D01*
X49664250Y-87285000D01*
X49823000Y-87126250D01*
X49823000Y-86127000D01*
X49123750Y-86127000D01*
X48965000Y-86285750D01*
X48937324Y-86285750D01*
X48937324Y-85350000D01*
X48900577Y-85154706D01*
X48785158Y-84975340D01*
X48609049Y-84855010D01*
X48400000Y-84812676D01*
X48077000Y-84812676D01*
X48077000Y-84747353D01*
X48225000Y-84777324D01*
X49323228Y-84777324D01*
X49240302Y-84811673D01*
X49061673Y-84990301D01*
X48965000Y-85223690D01*
X48965000Y-85714250D01*
X49123750Y-85873000D01*
X49823000Y-85873000D01*
X49823000Y-85853000D01*
X50077000Y-85853000D01*
X50077000Y-85873000D01*
X50097000Y-85873000D01*
X50097000Y-86127000D01*
X50077000Y-86127000D01*
X50077000Y-87126250D01*
X50235750Y-87285000D01*
X50373000Y-87285000D01*
X50373000Y-88162676D01*
X50350000Y-88162676D01*
X50154706Y-88199423D01*
X49975340Y-88314842D01*
X49855010Y-88490951D01*
X49812676Y-88700000D01*
X49812676Y-89400000D01*
X49849423Y-89595294D01*
X49964842Y-89774660D01*
X50140951Y-89894990D01*
X50350000Y-89937324D01*
X51650000Y-89937324D01*
X51845294Y-89900577D01*
X51873000Y-89882749D01*
X51873000Y-90114542D01*
X51859049Y-90105010D01*
X51650000Y-90062676D01*
X50350000Y-90062676D01*
X50154706Y-90099423D01*
X49975340Y-90214842D01*
X49951096Y-90250325D01*
X49765222Y-90173144D01*
X49436221Y-90172857D01*
X49132154Y-90298495D01*
X48899312Y-90530930D01*
X48773144Y-90834778D01*
X48772857Y-91163779D01*
X48898495Y-91467846D01*
X49130930Y-91700688D01*
X49434778Y-91826856D01*
X49763779Y-91827143D01*
X50028141Y-91717911D01*
X50140951Y-91794990D01*
X50350000Y-91837324D01*
X50373000Y-91837324D01*
X50373000Y-93700000D01*
X50420728Y-93939943D01*
X50546175Y-94127688D01*
X50556644Y-94143356D01*
X51086288Y-94673000D01*
X47559712Y-94673000D01*
X46627000Y-93740288D01*
X46627000Y-91837324D01*
X46650000Y-91837324D01*
X46845294Y-91800577D01*
X47024660Y-91685158D01*
X47144990Y-91509049D01*
X47187324Y-91300000D01*
X47187324Y-90600000D01*
X47150577Y-90404706D01*
X47035158Y-90225340D01*
X46859049Y-90105010D01*
X46650000Y-90062676D01*
X45350000Y-90062676D01*
X45154706Y-90099423D01*
X44980962Y-90211225D01*
X44969070Y-90199312D01*
X44665222Y-90073144D01*
X44336221Y-90072857D01*
X44032154Y-90198495D01*
X43799312Y-90430930D01*
X43673144Y-90734778D01*
X43672857Y-91063779D01*
X43798495Y-91367846D01*
X44030930Y-91600688D01*
X44334778Y-91726856D01*
X44663779Y-91727143D01*
X44928286Y-91617851D01*
X44964842Y-91674660D01*
X45140951Y-91794990D01*
X45350000Y-91837324D01*
X45373000Y-91837324D01*
X45373000Y-94000000D01*
X45420728Y-94239943D01*
X45542819Y-94422665D01*
X45556644Y-94443356D01*
X46186288Y-95073000D01*
X44659712Y-95073000D01*
X41627000Y-92040288D01*
X41627000Y-91926936D01*
X41863779Y-91927143D01*
X42167846Y-91801505D01*
X42400688Y-91569070D01*
X42526856Y-91265222D01*
X42527143Y-90936221D01*
X42401505Y-90632154D01*
X42169070Y-90399312D01*
X42139098Y-90386866D01*
X42035158Y-90225340D01*
X41859049Y-90105010D01*
X41650000Y-90062676D01*
X40350000Y-90062676D01*
X40154706Y-90099423D01*
X39975340Y-90214842D01*
X39855010Y-90390951D01*
X39812676Y-90600000D01*
X39812676Y-91300000D01*
X39849423Y-91495294D01*
X39964842Y-91674660D01*
X40140951Y-91794990D01*
X40350000Y-91837324D01*
X40373000Y-91837324D01*
X40373000Y-92300000D01*
X40420728Y-92539943D01*
X40528134Y-92700688D01*
X40556644Y-92743356D01*
X43956644Y-96143356D01*
X44160057Y-96279272D01*
X44400000Y-96327000D01*
X56000000Y-96327000D01*
X56239943Y-96279272D01*
X56443356Y-96143356D01*
X58773000Y-93813712D01*
X58773000Y-95300000D01*
X58820728Y-95539943D01*
X58945715Y-95727000D01*
X58956644Y-95743356D01*
X59794983Y-96581695D01*
X59475583Y-96713669D01*
X59214586Y-96974211D01*
X59073161Y-97314799D01*
X59072839Y-97683583D01*
X59213669Y-98024417D01*
X59474211Y-98285414D01*
X59814799Y-98426839D01*
X60183583Y-98427161D01*
X60524417Y-98286331D01*
X60785414Y-98025789D01*
X60926839Y-97685201D01*
X60927161Y-97316417D01*
X60786331Y-96975583D01*
X60638007Y-96827000D01*
X71140288Y-96827000D01*
X73473000Y-99159712D01*
X73473000Y-100000000D01*
X73520728Y-100239943D01*
X73656644Y-100443356D01*
X74586288Y-101373000D01*
X72100000Y-101373000D01*
X71860057Y-101420728D01*
X71741418Y-101500000D01*
X71656644Y-101556644D01*
X71540288Y-101673000D01*
X71387324Y-101673000D01*
X71387324Y-100150000D01*
X71350577Y-99954706D01*
X71235158Y-99775340D01*
X71059049Y-99655010D01*
X70850000Y-99612676D01*
X69150000Y-99612676D01*
X68954706Y-99649423D01*
X68775340Y-99764842D01*
X68655010Y-99940951D01*
X68612676Y-100150000D01*
X68612676Y-100373000D01*
X67209712Y-100373000D01*
X66837324Y-100000612D01*
X66837324Y-99350000D01*
X66800577Y-99154706D01*
X66685158Y-98975340D01*
X66509049Y-98855010D01*
X66300000Y-98812676D01*
X65600000Y-98812676D01*
X65404706Y-98849423D01*
X65225340Y-98964842D01*
X65105010Y-99140951D01*
X65062676Y-99350000D01*
X65062676Y-100650000D01*
X65099423Y-100845294D01*
X65214842Y-101024660D01*
X65390951Y-101144990D01*
X65600000Y-101187324D01*
X66250612Y-101187324D01*
X66506644Y-101443356D01*
X66710058Y-101579273D01*
X66950000Y-101627000D01*
X68612676Y-101627000D01*
X68612676Y-101673000D01*
X64700000Y-101673000D01*
X64460058Y-101720727D01*
X64256644Y-101856644D01*
X64026926Y-102086362D01*
X64027265Y-101697593D01*
X63816426Y-101187324D01*
X64400000Y-101187324D01*
X64595294Y-101150577D01*
X64774660Y-101035158D01*
X64894990Y-100859049D01*
X64937324Y-100650000D01*
X64937324Y-99350000D01*
X64900577Y-99154706D01*
X64785158Y-98975340D01*
X64777000Y-98969766D01*
X64777000Y-98892717D01*
X64800688Y-98869070D01*
X64926856Y-98565222D01*
X64927143Y-98236221D01*
X64801505Y-97932154D01*
X64569070Y-97699312D01*
X64265222Y-97573144D01*
X63936221Y-97572857D01*
X63632154Y-97698495D01*
X63399312Y-97930930D01*
X63273144Y-98234778D01*
X63272857Y-98563779D01*
X63323000Y-98685134D01*
X63323000Y-98968267D01*
X63205010Y-99140951D01*
X63178269Y-99273000D01*
X61822835Y-99273000D01*
X61800577Y-99154706D01*
X61685158Y-98975340D01*
X61509049Y-98855010D01*
X61300000Y-98812676D01*
X60600000Y-98812676D01*
X60404706Y-98849423D01*
X60225340Y-98964842D01*
X60105010Y-99140951D01*
X60062676Y-99350000D01*
X60062676Y-100650000D01*
X60099423Y-100845294D01*
X60214842Y-101024660D01*
X60390951Y-101144990D01*
X60600000Y-101187324D01*
X61184041Y-101187324D01*
X60973265Y-101694928D01*
X60972735Y-102302407D01*
X61204717Y-102863846D01*
X61313681Y-102973000D01*
X59359712Y-102973000D01*
X58928459Y-102541747D01*
X59026735Y-102305072D01*
X59027265Y-101697593D01*
X58928397Y-101458315D01*
X59199388Y-101187324D01*
X59400000Y-101187324D01*
X59595294Y-101150577D01*
X59774660Y-101035158D01*
X59894990Y-100859049D01*
X59937324Y-100650000D01*
X59937324Y-99350000D01*
X59900577Y-99154706D01*
X59785158Y-98975340D01*
X59609049Y-98855010D01*
X59400000Y-98812676D01*
X58700000Y-98812676D01*
X58504706Y-98849423D01*
X58325340Y-98964842D01*
X58205010Y-99140951D01*
X58162676Y-99350000D01*
X58162676Y-100450612D01*
X58041747Y-100571541D01*
X57805072Y-100473265D01*
X57197593Y-100472735D01*
X56636154Y-100704717D01*
X56206227Y-101133894D01*
X55973265Y-101694928D01*
X55972735Y-102302407D01*
X56204717Y-102863846D01*
X56633894Y-103293773D01*
X57194928Y-103526735D01*
X57802407Y-103527265D01*
X58041685Y-103428397D01*
X58656644Y-104043356D01*
X58860058Y-104179273D01*
X59100000Y-104227000D01*
X63400000Y-104227000D01*
X63639943Y-104179272D01*
X63843356Y-104043356D01*
X63989822Y-103896890D01*
X68558524Y-103896890D01*
X68728355Y-104306924D01*
X69118642Y-104735183D01*
X69643108Y-104981486D01*
X69873000Y-104860819D01*
X69873000Y-103667000D01*
X70127000Y-103667000D01*
X70127000Y-104860819D01*
X70356892Y-104981486D01*
X70881358Y-104735183D01*
X71271645Y-104306924D01*
X71441476Y-103896890D01*
X71320155Y-103667000D01*
X70127000Y-103667000D01*
X69873000Y-103667000D01*
X68679845Y-103667000D01*
X68558524Y-103896890D01*
X63989822Y-103896890D01*
X64959712Y-102927000D01*
X68664602Y-102927000D01*
X68558524Y-103183110D01*
X68679845Y-103413000D01*
X69873000Y-103413000D01*
X69873000Y-103393000D01*
X70127000Y-103393000D01*
X70127000Y-103413000D01*
X71320155Y-103413000D01*
X71401378Y-103259090D01*
X91438695Y-103259090D01*
X94000000Y-105820395D01*
X96561305Y-103259090D01*
X96194360Y-102763657D01*
X94788829Y-102170264D01*
X93263207Y-102159913D01*
X91849754Y-102734181D01*
X91805640Y-102763657D01*
X91438695Y-103259090D01*
X71401378Y-103259090D01*
X71441476Y-103183110D01*
X71335398Y-102927000D01*
X71800000Y-102927000D01*
X72039943Y-102879272D01*
X72243356Y-102743356D01*
X72359712Y-102627000D01*
X89100000Y-102627000D01*
X89339943Y-102579272D01*
X89543356Y-102443356D01*
X90043356Y-101943356D01*
X90179273Y-101739942D01*
X90227000Y-101500000D01*
X90227000Y-101459712D01*
X94743356Y-96943356D01*
X94879273Y-96739942D01*
X94927000Y-96500000D01*
X94927000Y-76000000D01*
X94913018Y-75929706D01*
X94879273Y-75760058D01*
X94743356Y-75556644D01*
X92993356Y-73806644D01*
X92984276Y-73800577D01*
X92789943Y-73670728D01*
X92550000Y-73623000D01*
X87174433Y-73623000D01*
X87000000Y-73587676D01*
X86259296Y-73587676D01*
X86467846Y-73501505D01*
X86700688Y-73269070D01*
X86826856Y-72965222D01*
X86827143Y-72636221D01*
X86701505Y-72332154D01*
X86627000Y-72257519D01*
X86627000Y-69100000D01*
X86579272Y-68860057D01*
X86443356Y-68656644D01*
X84527622Y-66740910D01*
X91438695Y-66740910D01*
X91805640Y-67236343D01*
X93211171Y-67829736D01*
X94736793Y-67840087D01*
X96150246Y-67265819D01*
X96194360Y-67236343D01*
X96561305Y-66740910D01*
X94000000Y-64179605D01*
X91438695Y-66740910D01*
X84527622Y-66740910D01*
X84443356Y-66656644D01*
X84402391Y-66629272D01*
X84239943Y-66520728D01*
X84000000Y-66473000D01*
X77859712Y-66473000D01*
X77087000Y-65700288D01*
X77087000Y-64736793D01*
X90159913Y-64736793D01*
X90734181Y-66150246D01*
X90763657Y-66194360D01*
X91259090Y-66561305D01*
X93820395Y-64000000D01*
X91259090Y-61438695D01*
X90763657Y-61805640D01*
X90170264Y-63211171D01*
X90159913Y-64736793D01*
X77087000Y-64736793D01*
X77087000Y-64232311D01*
X77433686Y-64000663D01*
X77515000Y-63878968D01*
X77515000Y-63976309D01*
X77611673Y-64209698D01*
X77790301Y-64388327D01*
X78023690Y-64485000D01*
X78714250Y-64485000D01*
X78873000Y-64326250D01*
X78873000Y-63127000D01*
X79127000Y-63127000D01*
X79127000Y-64326250D01*
X79285750Y-64485000D01*
X79976310Y-64485000D01*
X80209699Y-64388327D01*
X80388327Y-64209698D01*
X80485000Y-63976309D01*
X80485000Y-63285750D01*
X80326250Y-63127000D01*
X79127000Y-63127000D01*
X78873000Y-63127000D01*
X78853000Y-63127000D01*
X78853000Y-62873000D01*
X78873000Y-62873000D01*
X78873000Y-61673750D01*
X79127000Y-61673750D01*
X79127000Y-62873000D01*
X80326250Y-62873000D01*
X80485000Y-62714250D01*
X80485000Y-62023691D01*
X80388327Y-61790302D01*
X80209699Y-61611673D01*
X79976310Y-61515000D01*
X79285750Y-61515000D01*
X79127000Y-61673750D01*
X78873000Y-61673750D01*
X78714250Y-61515000D01*
X78023690Y-61515000D01*
X77790301Y-61611673D01*
X77611673Y-61790302D01*
X77515000Y-62023691D01*
X77515000Y-62121032D01*
X77433686Y-61999337D01*
X76986955Y-61700841D01*
X76460000Y-61596023D01*
X75933045Y-61700841D01*
X75486314Y-61999337D01*
X75190000Y-62442802D01*
X74893686Y-61999337D01*
X74446955Y-61700841D01*
X73920000Y-61596023D01*
X73393045Y-61700841D01*
X72946314Y-61999337D01*
X72647818Y-62446068D01*
X72543000Y-62973023D01*
X72543000Y-63026977D01*
X72647818Y-63553932D01*
X72946314Y-64000663D01*
X73293000Y-64232311D01*
X73293000Y-64620000D01*
X73340728Y-64859943D01*
X73434311Y-65000000D01*
X73476644Y-65063356D01*
X76656644Y-68243356D01*
X76860057Y-68379272D01*
X77100000Y-68427000D01*
X80486288Y-68427000D01*
X80340340Y-68572948D01*
X80236221Y-68572857D01*
X79932154Y-68698495D01*
X79699312Y-68930930D01*
X79573144Y-69234778D01*
X79572857Y-69563779D01*
X79659255Y-69772877D01*
X79636221Y-69772857D01*
X79569735Y-69800328D01*
X79369070Y-69599312D01*
X79065222Y-69473144D01*
X78736221Y-69472857D01*
X78432154Y-69598495D01*
X78199312Y-69830930D01*
X78073144Y-70134778D01*
X78073012Y-70286300D01*
X71343356Y-63556644D01*
X71339297Y-63553932D01*
X71139943Y-63420728D01*
X70900000Y-63373000D01*
X70057376Y-63373000D01*
X70041212Y-63291739D01*
X69796909Y-62926114D01*
X69431284Y-62681811D01*
X69000000Y-62596023D01*
X68568716Y-62681811D01*
X68203091Y-62926114D01*
X68065968Y-63131332D01*
X67829125Y-62818067D01*
X67409376Y-62571714D01*
X67317609Y-62556538D01*
X67127000Y-62681269D01*
X67127000Y-63873000D01*
X67147000Y-63873000D01*
X67147000Y-64127000D01*
X67127000Y-64127000D01*
X67127000Y-64147000D01*
X66873000Y-64147000D01*
X66873000Y-64127000D01*
X66853000Y-64127000D01*
X66853000Y-63873000D01*
X66873000Y-63873000D01*
X66873000Y-62681269D01*
X66682391Y-62556538D01*
X66590624Y-62571714D01*
X66170875Y-62818067D01*
X65934032Y-63131332D01*
X65796909Y-62926114D01*
X65431284Y-62681811D01*
X65000000Y-62596023D01*
X64568716Y-62681811D01*
X64203091Y-62926114D01*
X64118904Y-63052108D01*
X64100577Y-62954706D01*
X63985158Y-62775340D01*
X63809049Y-62655010D01*
X63600000Y-62612676D01*
X62400000Y-62612676D01*
X62204706Y-62649423D01*
X62025340Y-62764842D01*
X61905010Y-62940951D01*
X61862676Y-63150000D01*
X61862676Y-64850000D01*
X61899423Y-65045294D01*
X62014842Y-65224660D01*
X62190951Y-65344990D01*
X62400000Y-65387324D01*
X63600000Y-65387324D01*
X63795294Y-65350577D01*
X63974660Y-65235158D01*
X64094990Y-65059049D01*
X64117827Y-64946279D01*
X64203091Y-65073886D01*
X64415994Y-65216143D01*
X64420728Y-65239943D01*
X64546575Y-65428286D01*
X64556644Y-65443356D01*
X65656644Y-66543356D01*
X65860058Y-66679273D01*
X66100000Y-66727000D01*
X72040288Y-66727000D01*
X76973000Y-71659712D01*
X76973000Y-72857371D01*
X76899312Y-72930930D01*
X76773144Y-73234778D01*
X76772857Y-73563779D01*
X76797327Y-73623000D01*
X76162324Y-73623000D01*
X76162324Y-73500000D01*
X76125577Y-73304706D01*
X76010158Y-73125340D01*
X75921265Y-73064602D01*
X75984699Y-73038327D01*
X76163327Y-72859698D01*
X76260000Y-72626309D01*
X76260000Y-72285750D01*
X76101250Y-72127000D01*
X75127000Y-72127000D01*
X75127000Y-72147000D01*
X74873000Y-72147000D01*
X74873000Y-72127000D01*
X73127000Y-72127000D01*
X73127000Y-72147000D01*
X72873000Y-72147000D01*
X72873000Y-72127000D01*
X72853000Y-72127000D01*
X72853000Y-71873000D01*
X72873000Y-71873000D01*
X72873000Y-71023750D01*
X73127000Y-71023750D01*
X73127000Y-71873000D01*
X74873000Y-71873000D01*
X74873000Y-71023750D01*
X75127000Y-71023750D01*
X75127000Y-71873000D01*
X76101250Y-71873000D01*
X76260000Y-71714250D01*
X76260000Y-71373691D01*
X76163327Y-71140302D01*
X75984699Y-70961673D01*
X75751310Y-70865000D01*
X75285750Y-70865000D01*
X75127000Y-71023750D01*
X74873000Y-71023750D01*
X74714250Y-70865000D01*
X74248690Y-70865000D01*
X74015301Y-70961673D01*
X74000000Y-70976974D01*
X73984699Y-70961673D01*
X73751310Y-70865000D01*
X73285750Y-70865000D01*
X73127000Y-71023750D01*
X72873000Y-71023750D01*
X72714250Y-70865000D01*
X72248690Y-70865000D01*
X72015301Y-70961673D01*
X71836673Y-71140302D01*
X71813676Y-71195822D01*
X71650000Y-71162676D01*
X70350000Y-71162676D01*
X70154706Y-71199423D01*
X69975340Y-71314842D01*
X69855010Y-71490951D01*
X69812676Y-71700000D01*
X69812676Y-72400000D01*
X69849423Y-72595294D01*
X69964842Y-72774660D01*
X70140951Y-72894990D01*
X70350000Y-72937324D01*
X70650612Y-72937324D01*
X70775964Y-73062676D01*
X70350000Y-73062676D01*
X70154706Y-73099423D01*
X69975340Y-73214842D01*
X69855010Y-73390951D01*
X69812676Y-73600000D01*
X69812676Y-74300000D01*
X69849423Y-74495294D01*
X69964842Y-74674660D01*
X70140951Y-74794990D01*
X70173000Y-74801480D01*
X70173000Y-75162676D01*
X69432231Y-75162676D01*
X66604777Y-72335223D01*
X66336479Y-72155952D01*
X66020000Y-72093000D01*
X61827000Y-72093000D01*
X61827000Y-71996262D01*
X61999660Y-71885158D01*
X62119990Y-71709049D01*
X62162324Y-71500000D01*
X62162324Y-70500000D01*
X62125577Y-70304706D01*
X62010158Y-70125340D01*
X61921265Y-70064602D01*
X61984699Y-70038327D01*
X62163327Y-69859698D01*
X62260000Y-69626309D01*
X62260000Y-69285750D01*
X62101250Y-69127000D01*
X61127000Y-69127000D01*
X61127000Y-69147000D01*
X60873000Y-69147000D01*
X60873000Y-69127000D01*
X59898750Y-69127000D01*
X59740000Y-69285750D01*
X59740000Y-69626309D01*
X59836673Y-69859698D01*
X60015301Y-70038327D01*
X60078540Y-70064522D01*
X60000340Y-70114842D01*
X59880010Y-70290951D01*
X59837676Y-70500000D01*
X59837676Y-71500000D01*
X59874423Y-71695294D01*
X59949956Y-71812676D01*
X59062230Y-71812676D01*
X59009913Y-71760358D01*
X59037324Y-71625000D01*
X59037324Y-70375000D01*
X59000577Y-70179706D01*
X58885158Y-70000340D01*
X58777000Y-69926439D01*
X58777000Y-69885378D01*
X58794990Y-69859049D01*
X58837324Y-69650000D01*
X58837324Y-68373691D01*
X59740000Y-68373691D01*
X59740000Y-68714250D01*
X59898750Y-68873000D01*
X60873000Y-68873000D01*
X60873000Y-68023750D01*
X61127000Y-68023750D01*
X61127000Y-68873000D01*
X62101250Y-68873000D01*
X62260000Y-68714250D01*
X62260000Y-68373691D01*
X62163327Y-68140302D01*
X61984699Y-67961673D01*
X61751310Y-67865000D01*
X61285750Y-67865000D01*
X61127000Y-68023750D01*
X60873000Y-68023750D01*
X60714250Y-67865000D01*
X60248690Y-67865000D01*
X60015301Y-67961673D01*
X59836673Y-68140302D01*
X59740000Y-68373691D01*
X58837324Y-68373691D01*
X58837324Y-68350000D01*
X58800577Y-68154706D01*
X58758582Y-68089444D01*
X58838327Y-68009699D01*
X58935000Y-67776310D01*
X58935000Y-67285750D01*
X58776250Y-67127000D01*
X58077000Y-67127000D01*
X58077000Y-67147000D01*
X57823000Y-67147000D01*
X57823000Y-67127000D01*
X57123750Y-67127000D01*
X56965000Y-67285750D01*
X56965000Y-67776310D01*
X57061673Y-68009699D01*
X57140696Y-68088722D01*
X57105010Y-68140951D01*
X57062676Y-68350000D01*
X57062676Y-69650000D01*
X57099423Y-69845294D01*
X57123000Y-69881934D01*
X57123000Y-69993267D01*
X57005010Y-70165951D01*
X57001371Y-70183923D01*
X57000577Y-70179706D01*
X56885158Y-70000340D01*
X56826047Y-69959951D01*
X56894990Y-69859049D01*
X56937324Y-69650000D01*
X56937324Y-68350000D01*
X56900577Y-68154706D01*
X56799889Y-67998233D01*
X56894990Y-67859049D01*
X56937324Y-67650000D01*
X56937324Y-66350000D01*
X56913558Y-66223690D01*
X56965000Y-66223690D01*
X56965000Y-66714250D01*
X57123750Y-66873000D01*
X57823000Y-66873000D01*
X57823000Y-65873750D01*
X58077000Y-65873750D01*
X58077000Y-66873000D01*
X58776250Y-66873000D01*
X58935000Y-66714250D01*
X58935000Y-66223690D01*
X58838327Y-65990301D01*
X58659698Y-65811673D01*
X58426309Y-65715000D01*
X58235750Y-65715000D01*
X58077000Y-65873750D01*
X57823000Y-65873750D01*
X57664250Y-65715000D01*
X57473691Y-65715000D01*
X57240302Y-65811673D01*
X57061673Y-65990301D01*
X56965000Y-66223690D01*
X56913558Y-66223690D01*
X56900577Y-66154706D01*
X56785158Y-65975340D01*
X56609049Y-65855010D01*
X56400000Y-65812676D01*
X55700000Y-65812676D01*
X55504706Y-65849423D01*
X55325340Y-65964842D01*
X55205010Y-66140951D01*
X55162676Y-66350000D01*
X55162676Y-67650000D01*
X55199423Y-67845294D01*
X55300111Y-68001767D01*
X55205010Y-68140951D01*
X55162676Y-68350000D01*
X55162676Y-69650000D01*
X55199423Y-69845294D01*
X55243508Y-69913803D01*
X55125340Y-69989842D01*
X55005010Y-70165951D01*
X54962676Y-70375000D01*
X54962676Y-71625000D01*
X54999423Y-71820294D01*
X55114842Y-71999660D01*
X55267738Y-72104129D01*
X55184191Y-72187676D01*
X54570000Y-72187676D01*
X54374706Y-72224423D01*
X54195340Y-72339842D01*
X54075010Y-72515951D01*
X54032676Y-72725000D01*
X54032676Y-73375000D01*
X54069423Y-73570294D01*
X54184842Y-73749660D01*
X54360951Y-73869990D01*
X54570000Y-73912324D01*
X55630000Y-73912324D01*
X55825294Y-73875577D01*
X56004660Y-73760158D01*
X56124990Y-73584049D01*
X56167324Y-73375000D01*
X56167324Y-73260810D01*
X56514064Y-72914069D01*
X56514067Y-72914067D01*
X56671660Y-72678211D01*
X56688153Y-72595294D01*
X56727001Y-72400000D01*
X56727000Y-72399995D01*
X56727000Y-72105175D01*
X56874660Y-72010158D01*
X56994990Y-71834049D01*
X56998629Y-71816077D01*
X56999423Y-71820294D01*
X57096270Y-71970798D01*
X56980010Y-72140951D01*
X56937676Y-72350000D01*
X56937676Y-73490000D01*
X56974423Y-73685294D01*
X57089842Y-73864660D01*
X57265951Y-73984990D01*
X57335117Y-73998997D01*
X57279706Y-74009423D01*
X57103203Y-74123000D01*
X55804433Y-74123000D01*
X55630000Y-74087676D01*
X54570000Y-74087676D01*
X54374706Y-74124423D01*
X54195340Y-74239842D01*
X54075010Y-74415951D01*
X54032676Y-74625000D01*
X54032676Y-75275000D01*
X54069423Y-75470294D01*
X54184842Y-75649660D01*
X54360951Y-75769990D01*
X54570000Y-75812324D01*
X55630000Y-75812324D01*
X55817731Y-75777000D01*
X56961573Y-75777000D01*
X56974423Y-75845294D01*
X57089842Y-76024660D01*
X57265951Y-76144990D01*
X57475000Y-76187324D01*
X60525000Y-76187324D01*
X60720294Y-76150577D01*
X60899660Y-76035158D01*
X61019990Y-75859049D01*
X61062324Y-75650000D01*
X61062324Y-74510000D01*
X61025577Y-74314706D01*
X60910158Y-74135340D01*
X60734049Y-74015010D01*
X60664883Y-74001003D01*
X60720294Y-73990577D01*
X60899660Y-73875158D01*
X60987227Y-73747000D01*
X61673000Y-73747000D01*
X61673000Y-76276374D01*
X61665222Y-76273144D01*
X61336221Y-76272857D01*
X61032154Y-76398495D01*
X60957519Y-76473000D01*
X54259712Y-76473000D01*
X53572267Y-75785555D01*
X53625294Y-75775577D01*
X53804660Y-75660158D01*
X53924990Y-75484049D01*
X53967324Y-75275000D01*
X53967324Y-74685702D01*
X53968327Y-74684699D01*
X54065000Y-74451310D01*
X54065000Y-74285750D01*
X53906250Y-74127000D01*
X53624185Y-74127000D01*
X53430000Y-74087676D01*
X52370000Y-74087676D01*
X52182269Y-74123000D01*
X51850000Y-74123000D01*
X51533521Y-74185952D01*
X51265223Y-74365223D01*
X51260000Y-74370446D01*
X51260000Y-74285750D01*
X51101250Y-74127000D01*
X50127000Y-74127000D01*
X50127000Y-74147000D01*
X49873000Y-74147000D01*
X49873000Y-74127000D01*
X49853000Y-74127000D01*
X49853000Y-73873000D01*
X49873000Y-73873000D01*
X49873000Y-73853000D01*
X50127000Y-73853000D01*
X50127000Y-73873000D01*
X51101250Y-73873000D01*
X51260000Y-73714250D01*
X51260000Y-73677000D01*
X51735000Y-73677000D01*
X51735000Y-73714250D01*
X51893750Y-73873000D01*
X52175815Y-73873000D01*
X52370000Y-73912324D01*
X53430000Y-73912324D01*
X53625294Y-73875577D01*
X53629299Y-73873000D01*
X53906250Y-73873000D01*
X54065000Y-73714250D01*
X54065000Y-73548690D01*
X53968327Y-73315301D01*
X53967324Y-73314298D01*
X53967324Y-72725000D01*
X53930577Y-72529706D01*
X53815158Y-72350340D01*
X53639049Y-72230010D01*
X53430000Y-72187676D01*
X52370000Y-72187676D01*
X52174706Y-72224423D01*
X51995340Y-72339842D01*
X51938521Y-72423000D01*
X50935000Y-72423000D01*
X50935000Y-72285750D01*
X50776250Y-72127000D01*
X50077000Y-72127000D01*
X50077000Y-72147000D01*
X49823000Y-72147000D01*
X49823000Y-72127000D01*
X49123750Y-72127000D01*
X48965000Y-72285750D01*
X48965000Y-72423000D01*
X48937324Y-72423000D01*
X48937324Y-71350000D01*
X48913558Y-71223690D01*
X48965000Y-71223690D01*
X48965000Y-71714250D01*
X49123750Y-71873000D01*
X49823000Y-71873000D01*
X49823000Y-70873750D01*
X50077000Y-70873750D01*
X50077000Y-71873000D01*
X50776250Y-71873000D01*
X50935000Y-71714250D01*
X50935000Y-71223690D01*
X50838327Y-70990301D01*
X50659698Y-70811673D01*
X50426309Y-70715000D01*
X50235750Y-70715000D01*
X50077000Y-70873750D01*
X49823000Y-70873750D01*
X49664250Y-70715000D01*
X49473691Y-70715000D01*
X49240302Y-70811673D01*
X49061673Y-70990301D01*
X48965000Y-71223690D01*
X48913558Y-71223690D01*
X48900577Y-71154706D01*
X48785158Y-70975340D01*
X48609049Y-70855010D01*
X48400000Y-70812676D01*
X47700000Y-70812676D01*
X47504706Y-70849423D01*
X47325340Y-70964842D01*
X47205010Y-71140951D01*
X47162676Y-71350000D01*
X47162676Y-72373000D01*
X44904019Y-72373000D01*
X44900577Y-72354706D01*
X44785158Y-72175340D01*
X44609049Y-72055010D01*
X44400000Y-72012676D01*
X43600000Y-72012676D01*
X43404706Y-72049423D01*
X43225340Y-72164842D01*
X43105010Y-72340951D01*
X43062676Y-72550000D01*
X43062676Y-73173000D01*
X42742555Y-73173000D01*
X42285777Y-72716223D01*
X42017479Y-72536952D01*
X42003358Y-72534143D01*
X41846409Y-72154297D01*
X41276702Y-71583595D01*
X40531964Y-71274353D01*
X39725574Y-71273649D01*
X38980297Y-71581591D01*
X38409595Y-72151298D01*
X38100353Y-72896036D01*
X38099649Y-73702426D01*
X38407591Y-74447703D01*
X38977298Y-75018405D01*
X39722036Y-75327647D01*
X40528426Y-75328351D01*
X41273703Y-75020409D01*
X41762705Y-74532260D01*
X41815222Y-74584777D01*
X42072440Y-74756644D01*
X42083521Y-74764048D01*
X42112676Y-74769847D01*
X42112676Y-75450000D01*
X42149423Y-75645294D01*
X42264842Y-75824660D01*
X42399842Y-75916901D01*
X42325340Y-75964842D01*
X42205010Y-76140951D01*
X42162676Y-76350000D01*
X42162676Y-77333638D01*
X42016479Y-77235952D01*
X41865075Y-77205836D01*
X41719409Y-76853297D01*
X41149702Y-76282595D01*
X40404964Y-75973353D01*
X39598574Y-75972649D01*
X38853297Y-76280591D01*
X38282595Y-76850298D01*
X38148598Y-77173000D01*
X37842555Y-77173000D01*
X37027000Y-76357446D01*
X37027000Y-71242554D01*
X37287455Y-70982099D01*
X37314842Y-71024660D01*
X37490951Y-71144990D01*
X37700000Y-71187324D01*
X38400000Y-71187324D01*
X38595294Y-71150577D01*
X38774660Y-71035158D01*
X38894990Y-70859049D01*
X38937324Y-70650000D01*
X38937324Y-69350000D01*
X38900577Y-69154706D01*
X38785158Y-68975340D01*
X38609049Y-68855010D01*
X38400000Y-68812676D01*
X37700000Y-68812676D01*
X37504706Y-68849423D01*
X37325340Y-68964842D01*
X37205010Y-69140951D01*
X37198520Y-69173000D01*
X37100000Y-69173000D01*
X36867456Y-69219256D01*
X37509712Y-68577000D01*
X38901999Y-68577000D01*
X38964842Y-68674660D01*
X39140951Y-68794990D01*
X39350000Y-68837324D01*
X39469007Y-68837324D01*
X39404706Y-68849423D01*
X39225340Y-68964842D01*
X39105010Y-69140951D01*
X39062676Y-69350000D01*
X39062676Y-70650000D01*
X39099423Y-70845294D01*
X39214842Y-71024660D01*
X39390951Y-71144990D01*
X39600000Y-71187324D01*
X40300000Y-71187324D01*
X40495294Y-71150577D01*
X40674660Y-71035158D01*
X40794990Y-70859049D01*
X40801480Y-70827000D01*
X41600000Y-70827000D01*
X41916479Y-70764048D01*
X42184777Y-70584777D01*
X42684777Y-70084777D01*
X42864048Y-69816479D01*
X42927000Y-69500000D01*
X42927000Y-68842554D01*
X42943575Y-68825980D01*
X42971954Y-68825980D01*
X43291770Y-69039675D01*
X43722840Y-69125420D01*
X44277160Y-69125420D01*
X44708230Y-69039675D01*
X45073673Y-68795493D01*
X45317855Y-68430050D01*
X45403600Y-67998980D01*
X45317855Y-67567910D01*
X45073673Y-67202467D01*
X44769897Y-66999490D01*
X45073673Y-66796513D01*
X45317855Y-66431070D01*
X45403600Y-66000000D01*
X45317855Y-65568930D01*
X45073673Y-65203487D01*
X45065811Y-65198234D01*
X45209329Y-65138787D01*
X45387957Y-64960158D01*
X45484630Y-64726769D01*
X45484630Y-64286770D01*
X45325880Y-64128020D01*
X44127000Y-64128020D01*
X44127000Y-64148020D01*
X43873000Y-64148020D01*
X43873000Y-64128020D01*
X42674120Y-64128020D01*
X42515370Y-64286770D01*
X42515370Y-64726769D01*
X42612043Y-64960158D01*
X42790671Y-65138787D01*
X42934189Y-65198234D01*
X42926327Y-65203487D01*
X42813062Y-65373000D01*
X41065826Y-65373000D01*
X41035158Y-65325340D01*
X40859049Y-65205010D01*
X40650000Y-65162676D01*
X40627000Y-65162676D01*
X40627000Y-64837324D01*
X40650000Y-64837324D01*
X40845294Y-64800577D01*
X41024660Y-64685158D01*
X41144990Y-64509049D01*
X41187324Y-64300000D01*
X41187324Y-63600000D01*
X41150577Y-63404706D01*
X41067288Y-63275271D01*
X42515370Y-63275271D01*
X42515370Y-63715270D01*
X42674120Y-63874020D01*
X43873000Y-63874020D01*
X43873000Y-62925330D01*
X44127000Y-62925330D01*
X44127000Y-63874020D01*
X45325880Y-63874020D01*
X45484630Y-63715270D01*
X45484630Y-63275271D01*
X45387957Y-63041882D01*
X45209329Y-62863253D01*
X44975940Y-62766580D01*
X44285750Y-62766580D01*
X44127000Y-62925330D01*
X43873000Y-62925330D01*
X43714250Y-62766580D01*
X43024060Y-62766580D01*
X42790671Y-62863253D01*
X42612043Y-63041882D01*
X42515370Y-63275271D01*
X41067288Y-63275271D01*
X41035158Y-63225340D01*
X40859049Y-63105010D01*
X40650000Y-63062676D01*
X39350000Y-63062676D01*
X39154706Y-63099423D01*
X38975340Y-63214842D01*
X38855010Y-63390951D01*
X38812676Y-63600000D01*
X38812676Y-64300000D01*
X38849423Y-64495294D01*
X38964842Y-64674660D01*
X39140951Y-64794990D01*
X39350000Y-64837324D01*
X39373000Y-64837324D01*
X39373000Y-65162676D01*
X39350000Y-65162676D01*
X39154706Y-65199423D01*
X38975340Y-65314842D01*
X38855010Y-65490951D01*
X38812676Y-65700000D01*
X38812676Y-66400000D01*
X38849423Y-66595294D01*
X38964842Y-66774660D01*
X39140951Y-66894990D01*
X39350000Y-66937324D01*
X40650000Y-66937324D01*
X40845294Y-66900577D01*
X41024660Y-66785158D01*
X41132725Y-66627000D01*
X42813062Y-66627000D01*
X42926327Y-66796513D01*
X43230103Y-66999490D01*
X42971954Y-67171980D01*
X42601020Y-67171980D01*
X42284541Y-67234932D01*
X42016242Y-67414203D01*
X41515223Y-67915223D01*
X41335952Y-68183521D01*
X41273000Y-68500000D01*
X41273000Y-69157446D01*
X41257446Y-69173000D01*
X40804019Y-69173000D01*
X40800577Y-69154706D01*
X40685158Y-68975340D01*
X40509049Y-68855010D01*
X40421714Y-68837324D01*
X40650000Y-68837324D01*
X40845294Y-68800577D01*
X41024660Y-68685158D01*
X41144990Y-68509049D01*
X41187324Y-68300000D01*
X41187324Y-67600000D01*
X41150577Y-67404706D01*
X41035158Y-67225340D01*
X40859049Y-67105010D01*
X40650000Y-67062676D01*
X39350000Y-67062676D01*
X39154706Y-67099423D01*
X38975340Y-67214842D01*
X38901439Y-67323000D01*
X37250000Y-67323000D01*
X37010057Y-67370728D01*
X36806644Y-67506644D01*
X34956644Y-69356644D01*
X34820728Y-69560057D01*
X34773000Y-69800000D01*
X31745896Y-69800000D01*
X31624702Y-69678595D01*
X30879964Y-69369353D01*
X30073574Y-69368649D01*
X29328297Y-69676591D01*
X29127000Y-69877537D01*
X29127000Y-66740910D01*
X29438695Y-66740910D01*
X29805640Y-67236343D01*
X31211171Y-67829736D01*
X32736793Y-67840087D01*
X34150246Y-67265819D01*
X34194360Y-67236343D01*
X34561305Y-66740910D01*
X32000000Y-64179605D01*
X29438695Y-66740910D01*
X29127000Y-66740910D01*
X29127000Y-66463472D01*
X29259090Y-66561305D01*
X31820395Y-64000000D01*
X32179605Y-64000000D01*
X34740910Y-66561305D01*
X35236343Y-66194360D01*
X35829736Y-64788829D01*
X35840087Y-63263207D01*
X35463274Y-62335750D01*
X38715000Y-62335750D01*
X38715000Y-62526309D01*
X38811673Y-62759698D01*
X38990301Y-62938327D01*
X39223690Y-63035000D01*
X39714250Y-63035000D01*
X39873000Y-62876250D01*
X39873000Y-62177000D01*
X40127000Y-62177000D01*
X40127000Y-62876250D01*
X40285750Y-63035000D01*
X40776310Y-63035000D01*
X41009699Y-62938327D01*
X41188327Y-62759698D01*
X41285000Y-62526309D01*
X41285000Y-62335750D01*
X41126250Y-62177000D01*
X40127000Y-62177000D01*
X39873000Y-62177000D01*
X38873750Y-62177000D01*
X38715000Y-62335750D01*
X35463274Y-62335750D01*
X35265819Y-61849754D01*
X35236343Y-61805640D01*
X34740910Y-61438695D01*
X32179605Y-64000000D01*
X31820395Y-64000000D01*
X29259090Y-61438695D01*
X29127000Y-61536528D01*
X29127000Y-61127000D01*
X29536528Y-61127000D01*
X29438695Y-61259090D01*
G36*
X66506644Y-92493356D02*
X66710057Y-92629272D01*
X66894954Y-92666051D01*
X66964842Y-92774660D01*
X67140951Y-92894990D01*
X67350000Y-92937324D01*
X68573000Y-92937324D01*
X68573000Y-92965000D01*
X68285750Y-92965000D01*
X68127000Y-93123750D01*
X68127000Y-93823000D01*
X68147000Y-93823000D01*
X68147000Y-94077000D01*
X68127000Y-94077000D01*
X68127000Y-94776250D01*
X68285750Y-94935000D01*
X68599853Y-94935000D01*
X68620728Y-95039943D01*
X68709634Y-95173000D01*
X62626936Y-95173000D01*
X62627143Y-94936221D01*
X62622183Y-94924217D01*
X62627000Y-94900000D01*
X62627000Y-94235750D01*
X66715000Y-94235750D01*
X66715000Y-94426309D01*
X66811673Y-94659698D01*
X66990301Y-94838327D01*
X67223690Y-94935000D01*
X67714250Y-94935000D01*
X67873000Y-94776250D01*
X67873000Y-94077000D01*
X66873750Y-94077000D01*
X66715000Y-94235750D01*
X62627000Y-94235750D01*
X62627000Y-93827024D01*
X62763779Y-93827143D01*
X62900815Y-93770521D01*
X62930930Y-93800688D01*
X63234778Y-93926856D01*
X63563779Y-93927143D01*
X63800205Y-93829454D01*
X64034778Y-93926856D01*
X64363779Y-93927143D01*
X64667846Y-93801505D01*
X64900688Y-93569070D01*
X64940292Y-93473691D01*
X66715000Y-93473691D01*
X66715000Y-93664250D01*
X66873750Y-93823000D01*
X67873000Y-93823000D01*
X67873000Y-93123750D01*
X67714250Y-92965000D01*
X67223690Y-92965000D01*
X66990301Y-93061673D01*
X66811673Y-93240302D01*
X66715000Y-93473691D01*
X64940292Y-93473691D01*
X65026856Y-93265222D01*
X65026889Y-93227024D01*
X65163779Y-93227143D01*
X65467846Y-93101505D01*
X65700688Y-92869070D01*
X65826856Y-92565222D01*
X65827143Y-92236221D01*
X65701505Y-91932154D01*
X65696193Y-91926832D01*
X65818157Y-91804869D01*
X66506644Y-92493356D01*
X66506644Y-92493356D01*
G37*
X66506644Y-92493356D02*
X66710057Y-92629272D01*
X66894954Y-92666051D01*
X66964842Y-92774660D01*
X67140951Y-92894990D01*
X67350000Y-92937324D01*
X68573000Y-92937324D01*
X68573000Y-92965000D01*
X68285750Y-92965000D01*
X68127000Y-93123750D01*
X68127000Y-93823000D01*
X68147000Y-93823000D01*
X68147000Y-94077000D01*
X68127000Y-94077000D01*
X68127000Y-94776250D01*
X68285750Y-94935000D01*
X68599853Y-94935000D01*
X68620728Y-95039943D01*
X68709634Y-95173000D01*
X62626936Y-95173000D01*
X62627143Y-94936221D01*
X62622183Y-94924217D01*
X62627000Y-94900000D01*
X62627000Y-94235750D01*
X66715000Y-94235750D01*
X66715000Y-94426309D01*
X66811673Y-94659698D01*
X66990301Y-94838327D01*
X67223690Y-94935000D01*
X67714250Y-94935000D01*
X67873000Y-94776250D01*
X67873000Y-94077000D01*
X66873750Y-94077000D01*
X66715000Y-94235750D01*
X62627000Y-94235750D01*
X62627000Y-93827024D01*
X62763779Y-93827143D01*
X62900815Y-93770521D01*
X62930930Y-93800688D01*
X63234778Y-93926856D01*
X63563779Y-93927143D01*
X63800205Y-93829454D01*
X64034778Y-93926856D01*
X64363779Y-93927143D01*
X64667846Y-93801505D01*
X64900688Y-93569070D01*
X64940292Y-93473691D01*
X66715000Y-93473691D01*
X66715000Y-93664250D01*
X66873750Y-93823000D01*
X67873000Y-93823000D01*
X67873000Y-93123750D01*
X67714250Y-92965000D01*
X67223690Y-92965000D01*
X66990301Y-93061673D01*
X66811673Y-93240302D01*
X66715000Y-93473691D01*
X64940292Y-93473691D01*
X65026856Y-93265222D01*
X65026889Y-93227024D01*
X65163779Y-93227143D01*
X65467846Y-93101505D01*
X65700688Y-92869070D01*
X65826856Y-92565222D01*
X65827143Y-92236221D01*
X65701505Y-91932154D01*
X65696193Y-91926832D01*
X65818157Y-91804869D01*
X66506644Y-92493356D01*
G36*
X90273000Y-80659712D02*
X90273000Y-89340288D01*
X87040288Y-92573000D01*
X86396401Y-92573000D01*
X86600688Y-92369070D01*
X86726856Y-92065222D01*
X86727067Y-91822823D01*
X86845294Y-91800577D01*
X87024660Y-91685158D01*
X87144990Y-91509049D01*
X87187324Y-91300000D01*
X87187324Y-90600000D01*
X87150577Y-90404706D01*
X87035158Y-90225340D01*
X86859049Y-90105010D01*
X86650000Y-90062676D01*
X85350000Y-90062676D01*
X85154706Y-90099423D01*
X84975340Y-90214842D01*
X84855010Y-90390951D01*
X84812676Y-90600000D01*
X84812676Y-91300000D01*
X84849423Y-91495294D01*
X84964842Y-91674660D01*
X85073132Y-91748651D01*
X85072857Y-92063779D01*
X85198495Y-92367846D01*
X85403290Y-92573000D01*
X81196751Y-92573000D01*
X81200688Y-92569070D01*
X81326856Y-92265222D01*
X81326948Y-92159764D01*
X81443356Y-92043356D01*
X81579273Y-91839942D01*
X81579794Y-91837324D01*
X81650000Y-91837324D01*
X81845294Y-91800577D01*
X82024660Y-91685158D01*
X82144990Y-91509049D01*
X82187324Y-91300000D01*
X82187324Y-90600000D01*
X82150577Y-90404706D01*
X82035158Y-90225340D01*
X81859049Y-90105010D01*
X81650000Y-90062676D01*
X80350000Y-90062676D01*
X80154706Y-90099423D01*
X79975340Y-90214842D01*
X79855010Y-90390951D01*
X79812676Y-90600000D01*
X79812676Y-91300000D01*
X79849423Y-91495294D01*
X79882966Y-91547422D01*
X79799312Y-91630930D01*
X79673144Y-91934778D01*
X79672857Y-92263779D01*
X79798495Y-92567846D01*
X79803640Y-92573000D01*
X78627000Y-92573000D01*
X78627000Y-87359712D01*
X79199369Y-86787343D01*
X79239943Y-86779272D01*
X79443356Y-86643356D01*
X82343356Y-83743356D01*
X82371866Y-83700688D01*
X82479272Y-83539943D01*
X82527000Y-83300000D01*
X82527000Y-82517478D01*
X82625000Y-82537324D01*
X82764298Y-82537324D01*
X82765301Y-82538327D01*
X82998690Y-82635000D01*
X83028750Y-82635000D01*
X83122998Y-82540752D01*
X83122998Y-82635000D01*
X83123000Y-82635000D01*
X83123000Y-82862676D01*
X83075000Y-82862676D01*
X82879706Y-82899423D01*
X82700340Y-83014842D01*
X82580010Y-83190951D01*
X82537676Y-83400000D01*
X82537676Y-84400000D01*
X82574423Y-84595294D01*
X82689842Y-84774660D01*
X82778735Y-84835398D01*
X82715301Y-84861673D01*
X82536673Y-85040302D01*
X82440000Y-85273691D01*
X82440000Y-85614250D01*
X82598750Y-85773000D01*
X83573000Y-85773000D01*
X83573000Y-85753000D01*
X83827000Y-85753000D01*
X83827000Y-85773000D01*
X83847000Y-85773000D01*
X83847000Y-86027000D01*
X83827000Y-86027000D01*
X83827000Y-86047000D01*
X83573000Y-86047000D01*
X83573000Y-86027000D01*
X82598750Y-86027000D01*
X82440000Y-86185750D01*
X82440000Y-86273000D01*
X81700000Y-86273000D01*
X81460057Y-86320728D01*
X81281640Y-86439942D01*
X81256644Y-86456644D01*
X80556644Y-87156644D01*
X80420728Y-87360057D01*
X80373000Y-87600000D01*
X80373000Y-88162676D01*
X80350000Y-88162676D01*
X80154706Y-88199423D01*
X79975340Y-88314842D01*
X79855010Y-88490951D01*
X79812676Y-88700000D01*
X79812676Y-89400000D01*
X79849423Y-89595294D01*
X79964842Y-89774660D01*
X80140951Y-89894990D01*
X80350000Y-89937324D01*
X81650000Y-89937324D01*
X81845294Y-89900577D01*
X82024660Y-89785158D01*
X82144990Y-89609049D01*
X82187324Y-89400000D01*
X82187324Y-88700000D01*
X82150577Y-88504706D01*
X82035158Y-88325340D01*
X81859049Y-88205010D01*
X81650000Y-88162676D01*
X81627000Y-88162676D01*
X81627000Y-87859712D01*
X81959712Y-87527000D01*
X84700000Y-87527000D01*
X84939943Y-87479272D01*
X85143356Y-87343356D01*
X85373000Y-87113712D01*
X85373000Y-88162676D01*
X85350000Y-88162676D01*
X85154706Y-88199423D01*
X84975340Y-88314842D01*
X84855010Y-88490951D01*
X84812676Y-88700000D01*
X84812676Y-89400000D01*
X84849423Y-89595294D01*
X84964842Y-89774660D01*
X85140951Y-89894990D01*
X85350000Y-89937324D01*
X86650000Y-89937324D01*
X86845294Y-89900577D01*
X87024660Y-89785158D01*
X87144990Y-89609049D01*
X87187324Y-89400000D01*
X87187324Y-88700000D01*
X87150577Y-88504706D01*
X87035158Y-88325340D01*
X86859049Y-88205010D01*
X86650000Y-88162676D01*
X86627000Y-88162676D01*
X86627000Y-85559712D01*
X87443356Y-84743356D01*
X87579273Y-84539942D01*
X87627000Y-84300000D01*
X87627000Y-80827024D01*
X87763779Y-80827143D01*
X88067846Y-80701505D01*
X88300688Y-80469070D01*
X88426856Y-80165222D01*
X88427107Y-79877000D01*
X89490288Y-79877000D01*
X90273000Y-80659712D01*
X90273000Y-80659712D01*
G37*
X90273000Y-80659712D02*
X90273000Y-89340288D01*
X87040288Y-92573000D01*
X86396401Y-92573000D01*
X86600688Y-92369070D01*
X86726856Y-92065222D01*
X86727067Y-91822823D01*
X86845294Y-91800577D01*
X87024660Y-91685158D01*
X87144990Y-91509049D01*
X87187324Y-91300000D01*
X87187324Y-90600000D01*
X87150577Y-90404706D01*
X87035158Y-90225340D01*
X86859049Y-90105010D01*
X86650000Y-90062676D01*
X85350000Y-90062676D01*
X85154706Y-90099423D01*
X84975340Y-90214842D01*
X84855010Y-90390951D01*
X84812676Y-90600000D01*
X84812676Y-91300000D01*
X84849423Y-91495294D01*
X84964842Y-91674660D01*
X85073132Y-91748651D01*
X85072857Y-92063779D01*
X85198495Y-92367846D01*
X85403290Y-92573000D01*
X81196751Y-92573000D01*
X81200688Y-92569070D01*
X81326856Y-92265222D01*
X81326948Y-92159764D01*
X81443356Y-92043356D01*
X81579273Y-91839942D01*
X81579794Y-91837324D01*
X81650000Y-91837324D01*
X81845294Y-91800577D01*
X82024660Y-91685158D01*
X82144990Y-91509049D01*
X82187324Y-91300000D01*
X82187324Y-90600000D01*
X82150577Y-90404706D01*
X82035158Y-90225340D01*
X81859049Y-90105010D01*
X81650000Y-90062676D01*
X80350000Y-90062676D01*
X80154706Y-90099423D01*
X79975340Y-90214842D01*
X79855010Y-90390951D01*
X79812676Y-90600000D01*
X79812676Y-91300000D01*
X79849423Y-91495294D01*
X79882966Y-91547422D01*
X79799312Y-91630930D01*
X79673144Y-91934778D01*
X79672857Y-92263779D01*
X79798495Y-92567846D01*
X79803640Y-92573000D01*
X78627000Y-92573000D01*
X78627000Y-87359712D01*
X79199369Y-86787343D01*
X79239943Y-86779272D01*
X79443356Y-86643356D01*
X82343356Y-83743356D01*
X82371866Y-83700688D01*
X82479272Y-83539943D01*
X82527000Y-83300000D01*
X82527000Y-82517478D01*
X82625000Y-82537324D01*
X82764298Y-82537324D01*
X82765301Y-82538327D01*
X82998690Y-82635000D01*
X83028750Y-82635000D01*
X83122998Y-82540752D01*
X83122998Y-82635000D01*
X83123000Y-82635000D01*
X83123000Y-82862676D01*
X83075000Y-82862676D01*
X82879706Y-82899423D01*
X82700340Y-83014842D01*
X82580010Y-83190951D01*
X82537676Y-83400000D01*
X82537676Y-84400000D01*
X82574423Y-84595294D01*
X82689842Y-84774660D01*
X82778735Y-84835398D01*
X82715301Y-84861673D01*
X82536673Y-85040302D01*
X82440000Y-85273691D01*
X82440000Y-85614250D01*
X82598750Y-85773000D01*
X83573000Y-85773000D01*
X83573000Y-85753000D01*
X83827000Y-85753000D01*
X83827000Y-85773000D01*
X83847000Y-85773000D01*
X83847000Y-86027000D01*
X83827000Y-86027000D01*
X83827000Y-86047000D01*
X83573000Y-86047000D01*
X83573000Y-86027000D01*
X82598750Y-86027000D01*
X82440000Y-86185750D01*
X82440000Y-86273000D01*
X81700000Y-86273000D01*
X81460057Y-86320728D01*
X81281640Y-86439942D01*
X81256644Y-86456644D01*
X80556644Y-87156644D01*
X80420728Y-87360057D01*
X80373000Y-87600000D01*
X80373000Y-88162676D01*
X80350000Y-88162676D01*
X80154706Y-88199423D01*
X79975340Y-88314842D01*
X79855010Y-88490951D01*
X79812676Y-88700000D01*
X79812676Y-89400000D01*
X79849423Y-89595294D01*
X79964842Y-89774660D01*
X80140951Y-89894990D01*
X80350000Y-89937324D01*
X81650000Y-89937324D01*
X81845294Y-89900577D01*
X82024660Y-89785158D01*
X82144990Y-89609049D01*
X82187324Y-89400000D01*
X82187324Y-88700000D01*
X82150577Y-88504706D01*
X82035158Y-88325340D01*
X81859049Y-88205010D01*
X81650000Y-88162676D01*
X81627000Y-88162676D01*
X81627000Y-87859712D01*
X81959712Y-87527000D01*
X84700000Y-87527000D01*
X84939943Y-87479272D01*
X85143356Y-87343356D01*
X85373000Y-87113712D01*
X85373000Y-88162676D01*
X85350000Y-88162676D01*
X85154706Y-88199423D01*
X84975340Y-88314842D01*
X84855010Y-88490951D01*
X84812676Y-88700000D01*
X84812676Y-89400000D01*
X84849423Y-89595294D01*
X84964842Y-89774660D01*
X85140951Y-89894990D01*
X85350000Y-89937324D01*
X86650000Y-89937324D01*
X86845294Y-89900577D01*
X87024660Y-89785158D01*
X87144990Y-89609049D01*
X87187324Y-89400000D01*
X87187324Y-88700000D01*
X87150577Y-88504706D01*
X87035158Y-88325340D01*
X86859049Y-88205010D01*
X86650000Y-88162676D01*
X86627000Y-88162676D01*
X86627000Y-85559712D01*
X87443356Y-84743356D01*
X87579273Y-84539942D01*
X87627000Y-84300000D01*
X87627000Y-80827024D01*
X87763779Y-80827143D01*
X88067846Y-80701505D01*
X88300688Y-80469070D01*
X88426856Y-80165222D01*
X88427107Y-79877000D01*
X89490288Y-79877000D01*
X90273000Y-80659712D01*
G36*
X63127000Y-89873000D02*
X63147000Y-89873000D01*
X63147000Y-90127000D01*
X63127000Y-90127000D01*
X63127000Y-90147000D01*
X62873000Y-90147000D01*
X62873000Y-90127000D01*
X62853000Y-90127000D01*
X62853000Y-89873000D01*
X62873000Y-89873000D01*
X62873000Y-89853000D01*
X63127000Y-89853000D01*
X63127000Y-89873000D01*
X63127000Y-89873000D01*
G37*
X63127000Y-89873000D02*
X63147000Y-89873000D01*
X63147000Y-90127000D01*
X63127000Y-90127000D01*
X63127000Y-90147000D01*
X62873000Y-90147000D01*
X62873000Y-90127000D01*
X62853000Y-90127000D01*
X62853000Y-89873000D01*
X62873000Y-89873000D01*
X62873000Y-89853000D01*
X63127000Y-89853000D01*
X63127000Y-89873000D01*
G36*
X68127000Y-89873000D02*
X69873000Y-89873000D01*
X69873000Y-89853000D01*
X70127000Y-89853000D01*
X70127000Y-89873000D01*
X70147000Y-89873000D01*
X70147000Y-90127000D01*
X70127000Y-90127000D01*
X70127000Y-90147000D01*
X69873000Y-90147000D01*
X69873000Y-90127000D01*
X68127000Y-90127000D01*
X68127000Y-90147000D01*
X67873000Y-90147000D01*
X67873000Y-90127000D01*
X67853000Y-90127000D01*
X67853000Y-89873000D01*
X67873000Y-89873000D01*
X67873000Y-89853000D01*
X68127000Y-89853000D01*
X68127000Y-89873000D01*
X68127000Y-89873000D01*
G37*
X68127000Y-89873000D02*
X69873000Y-89873000D01*
X69873000Y-89853000D01*
X70127000Y-89853000D01*
X70127000Y-89873000D01*
X70147000Y-89873000D01*
X70147000Y-90127000D01*
X70127000Y-90127000D01*
X70127000Y-90147000D01*
X69873000Y-90147000D01*
X69873000Y-90127000D01*
X68127000Y-90127000D01*
X68127000Y-90147000D01*
X67873000Y-90147000D01*
X67873000Y-90127000D01*
X67853000Y-90127000D01*
X67853000Y-89873000D01*
X67873000Y-89873000D01*
X67873000Y-89853000D01*
X68127000Y-89853000D01*
X68127000Y-89873000D01*
G36*
X75340236Y-82326948D02*
X75373000Y-82359712D01*
X75373000Y-88162676D01*
X75350000Y-88162676D01*
X75154706Y-88199423D01*
X74975340Y-88314842D01*
X74855010Y-88490951D01*
X74827000Y-88629267D01*
X74827000Y-83700000D01*
X74779272Y-83460057D01*
X74643356Y-83256644D01*
X74521712Y-83135000D01*
X74751310Y-83135000D01*
X74984699Y-83038327D01*
X75163327Y-82859698D01*
X75260000Y-82626309D01*
X75260000Y-82326878D01*
X75340236Y-82326948D01*
X75340236Y-82326948D01*
G37*
X75340236Y-82326948D02*
X75373000Y-82359712D01*
X75373000Y-88162676D01*
X75350000Y-88162676D01*
X75154706Y-88199423D01*
X74975340Y-88314842D01*
X74855010Y-88490951D01*
X74827000Y-88629267D01*
X74827000Y-83700000D01*
X74779272Y-83460057D01*
X74643356Y-83256644D01*
X74521712Y-83135000D01*
X74751310Y-83135000D01*
X74984699Y-83038327D01*
X75163327Y-82859698D01*
X75260000Y-82626309D01*
X75260000Y-82326878D01*
X75340236Y-82326948D01*
G36*
X68474894Y-76544449D02*
X68456644Y-76556644D01*
X68187324Y-76825964D01*
X68187324Y-76700000D01*
X68150577Y-76504706D01*
X68035158Y-76325340D01*
X67859049Y-76205010D01*
X67650000Y-76162676D01*
X66350000Y-76162676D01*
X66154706Y-76199423D01*
X66010757Y-76292052D01*
X65965222Y-76273144D01*
X65636221Y-76272857D01*
X65332154Y-76398495D01*
X65099312Y-76630930D01*
X64973144Y-76934778D01*
X64972857Y-77263779D01*
X65098495Y-77567846D01*
X65330930Y-77800688D01*
X65634778Y-77926856D01*
X65963779Y-77927143D01*
X66103510Y-77869407D01*
X66140951Y-77894990D01*
X66350000Y-77937324D01*
X67650000Y-77937324D01*
X67773000Y-77914180D01*
X67773000Y-78087584D01*
X67650000Y-78062676D01*
X66350000Y-78062676D01*
X66154706Y-78099423D01*
X65975340Y-78214842D01*
X65855010Y-78390951D01*
X65812676Y-78600000D01*
X65812676Y-79300000D01*
X65849423Y-79495294D01*
X65964842Y-79674660D01*
X66140951Y-79794990D01*
X66350000Y-79837324D01*
X66373000Y-79837324D01*
X66373000Y-80162676D01*
X66350000Y-80162676D01*
X66154706Y-80199423D01*
X66086197Y-80243508D01*
X66010158Y-80125340D01*
X65834049Y-80005010D01*
X65625000Y-79962676D01*
X64375000Y-79962676D01*
X64179706Y-79999423D01*
X64000340Y-80114842D01*
X63880010Y-80290951D01*
X63837676Y-80500000D01*
X63837676Y-81500000D01*
X63874423Y-81695294D01*
X63989842Y-81874660D01*
X64078735Y-81935398D01*
X64015301Y-81961673D01*
X63836673Y-82140302D01*
X63740000Y-82373691D01*
X63740000Y-82714250D01*
X63898750Y-82873000D01*
X64873000Y-82873000D01*
X64873000Y-82853000D01*
X65127000Y-82853000D01*
X65127000Y-82873000D01*
X66101250Y-82873000D01*
X66151250Y-82823000D01*
X66873000Y-82823000D01*
X66873000Y-82123750D01*
X67127000Y-82123750D01*
X67127000Y-82823000D01*
X68126250Y-82823000D01*
X68285000Y-82664250D01*
X68285000Y-82473691D01*
X68188327Y-82240302D01*
X68009699Y-82061673D01*
X67776310Y-81965000D01*
X67285750Y-81965000D01*
X67127000Y-82123750D01*
X66873000Y-82123750D01*
X66714250Y-81965000D01*
X66223690Y-81965000D01*
X66057050Y-82034025D01*
X65984699Y-81961673D01*
X65921460Y-81935478D01*
X65999660Y-81885158D01*
X66040049Y-81826047D01*
X66140951Y-81894990D01*
X66350000Y-81937324D01*
X67650000Y-81937324D01*
X67845294Y-81900577D01*
X68024660Y-81785158D01*
X68144990Y-81609049D01*
X68187324Y-81400000D01*
X68187324Y-80700000D01*
X68150577Y-80504706D01*
X68035158Y-80325340D01*
X67859049Y-80205010D01*
X67650000Y-80162676D01*
X67627000Y-80162676D01*
X67627000Y-79837324D01*
X67650000Y-79837324D01*
X67845294Y-79800577D01*
X68024660Y-79685158D01*
X68098561Y-79577000D01*
X68150000Y-79577000D01*
X68290712Y-79549010D01*
X68298495Y-79567846D01*
X68530930Y-79800688D01*
X68649843Y-79850065D01*
X68573144Y-80034778D01*
X68572857Y-80363779D01*
X68698495Y-80667846D01*
X68930930Y-80900688D01*
X69234778Y-81026856D01*
X69340236Y-81026948D01*
X70156644Y-81843356D01*
X70360057Y-81979272D01*
X70431790Y-81993541D01*
X70373144Y-82134778D01*
X70373052Y-82240236D01*
X69506644Y-83106644D01*
X69370728Y-83310057D01*
X69323000Y-83550000D01*
X69323000Y-84901999D01*
X69225340Y-84964842D01*
X69105010Y-85140951D01*
X69062676Y-85350000D01*
X69062676Y-86650000D01*
X69099423Y-86845294D01*
X69196562Y-86996251D01*
X69179706Y-86999423D01*
X69000340Y-87114842D01*
X68998575Y-87117426D01*
X68834049Y-87005010D01*
X68799974Y-86998110D01*
X68894990Y-86859049D01*
X68937324Y-86650000D01*
X68937324Y-85350000D01*
X68900577Y-85154706D01*
X68785158Y-84975340D01*
X68609049Y-84855010D01*
X68400000Y-84812676D01*
X67700000Y-84812676D01*
X67504706Y-84849423D01*
X67325340Y-84964842D01*
X67316658Y-84977549D01*
X67065222Y-84873144D01*
X66736221Y-84872857D01*
X66432154Y-84998495D01*
X66299986Y-85130432D01*
X65584777Y-84415223D01*
X65316479Y-84235952D01*
X65000000Y-84173000D01*
X63642554Y-84173000D01*
X63327000Y-83857446D01*
X63327000Y-83285750D01*
X63740000Y-83285750D01*
X63740000Y-83626309D01*
X63836673Y-83859698D01*
X64015301Y-84038327D01*
X64248690Y-84135000D01*
X64714250Y-84135000D01*
X64873000Y-83976250D01*
X64873000Y-83127000D01*
X65127000Y-83127000D01*
X65127000Y-83976250D01*
X65285750Y-84135000D01*
X65751310Y-84135000D01*
X65984699Y-84038327D01*
X66127761Y-83895265D01*
X66223690Y-83935000D01*
X66714250Y-83935000D01*
X66873000Y-83776250D01*
X66873000Y-83077000D01*
X67127000Y-83077000D01*
X67127000Y-83776250D01*
X67285750Y-83935000D01*
X67776310Y-83935000D01*
X68009699Y-83838327D01*
X68188327Y-83659698D01*
X68285000Y-83426309D01*
X68285000Y-83235750D01*
X68126250Y-83077000D01*
X67127000Y-83077000D01*
X66873000Y-83077000D01*
X65873750Y-83077000D01*
X65823750Y-83127000D01*
X65127000Y-83127000D01*
X64873000Y-83127000D01*
X63898750Y-83127000D01*
X63740000Y-83285750D01*
X63327000Y-83285750D01*
X63327000Y-73747000D01*
X65677446Y-73747000D01*
X68474894Y-76544449D01*
X68474894Y-76544449D01*
G37*
X68474894Y-76544449D02*
X68456644Y-76556644D01*
X68187324Y-76825964D01*
X68187324Y-76700000D01*
X68150577Y-76504706D01*
X68035158Y-76325340D01*
X67859049Y-76205010D01*
X67650000Y-76162676D01*
X66350000Y-76162676D01*
X66154706Y-76199423D01*
X66010757Y-76292052D01*
X65965222Y-76273144D01*
X65636221Y-76272857D01*
X65332154Y-76398495D01*
X65099312Y-76630930D01*
X64973144Y-76934778D01*
X64972857Y-77263779D01*
X65098495Y-77567846D01*
X65330930Y-77800688D01*
X65634778Y-77926856D01*
X65963779Y-77927143D01*
X66103510Y-77869407D01*
X66140951Y-77894990D01*
X66350000Y-77937324D01*
X67650000Y-77937324D01*
X67773000Y-77914180D01*
X67773000Y-78087584D01*
X67650000Y-78062676D01*
X66350000Y-78062676D01*
X66154706Y-78099423D01*
X65975340Y-78214842D01*
X65855010Y-78390951D01*
X65812676Y-78600000D01*
X65812676Y-79300000D01*
X65849423Y-79495294D01*
X65964842Y-79674660D01*
X66140951Y-79794990D01*
X66350000Y-79837324D01*
X66373000Y-79837324D01*
X66373000Y-80162676D01*
X66350000Y-80162676D01*
X66154706Y-80199423D01*
X66086197Y-80243508D01*
X66010158Y-80125340D01*
X65834049Y-80005010D01*
X65625000Y-79962676D01*
X64375000Y-79962676D01*
X64179706Y-79999423D01*
X64000340Y-80114842D01*
X63880010Y-80290951D01*
X63837676Y-80500000D01*
X63837676Y-81500000D01*
X63874423Y-81695294D01*
X63989842Y-81874660D01*
X64078735Y-81935398D01*
X64015301Y-81961673D01*
X63836673Y-82140302D01*
X63740000Y-82373691D01*
X63740000Y-82714250D01*
X63898750Y-82873000D01*
X64873000Y-82873000D01*
X64873000Y-82853000D01*
X65127000Y-82853000D01*
X65127000Y-82873000D01*
X66101250Y-82873000D01*
X66151250Y-82823000D01*
X66873000Y-82823000D01*
X66873000Y-82123750D01*
X67127000Y-82123750D01*
X67127000Y-82823000D01*
X68126250Y-82823000D01*
X68285000Y-82664250D01*
X68285000Y-82473691D01*
X68188327Y-82240302D01*
X68009699Y-82061673D01*
X67776310Y-81965000D01*
X67285750Y-81965000D01*
X67127000Y-82123750D01*
X66873000Y-82123750D01*
X66714250Y-81965000D01*
X66223690Y-81965000D01*
X66057050Y-82034025D01*
X65984699Y-81961673D01*
X65921460Y-81935478D01*
X65999660Y-81885158D01*
X66040049Y-81826047D01*
X66140951Y-81894990D01*
X66350000Y-81937324D01*
X67650000Y-81937324D01*
X67845294Y-81900577D01*
X68024660Y-81785158D01*
X68144990Y-81609049D01*
X68187324Y-81400000D01*
X68187324Y-80700000D01*
X68150577Y-80504706D01*
X68035158Y-80325340D01*
X67859049Y-80205010D01*
X67650000Y-80162676D01*
X67627000Y-80162676D01*
X67627000Y-79837324D01*
X67650000Y-79837324D01*
X67845294Y-79800577D01*
X68024660Y-79685158D01*
X68098561Y-79577000D01*
X68150000Y-79577000D01*
X68290712Y-79549010D01*
X68298495Y-79567846D01*
X68530930Y-79800688D01*
X68649843Y-79850065D01*
X68573144Y-80034778D01*
X68572857Y-80363779D01*
X68698495Y-80667846D01*
X68930930Y-80900688D01*
X69234778Y-81026856D01*
X69340236Y-81026948D01*
X70156644Y-81843356D01*
X70360057Y-81979272D01*
X70431790Y-81993541D01*
X70373144Y-82134778D01*
X70373052Y-82240236D01*
X69506644Y-83106644D01*
X69370728Y-83310057D01*
X69323000Y-83550000D01*
X69323000Y-84901999D01*
X69225340Y-84964842D01*
X69105010Y-85140951D01*
X69062676Y-85350000D01*
X69062676Y-86650000D01*
X69099423Y-86845294D01*
X69196562Y-86996251D01*
X69179706Y-86999423D01*
X69000340Y-87114842D01*
X68998575Y-87117426D01*
X68834049Y-87005010D01*
X68799974Y-86998110D01*
X68894990Y-86859049D01*
X68937324Y-86650000D01*
X68937324Y-85350000D01*
X68900577Y-85154706D01*
X68785158Y-84975340D01*
X68609049Y-84855010D01*
X68400000Y-84812676D01*
X67700000Y-84812676D01*
X67504706Y-84849423D01*
X67325340Y-84964842D01*
X67316658Y-84977549D01*
X67065222Y-84873144D01*
X66736221Y-84872857D01*
X66432154Y-84998495D01*
X66299986Y-85130432D01*
X65584777Y-84415223D01*
X65316479Y-84235952D01*
X65000000Y-84173000D01*
X63642554Y-84173000D01*
X63327000Y-83857446D01*
X63327000Y-83285750D01*
X63740000Y-83285750D01*
X63740000Y-83626309D01*
X63836673Y-83859698D01*
X64015301Y-84038327D01*
X64248690Y-84135000D01*
X64714250Y-84135000D01*
X64873000Y-83976250D01*
X64873000Y-83127000D01*
X65127000Y-83127000D01*
X65127000Y-83976250D01*
X65285750Y-84135000D01*
X65751310Y-84135000D01*
X65984699Y-84038327D01*
X66127761Y-83895265D01*
X66223690Y-83935000D01*
X66714250Y-83935000D01*
X66873000Y-83776250D01*
X66873000Y-83077000D01*
X67127000Y-83077000D01*
X67127000Y-83776250D01*
X67285750Y-83935000D01*
X67776310Y-83935000D01*
X68009699Y-83838327D01*
X68188327Y-83659698D01*
X68285000Y-83426309D01*
X68285000Y-83235750D01*
X68126250Y-83077000D01*
X67127000Y-83077000D01*
X66873000Y-83077000D01*
X65873750Y-83077000D01*
X65823750Y-83127000D01*
X65127000Y-83127000D01*
X64873000Y-83127000D01*
X63898750Y-83127000D01*
X63740000Y-83285750D01*
X63327000Y-83285750D01*
X63327000Y-73747000D01*
X65677446Y-73747000D01*
X68474894Y-76544449D01*
G36*
X44012676Y-75450000D02*
X44049423Y-75645294D01*
X44164842Y-75824660D01*
X44299842Y-75916901D01*
X44225340Y-75964842D01*
X44105010Y-76140951D01*
X44062676Y-76350000D01*
X44062676Y-77650000D01*
X44099423Y-77845294D01*
X44214842Y-78024660D01*
X44390951Y-78144990D01*
X44600000Y-78187324D01*
X45250612Y-78187324D01*
X45556644Y-78493356D01*
X45760057Y-78629272D01*
X46000000Y-78677000D01*
X46901999Y-78677000D01*
X46964842Y-78774660D01*
X47140951Y-78894990D01*
X47185887Y-78904090D01*
X47173144Y-78934778D01*
X47173003Y-79095980D01*
X47154706Y-79099423D01*
X46975340Y-79214842D01*
X46855010Y-79390951D01*
X46812676Y-79600000D01*
X46812676Y-80300000D01*
X46849423Y-80495294D01*
X46964842Y-80674660D01*
X47140951Y-80794990D01*
X47350000Y-80837324D01*
X48650000Y-80837324D01*
X48845294Y-80800577D01*
X49024660Y-80685158D01*
X49144990Y-80509049D01*
X49187324Y-80300000D01*
X49187324Y-79600000D01*
X49150577Y-79404706D01*
X49035158Y-79225340D01*
X48859049Y-79105010D01*
X48827001Y-79098520D01*
X48827143Y-78936221D01*
X48814787Y-78906317D01*
X48845294Y-78900577D01*
X49024660Y-78785158D01*
X49144990Y-78609049D01*
X49187324Y-78400000D01*
X49187324Y-78373691D01*
X51740000Y-78373691D01*
X51740000Y-78714250D01*
X51898750Y-78873000D01*
X52873000Y-78873000D01*
X52873000Y-78023750D01*
X53127000Y-78023750D01*
X53127000Y-78873000D01*
X54101250Y-78873000D01*
X54260000Y-78714250D01*
X54260000Y-78373691D01*
X54163327Y-78140302D01*
X53984699Y-77961673D01*
X53751310Y-77865000D01*
X53285750Y-77865000D01*
X53127000Y-78023750D01*
X52873000Y-78023750D01*
X52714250Y-77865000D01*
X52248690Y-77865000D01*
X52015301Y-77961673D01*
X51836673Y-78140302D01*
X51740000Y-78373691D01*
X49187324Y-78373691D01*
X49187324Y-77700000D01*
X49150577Y-77504706D01*
X49035158Y-77325340D01*
X48859049Y-77205010D01*
X48650000Y-77162676D01*
X47350000Y-77162676D01*
X47154706Y-77199423D01*
X46975340Y-77314842D01*
X46901439Y-77423000D01*
X46259712Y-77423000D01*
X45837324Y-77000612D01*
X45837324Y-76350000D01*
X45800577Y-76154706D01*
X45685158Y-75975340D01*
X45598659Y-75916238D01*
X45720330Y-75837944D01*
X45735952Y-75916479D01*
X45915223Y-76184777D01*
X46265223Y-76534777D01*
X46533521Y-76714048D01*
X46850000Y-76777000D01*
X47114622Y-76777000D01*
X47140951Y-76794990D01*
X47350000Y-76837324D01*
X48650000Y-76837324D01*
X48845294Y-76800577D01*
X48881934Y-76777000D01*
X48926999Y-76777000D01*
X48989842Y-76874660D01*
X49165951Y-76994990D01*
X49375000Y-77037324D01*
X50625000Y-77037324D01*
X50820294Y-77000577D01*
X50999660Y-76885158D01*
X51077052Y-76771891D01*
X51116479Y-76764048D01*
X51384777Y-76584777D01*
X52192554Y-75777000D01*
X52195567Y-75777000D01*
X52273000Y-75792681D01*
X52273000Y-76000000D01*
X52320728Y-76239943D01*
X52443043Y-76423000D01*
X52456644Y-76443356D01*
X53556644Y-77543356D01*
X53760058Y-77679273D01*
X54000000Y-77727000D01*
X60903424Y-77727000D01*
X60799312Y-77830930D01*
X60673144Y-78134778D01*
X60673052Y-78240236D01*
X60506644Y-78406644D01*
X60370728Y-78610057D01*
X60323000Y-78850000D01*
X60323000Y-78901999D01*
X60225340Y-78964842D01*
X60105010Y-79140951D01*
X60062676Y-79350000D01*
X60062676Y-80650000D01*
X60086332Y-80775719D01*
X59904542Y-80811879D01*
X59937324Y-80650000D01*
X59937324Y-79350000D01*
X59900577Y-79154706D01*
X59785158Y-78975340D01*
X59609049Y-78855010D01*
X59400000Y-78812676D01*
X58700000Y-78812676D01*
X58504706Y-78849423D01*
X58325340Y-78964842D01*
X58205010Y-79140951D01*
X58162676Y-79350000D01*
X58162676Y-79750612D01*
X57840340Y-80072948D01*
X57736221Y-80072857D01*
X57432154Y-80198495D01*
X57199312Y-80430930D01*
X57073144Y-80734778D01*
X57072857Y-81063779D01*
X57198495Y-81367846D01*
X57253553Y-81423000D01*
X56000000Y-81423000D01*
X55760058Y-81470727D01*
X55556644Y-81606644D01*
X55000612Y-82162676D01*
X54350000Y-82162676D01*
X54154706Y-82199423D01*
X53998233Y-82300111D01*
X53859049Y-82205010D01*
X53650000Y-82162676D01*
X53424036Y-82162676D01*
X53443356Y-82143356D01*
X53514204Y-82037324D01*
X53625000Y-82037324D01*
X53820294Y-82000577D01*
X53999660Y-81885158D01*
X54119990Y-81709049D01*
X54162324Y-81500000D01*
X54162324Y-80500000D01*
X54125577Y-80304706D01*
X54010158Y-80125340D01*
X53921265Y-80064602D01*
X53984699Y-80038327D01*
X54163327Y-79859698D01*
X54260000Y-79626309D01*
X54260000Y-79285750D01*
X54101250Y-79127000D01*
X53127000Y-79127000D01*
X53127000Y-79147000D01*
X52873000Y-79147000D01*
X52873000Y-79127000D01*
X51898750Y-79127000D01*
X51740000Y-79285750D01*
X51740000Y-79626309D01*
X51836673Y-79859698D01*
X52015301Y-80038327D01*
X52078540Y-80064522D01*
X52000340Y-80114842D01*
X51880010Y-80290951D01*
X51852739Y-80425618D01*
X51697609Y-80529272D01*
X51656644Y-80556644D01*
X51640340Y-80572948D01*
X51536221Y-80572857D01*
X51232154Y-80698495D01*
X50999312Y-80930930D01*
X50873144Y-81234778D01*
X50873076Y-81312676D01*
X50225000Y-81312676D01*
X50090774Y-81337932D01*
X49984049Y-81265010D01*
X49775000Y-81222676D01*
X48225000Y-81222676D01*
X48029706Y-81259423D01*
X47905789Y-81339162D01*
X47775000Y-81312676D01*
X47125000Y-81312676D01*
X47051892Y-81326432D01*
X46916479Y-81235952D01*
X46600000Y-81173000D01*
X46040826Y-81173000D01*
X46010158Y-81125340D01*
X45921265Y-81064602D01*
X45984699Y-81038327D01*
X46163327Y-80859698D01*
X46260000Y-80626309D01*
X46260000Y-80285750D01*
X46101250Y-80127000D01*
X45127000Y-80127000D01*
X45127000Y-80147000D01*
X44873000Y-80147000D01*
X44873000Y-80127000D01*
X43898750Y-80127000D01*
X43740000Y-80285750D01*
X43740000Y-80626309D01*
X43836673Y-80859698D01*
X44015301Y-81038327D01*
X44078540Y-81064522D01*
X44000340Y-81114842D01*
X43993868Y-81124314D01*
X43527000Y-80657446D01*
X43527000Y-79373691D01*
X43740000Y-79373691D01*
X43740000Y-79714250D01*
X43898750Y-79873000D01*
X44873000Y-79873000D01*
X44873000Y-79023750D01*
X45127000Y-79023750D01*
X45127000Y-79873000D01*
X46101250Y-79873000D01*
X46260000Y-79714250D01*
X46260000Y-79373691D01*
X46163327Y-79140302D01*
X45984699Y-78961673D01*
X45751310Y-78865000D01*
X45285750Y-78865000D01*
X45127000Y-79023750D01*
X44873000Y-79023750D01*
X44714250Y-78865000D01*
X44248690Y-78865000D01*
X44015301Y-78961673D01*
X43836673Y-79140302D01*
X43740000Y-79373691D01*
X43527000Y-79373691D01*
X43527000Y-79000000D01*
X43464048Y-78683521D01*
X43359563Y-78527149D01*
X43493356Y-78393356D01*
X43504285Y-78377000D01*
X43629272Y-78189943D01*
X43643239Y-78119725D01*
X43774660Y-78035158D01*
X43894990Y-77859049D01*
X43937324Y-77650000D01*
X43937324Y-76350000D01*
X43900577Y-76154706D01*
X43785158Y-75975340D01*
X43698659Y-75916238D01*
X43824660Y-75835158D01*
X43944990Y-75659049D01*
X43987324Y-75450000D01*
X43987324Y-74827000D01*
X44012676Y-74827000D01*
X44012676Y-75450000D01*
X44012676Y-75450000D01*
G37*
X44012676Y-75450000D02*
X44049423Y-75645294D01*
X44164842Y-75824660D01*
X44299842Y-75916901D01*
X44225340Y-75964842D01*
X44105010Y-76140951D01*
X44062676Y-76350000D01*
X44062676Y-77650000D01*
X44099423Y-77845294D01*
X44214842Y-78024660D01*
X44390951Y-78144990D01*
X44600000Y-78187324D01*
X45250612Y-78187324D01*
X45556644Y-78493356D01*
X45760057Y-78629272D01*
X46000000Y-78677000D01*
X46901999Y-78677000D01*
X46964842Y-78774660D01*
X47140951Y-78894990D01*
X47185887Y-78904090D01*
X47173144Y-78934778D01*
X47173003Y-79095980D01*
X47154706Y-79099423D01*
X46975340Y-79214842D01*
X46855010Y-79390951D01*
X46812676Y-79600000D01*
X46812676Y-80300000D01*
X46849423Y-80495294D01*
X46964842Y-80674660D01*
X47140951Y-80794990D01*
X47350000Y-80837324D01*
X48650000Y-80837324D01*
X48845294Y-80800577D01*
X49024660Y-80685158D01*
X49144990Y-80509049D01*
X49187324Y-80300000D01*
X49187324Y-79600000D01*
X49150577Y-79404706D01*
X49035158Y-79225340D01*
X48859049Y-79105010D01*
X48827001Y-79098520D01*
X48827143Y-78936221D01*
X48814787Y-78906317D01*
X48845294Y-78900577D01*
X49024660Y-78785158D01*
X49144990Y-78609049D01*
X49187324Y-78400000D01*
X49187324Y-78373691D01*
X51740000Y-78373691D01*
X51740000Y-78714250D01*
X51898750Y-78873000D01*
X52873000Y-78873000D01*
X52873000Y-78023750D01*
X53127000Y-78023750D01*
X53127000Y-78873000D01*
X54101250Y-78873000D01*
X54260000Y-78714250D01*
X54260000Y-78373691D01*
X54163327Y-78140302D01*
X53984699Y-77961673D01*
X53751310Y-77865000D01*
X53285750Y-77865000D01*
X53127000Y-78023750D01*
X52873000Y-78023750D01*
X52714250Y-77865000D01*
X52248690Y-77865000D01*
X52015301Y-77961673D01*
X51836673Y-78140302D01*
X51740000Y-78373691D01*
X49187324Y-78373691D01*
X49187324Y-77700000D01*
X49150577Y-77504706D01*
X49035158Y-77325340D01*
X48859049Y-77205010D01*
X48650000Y-77162676D01*
X47350000Y-77162676D01*
X47154706Y-77199423D01*
X46975340Y-77314842D01*
X46901439Y-77423000D01*
X46259712Y-77423000D01*
X45837324Y-77000612D01*
X45837324Y-76350000D01*
X45800577Y-76154706D01*
X45685158Y-75975340D01*
X45598659Y-75916238D01*
X45720330Y-75837944D01*
X45735952Y-75916479D01*
X45915223Y-76184777D01*
X46265223Y-76534777D01*
X46533521Y-76714048D01*
X46850000Y-76777000D01*
X47114622Y-76777000D01*
X47140951Y-76794990D01*
X47350000Y-76837324D01*
X48650000Y-76837324D01*
X48845294Y-76800577D01*
X48881934Y-76777000D01*
X48926999Y-76777000D01*
X48989842Y-76874660D01*
X49165951Y-76994990D01*
X49375000Y-77037324D01*
X50625000Y-77037324D01*
X50820294Y-77000577D01*
X50999660Y-76885158D01*
X51077052Y-76771891D01*
X51116479Y-76764048D01*
X51384777Y-76584777D01*
X52192554Y-75777000D01*
X52195567Y-75777000D01*
X52273000Y-75792681D01*
X52273000Y-76000000D01*
X52320728Y-76239943D01*
X52443043Y-76423000D01*
X52456644Y-76443356D01*
X53556644Y-77543356D01*
X53760058Y-77679273D01*
X54000000Y-77727000D01*
X60903424Y-77727000D01*
X60799312Y-77830930D01*
X60673144Y-78134778D01*
X60673052Y-78240236D01*
X60506644Y-78406644D01*
X60370728Y-78610057D01*
X60323000Y-78850000D01*
X60323000Y-78901999D01*
X60225340Y-78964842D01*
X60105010Y-79140951D01*
X60062676Y-79350000D01*
X60062676Y-80650000D01*
X60086332Y-80775719D01*
X59904542Y-80811879D01*
X59937324Y-80650000D01*
X59937324Y-79350000D01*
X59900577Y-79154706D01*
X59785158Y-78975340D01*
X59609049Y-78855010D01*
X59400000Y-78812676D01*
X58700000Y-78812676D01*
X58504706Y-78849423D01*
X58325340Y-78964842D01*
X58205010Y-79140951D01*
X58162676Y-79350000D01*
X58162676Y-79750612D01*
X57840340Y-80072948D01*
X57736221Y-80072857D01*
X57432154Y-80198495D01*
X57199312Y-80430930D01*
X57073144Y-80734778D01*
X57072857Y-81063779D01*
X57198495Y-81367846D01*
X57253553Y-81423000D01*
X56000000Y-81423000D01*
X55760058Y-81470727D01*
X55556644Y-81606644D01*
X55000612Y-82162676D01*
X54350000Y-82162676D01*
X54154706Y-82199423D01*
X53998233Y-82300111D01*
X53859049Y-82205010D01*
X53650000Y-82162676D01*
X53424036Y-82162676D01*
X53443356Y-82143356D01*
X53514204Y-82037324D01*
X53625000Y-82037324D01*
X53820294Y-82000577D01*
X53999660Y-81885158D01*
X54119990Y-81709049D01*
X54162324Y-81500000D01*
X54162324Y-80500000D01*
X54125577Y-80304706D01*
X54010158Y-80125340D01*
X53921265Y-80064602D01*
X53984699Y-80038327D01*
X54163327Y-79859698D01*
X54260000Y-79626309D01*
X54260000Y-79285750D01*
X54101250Y-79127000D01*
X53127000Y-79127000D01*
X53127000Y-79147000D01*
X52873000Y-79147000D01*
X52873000Y-79127000D01*
X51898750Y-79127000D01*
X51740000Y-79285750D01*
X51740000Y-79626309D01*
X51836673Y-79859698D01*
X52015301Y-80038327D01*
X52078540Y-80064522D01*
X52000340Y-80114842D01*
X51880010Y-80290951D01*
X51852739Y-80425618D01*
X51697609Y-80529272D01*
X51656644Y-80556644D01*
X51640340Y-80572948D01*
X51536221Y-80572857D01*
X51232154Y-80698495D01*
X50999312Y-80930930D01*
X50873144Y-81234778D01*
X50873076Y-81312676D01*
X50225000Y-81312676D01*
X50090774Y-81337932D01*
X49984049Y-81265010D01*
X49775000Y-81222676D01*
X48225000Y-81222676D01*
X48029706Y-81259423D01*
X47905789Y-81339162D01*
X47775000Y-81312676D01*
X47125000Y-81312676D01*
X47051892Y-81326432D01*
X46916479Y-81235952D01*
X46600000Y-81173000D01*
X46040826Y-81173000D01*
X46010158Y-81125340D01*
X45921265Y-81064602D01*
X45984699Y-81038327D01*
X46163327Y-80859698D01*
X46260000Y-80626309D01*
X46260000Y-80285750D01*
X46101250Y-80127000D01*
X45127000Y-80127000D01*
X45127000Y-80147000D01*
X44873000Y-80147000D01*
X44873000Y-80127000D01*
X43898750Y-80127000D01*
X43740000Y-80285750D01*
X43740000Y-80626309D01*
X43836673Y-80859698D01*
X44015301Y-81038327D01*
X44078540Y-81064522D01*
X44000340Y-81114842D01*
X43993868Y-81124314D01*
X43527000Y-80657446D01*
X43527000Y-79373691D01*
X43740000Y-79373691D01*
X43740000Y-79714250D01*
X43898750Y-79873000D01*
X44873000Y-79873000D01*
X44873000Y-79023750D01*
X45127000Y-79023750D01*
X45127000Y-79873000D01*
X46101250Y-79873000D01*
X46260000Y-79714250D01*
X46260000Y-79373691D01*
X46163327Y-79140302D01*
X45984699Y-78961673D01*
X45751310Y-78865000D01*
X45285750Y-78865000D01*
X45127000Y-79023750D01*
X44873000Y-79023750D01*
X44714250Y-78865000D01*
X44248690Y-78865000D01*
X44015301Y-78961673D01*
X43836673Y-79140302D01*
X43740000Y-79373691D01*
X43527000Y-79373691D01*
X43527000Y-79000000D01*
X43464048Y-78683521D01*
X43359563Y-78527149D01*
X43493356Y-78393356D01*
X43504285Y-78377000D01*
X43629272Y-78189943D01*
X43643239Y-78119725D01*
X43774660Y-78035158D01*
X43894990Y-77859049D01*
X43937324Y-77650000D01*
X43937324Y-76350000D01*
X43900577Y-76154706D01*
X43785158Y-75975340D01*
X43698659Y-75916238D01*
X43824660Y-75835158D01*
X43944990Y-75659049D01*
X43987324Y-75450000D01*
X43987324Y-74827000D01*
X44012676Y-74827000D01*
X44012676Y-75450000D01*
G36*
X81285931Y-75714064D02*
X81285933Y-75714067D01*
X81585933Y-76014067D01*
X81821789Y-76171660D01*
X82100000Y-76227000D01*
X83598866Y-76227000D01*
X83885931Y-76514064D01*
X83885933Y-76514067D01*
X84173000Y-76801133D01*
X84173000Y-79373000D01*
X83800000Y-79373000D01*
X83521789Y-79428340D01*
X83377000Y-79525084D01*
X83377000Y-79350000D01*
X83329272Y-79110057D01*
X83193356Y-78906644D01*
X82940737Y-78654025D01*
X83067846Y-78601505D01*
X83300688Y-78369070D01*
X83426856Y-78065222D01*
X83427143Y-77736221D01*
X83301505Y-77432154D01*
X83069070Y-77199312D01*
X82827088Y-77098833D01*
X82827143Y-77036221D01*
X82701505Y-76732154D01*
X82469070Y-76499312D01*
X82165222Y-76373144D01*
X81836221Y-76372857D01*
X81532154Y-76498495D01*
X81299312Y-76730930D01*
X81173144Y-77034778D01*
X81172857Y-77363779D01*
X81273000Y-77606143D01*
X81273000Y-79100000D01*
X81320728Y-79339943D01*
X81442234Y-79521790D01*
X81456644Y-79543356D01*
X81623000Y-79709712D01*
X81623000Y-80163052D01*
X81495410Y-80187060D01*
X81375000Y-80162676D01*
X81125000Y-80162676D01*
X80995410Y-80187060D01*
X80875000Y-80162676D01*
X80625000Y-80162676D01*
X80495410Y-80187060D01*
X80375000Y-80162676D01*
X80125000Y-80162676D01*
X79995410Y-80187060D01*
X79875000Y-80162676D01*
X79625000Y-80162676D01*
X79495410Y-80187060D01*
X79375000Y-80162676D01*
X79125000Y-80162676D01*
X78929706Y-80199423D01*
X78750340Y-80314842D01*
X78630010Y-80490951D01*
X78587676Y-80700000D01*
X78587676Y-81725612D01*
X78540288Y-81773000D01*
X77400000Y-81773000D01*
X77160057Y-81820728D01*
X76956644Y-81956644D01*
X76640340Y-82272948D01*
X76627000Y-82272936D01*
X76627000Y-82100000D01*
X76579272Y-81860057D01*
X76443356Y-81656644D01*
X76227052Y-81440340D01*
X76227143Y-81336221D01*
X76121138Y-81079669D01*
X76234778Y-81126856D01*
X76563779Y-81127143D01*
X76867846Y-81001505D01*
X77100688Y-80769070D01*
X77226856Y-80465222D01*
X77226861Y-80459851D01*
X77274388Y-80412324D01*
X78300000Y-80412324D01*
X78495294Y-80375577D01*
X78674660Y-80260158D01*
X78794990Y-80084049D01*
X78837324Y-79875000D01*
X78837324Y-79625000D01*
X78812940Y-79495410D01*
X78816516Y-79477750D01*
X78934778Y-79526856D01*
X79263779Y-79527143D01*
X79567846Y-79401505D01*
X79800688Y-79169070D01*
X79926856Y-78865222D01*
X79927143Y-78536221D01*
X79801505Y-78232154D01*
X79669643Y-78100061D01*
X79700688Y-78069070D01*
X79826856Y-77765222D01*
X79827143Y-77436221D01*
X79741268Y-77228387D01*
X79800688Y-77169070D01*
X79926856Y-76865222D01*
X79927143Y-76536221D01*
X79801505Y-76232154D01*
X79569070Y-75999312D01*
X79265222Y-75873144D01*
X79159764Y-75873052D01*
X79093356Y-75806644D01*
X79050801Y-75778210D01*
X78935000Y-75700835D01*
X78935000Y-75651712D01*
X79059712Y-75527000D01*
X81098867Y-75527000D01*
X81285931Y-75714064D01*
X81285931Y-75714064D01*
G37*
X81285931Y-75714064D02*
X81285933Y-75714067D01*
X81585933Y-76014067D01*
X81821789Y-76171660D01*
X82100000Y-76227000D01*
X83598866Y-76227000D01*
X83885931Y-76514064D01*
X83885933Y-76514067D01*
X84173000Y-76801133D01*
X84173000Y-79373000D01*
X83800000Y-79373000D01*
X83521789Y-79428340D01*
X83377000Y-79525084D01*
X83377000Y-79350000D01*
X83329272Y-79110057D01*
X83193356Y-78906644D01*
X82940737Y-78654025D01*
X83067846Y-78601505D01*
X83300688Y-78369070D01*
X83426856Y-78065222D01*
X83427143Y-77736221D01*
X83301505Y-77432154D01*
X83069070Y-77199312D01*
X82827088Y-77098833D01*
X82827143Y-77036221D01*
X82701505Y-76732154D01*
X82469070Y-76499312D01*
X82165222Y-76373144D01*
X81836221Y-76372857D01*
X81532154Y-76498495D01*
X81299312Y-76730930D01*
X81173144Y-77034778D01*
X81172857Y-77363779D01*
X81273000Y-77606143D01*
X81273000Y-79100000D01*
X81320728Y-79339943D01*
X81442234Y-79521790D01*
X81456644Y-79543356D01*
X81623000Y-79709712D01*
X81623000Y-80163052D01*
X81495410Y-80187060D01*
X81375000Y-80162676D01*
X81125000Y-80162676D01*
X80995410Y-80187060D01*
X80875000Y-80162676D01*
X80625000Y-80162676D01*
X80495410Y-80187060D01*
X80375000Y-80162676D01*
X80125000Y-80162676D01*
X79995410Y-80187060D01*
X79875000Y-80162676D01*
X79625000Y-80162676D01*
X79495410Y-80187060D01*
X79375000Y-80162676D01*
X79125000Y-80162676D01*
X78929706Y-80199423D01*
X78750340Y-80314842D01*
X78630010Y-80490951D01*
X78587676Y-80700000D01*
X78587676Y-81725612D01*
X78540288Y-81773000D01*
X77400000Y-81773000D01*
X77160057Y-81820728D01*
X76956644Y-81956644D01*
X76640340Y-82272948D01*
X76627000Y-82272936D01*
X76627000Y-82100000D01*
X76579272Y-81860057D01*
X76443356Y-81656644D01*
X76227052Y-81440340D01*
X76227143Y-81336221D01*
X76121138Y-81079669D01*
X76234778Y-81126856D01*
X76563779Y-81127143D01*
X76867846Y-81001505D01*
X77100688Y-80769070D01*
X77226856Y-80465222D01*
X77226861Y-80459851D01*
X77274388Y-80412324D01*
X78300000Y-80412324D01*
X78495294Y-80375577D01*
X78674660Y-80260158D01*
X78794990Y-80084049D01*
X78837324Y-79875000D01*
X78837324Y-79625000D01*
X78812940Y-79495410D01*
X78816516Y-79477750D01*
X78934778Y-79526856D01*
X79263779Y-79527143D01*
X79567846Y-79401505D01*
X79800688Y-79169070D01*
X79926856Y-78865222D01*
X79927143Y-78536221D01*
X79801505Y-78232154D01*
X79669643Y-78100061D01*
X79700688Y-78069070D01*
X79826856Y-77765222D01*
X79827143Y-77436221D01*
X79741268Y-77228387D01*
X79800688Y-77169070D01*
X79926856Y-76865222D01*
X79927143Y-76536221D01*
X79801505Y-76232154D01*
X79569070Y-75999312D01*
X79265222Y-75873144D01*
X79159764Y-75873052D01*
X79093356Y-75806644D01*
X79050801Y-75778210D01*
X78935000Y-75700835D01*
X78935000Y-75651712D01*
X79059712Y-75527000D01*
X81098867Y-75527000D01*
X81285931Y-75714064D01*
G36*
X74127000Y-81873000D02*
X74147000Y-81873000D01*
X74147000Y-82127000D01*
X74127000Y-82127000D01*
X74127000Y-82147000D01*
X73873000Y-82147000D01*
X73873000Y-82127000D01*
X73853000Y-82127000D01*
X73853000Y-81873000D01*
X73873000Y-81873000D01*
X73873000Y-81853000D01*
X74127000Y-81853000D01*
X74127000Y-81873000D01*
X74127000Y-81873000D01*
G37*
X74127000Y-81873000D02*
X74147000Y-81873000D01*
X74147000Y-82127000D01*
X74127000Y-82127000D01*
X74127000Y-82147000D01*
X73873000Y-82147000D01*
X73873000Y-82127000D01*
X73853000Y-82127000D01*
X73853000Y-81873000D01*
X73873000Y-81873000D01*
X73873000Y-81853000D01*
X74127000Y-81853000D01*
X74127000Y-81873000D01*
G36*
X72127000Y-77873000D02*
X73873000Y-77873000D01*
X73873000Y-77853000D01*
X74127000Y-77853000D01*
X74127000Y-77873000D01*
X74147000Y-77873000D01*
X74147000Y-78127000D01*
X74127000Y-78127000D01*
X74127000Y-78147000D01*
X73873000Y-78147000D01*
X73873000Y-78127000D01*
X72127000Y-78127000D01*
X72127000Y-78976250D01*
X72285750Y-79135000D01*
X72751310Y-79135000D01*
X72984699Y-79038327D01*
X73000000Y-79023026D01*
X73015301Y-79038327D01*
X73078540Y-79064522D01*
X73000340Y-79114842D01*
X72880010Y-79290951D01*
X72863394Y-79373000D01*
X71659712Y-79373000D01*
X71527052Y-79240340D01*
X71527143Y-79136221D01*
X71526638Y-79135000D01*
X71714250Y-79135000D01*
X71873000Y-78976250D01*
X71873000Y-78127000D01*
X71853000Y-78127000D01*
X71853000Y-77873000D01*
X71873000Y-77873000D01*
X71873000Y-77853000D01*
X72127000Y-77853000D01*
X72127000Y-77873000D01*
X72127000Y-77873000D01*
G37*
X72127000Y-77873000D02*
X73873000Y-77873000D01*
X73873000Y-77853000D01*
X74127000Y-77853000D01*
X74127000Y-77873000D01*
X74147000Y-77873000D01*
X74147000Y-78127000D01*
X74127000Y-78127000D01*
X74127000Y-78147000D01*
X73873000Y-78147000D01*
X73873000Y-78127000D01*
X72127000Y-78127000D01*
X72127000Y-78976250D01*
X72285750Y-79135000D01*
X72751310Y-79135000D01*
X72984699Y-79038327D01*
X73000000Y-79023026D01*
X73015301Y-79038327D01*
X73078540Y-79064522D01*
X73000340Y-79114842D01*
X72880010Y-79290951D01*
X72863394Y-79373000D01*
X71659712Y-79373000D01*
X71527052Y-79240340D01*
X71527143Y-79136221D01*
X71526638Y-79135000D01*
X71714250Y-79135000D01*
X71873000Y-78976250D01*
X71873000Y-78127000D01*
X71853000Y-78127000D01*
X71853000Y-77873000D01*
X71873000Y-77873000D01*
X71873000Y-77853000D01*
X72127000Y-77853000D01*
X72127000Y-77873000D01*
G36*
X75240290Y-77872998D02*
X75101252Y-77872998D01*
X75260000Y-77714250D01*
X75260000Y-77565870D01*
X75443356Y-77443356D01*
X75509712Y-77377000D01*
X75736288Y-77377000D01*
X75240290Y-77872998D01*
X75240290Y-77872998D01*
G37*
X75240290Y-77872998D02*
X75101252Y-77872998D01*
X75260000Y-77714250D01*
X75260000Y-77565870D01*
X75443356Y-77443356D01*
X75509712Y-77377000D01*
X75736288Y-77377000D01*
X75240290Y-77872998D01*
G36*
X76133521Y-76014048D02*
X76391535Y-76065370D01*
X76415406Y-76123000D01*
X75250000Y-76123000D01*
X75162324Y-76140440D01*
X75162324Y-76007230D01*
X75242554Y-75927000D01*
X76003244Y-75927000D01*
X76133521Y-76014048D01*
X76133521Y-76014048D01*
G37*
X76133521Y-76014048D02*
X76391535Y-76065370D01*
X76415406Y-76123000D01*
X75250000Y-76123000D01*
X75162324Y-76140440D01*
X75162324Y-76007230D01*
X75242554Y-75927000D01*
X76003244Y-75927000D01*
X76133521Y-76014048D01*
M02*
